%TF.GenerationSoftware,KiCad,Pcbnew,(6.0.0-0)*%
%TF.CreationDate,2022-12-08T17:20:48+01:00*%
%TF.ProjectId,drone_o_tron_1_0Rev1,64726f6e-655f-46f5-9f74-726f6e5f315f,rev?*%
%TF.SameCoordinates,Original*%
%TF.FileFunction,Soldermask,Bot*%
%TF.FilePolarity,Negative*%
%FSLAX46Y46*%
G04 Gerber Fmt 4.6, Leading zero omitted, Abs format (unit mm)*
G04 Created by KiCad (PCBNEW (6.0.0-0)) date 2022-12-08 17:20:48*
%MOMM*%
%LPD*%
G01*
G04 APERTURE LIST*
G04 Aperture macros list*
%AMRoundRect*
0 Rectangle with rounded corners*
0 $1 Rounding radius*
0 $2 $3 $4 $5 $6 $7 $8 $9 X,Y pos of 4 corners*
0 Add a 4 corners polygon primitive as box body*
4,1,4,$2,$3,$4,$5,$6,$7,$8,$9,$2,$3,0*
0 Add four circle primitives for the rounded corners*
1,1,$1+$1,$2,$3*
1,1,$1+$1,$4,$5*
1,1,$1+$1,$6,$7*
1,1,$1+$1,$8,$9*
0 Add four rect primitives between the rounded corners*
20,1,$1+$1,$2,$3,$4,$5,0*
20,1,$1+$1,$4,$5,$6,$7,0*
20,1,$1+$1,$6,$7,$8,$9,0*
20,1,$1+$1,$8,$9,$2,$3,0*%
G04 Aperture macros list end*
%ADD10C,1.400000*%
%ADD11O,1.400000X1.400000*%
%ADD12C,1.600000*%
%ADD13O,3.500000X2.200000*%
%ADD14R,2.500000X1.500000*%
%ADD15O,2.500000X1.500000*%
%ADD16C,4.000000*%
%ADD17C,1.800000*%
%ADD18R,1.600000X1.600000*%
%ADD19RoundRect,0.325000X0.675000X0.325000X-0.675000X0.325000X-0.675000X-0.325000X0.675000X-0.325000X0*%
%ADD20RoundRect,0.325000X-0.325000X0.675000X-0.325000X-0.675000X0.325000X-0.675000X0.325000X0.675000X0*%
%ADD21C,4.600000*%
%ADD22O,1.600000X1.600000*%
%ADD23C,1.524000*%
%ADD24R,1.300000X1.300000*%
%ADD25C,1.300000*%
%ADD26O,1.200000X3.000000*%
%ADD27O,3.200000X1.200000*%
%ADD28R,1.800000X1.800000*%
%ADD29O,2.200000X3.500000*%
%ADD30R,1.500000X2.500000*%
%ADD31O,1.500000X2.500000*%
%ADD32C,1.440000*%
G04 APERTURE END LIST*
D10*
%TO.C,R320*%
X35400000Y-56400000D03*
D11*
X35400000Y-48780000D03*
%TD*%
D10*
%TO.C,R307*%
X50400000Y-14810000D03*
D11*
X50400000Y-7190000D03*
%TD*%
D10*
%TO.C,R204*%
X96733377Y-39791158D03*
D11*
X104353377Y-39791158D03*
%TD*%
D12*
%TO.C,C401*%
X118400000Y-45500000D03*
X118400000Y-40500000D03*
%TD*%
D13*
%TO.C,SW302*%
X159400000Y-65800000D03*
X159400000Y-74000000D03*
D14*
X159400000Y-71900000D03*
D15*
X159400000Y-69900000D03*
X159400000Y-67900000D03*
%TD*%
D10*
%TO.C,R402*%
X94083377Y-27991158D03*
D11*
X101703377Y-27991158D03*
%TD*%
D10*
%TO.C,R605*%
X63390000Y-33100000D03*
D11*
X71010000Y-33100000D03*
%TD*%
D10*
%TO.C,R205*%
X102483377Y-37191158D03*
D11*
X94863377Y-37191158D03*
%TD*%
D13*
%TO.C,SW701*%
X159400000Y-86400000D03*
X159400000Y-78200000D03*
D14*
X159400000Y-84300000D03*
D15*
X159400000Y-82300000D03*
X159400000Y-80300000D03*
%TD*%
D10*
%TO.C,R401*%
X101683377Y-25891158D03*
D11*
X94063377Y-25891158D03*
%TD*%
D10*
%TO.C,R331*%
X10900000Y-20900000D03*
D11*
X18520000Y-20900000D03*
%TD*%
D10*
%TO.C,R606*%
X51400000Y-45610000D03*
D11*
X51400000Y-37990000D03*
%TD*%
D10*
%TO.C,R709*%
X126800000Y-60100000D03*
D11*
X126800000Y-52480000D03*
%TD*%
D10*
%TO.C,R206*%
X6400000Y-57610000D03*
D11*
X6400000Y-49990000D03*
%TD*%
D16*
%TO.C,RV801*%
X9800000Y-52950000D03*
X18600000Y-52950000D03*
D17*
X16700000Y-59950000D03*
X14200000Y-59950000D03*
X11700000Y-59950000D03*
%TD*%
D18*
%TO.C,C702*%
X116433377Y-8891158D03*
D12*
X118933377Y-8891158D03*
%TD*%
D10*
%TO.C,R304*%
X35100000Y-16400000D03*
D11*
X35100000Y-8780000D03*
%TD*%
D10*
%TO.C,R308*%
X6600000Y-8690000D03*
D11*
X6600000Y-16310000D03*
%TD*%
D19*
%TO.C,J701*%
X151685534Y-47835534D03*
X151685534Y-50335534D03*
D20*
X156685534Y-52835534D03*
D19*
X151685534Y-57835534D03*
X151685534Y-55335534D03*
%TD*%
D10*
%TO.C,R704*%
X129000000Y-60100000D03*
D11*
X129000000Y-52480000D03*
%TD*%
D21*
%TO.C,RV601*%
X90483377Y-46741158D03*
X100483377Y-46741158D03*
D17*
X94433377Y-57741158D03*
X96433377Y-57741158D03*
X98433377Y-57741158D03*
X92433377Y-57741158D03*
X90433377Y-57741158D03*
X100433377Y-57741158D03*
%TD*%
D10*
%TO.C,R302*%
X36390000Y-46700000D03*
D11*
X44010000Y-46700000D03*
%TD*%
D10*
%TO.C,R602*%
X61020000Y-45500000D03*
D11*
X53400000Y-45500000D03*
%TD*%
D10*
%TO.C,R601*%
X105200000Y-49700000D03*
D11*
X105200000Y-57320000D03*
%TD*%
D18*
%TO.C,U1*%
X106800000Y-27875000D03*
D22*
X106800000Y-30415000D03*
X106800000Y-32955000D03*
X106800000Y-35495000D03*
X106800000Y-38035000D03*
X106800000Y-40575000D03*
X106800000Y-43115000D03*
X114420000Y-43115000D03*
X114420000Y-40575000D03*
X114420000Y-38035000D03*
X114420000Y-35495000D03*
X114420000Y-32955000D03*
X114420000Y-30415000D03*
X114420000Y-27875000D03*
%TD*%
D12*
%TO.C,C302*%
X46200000Y-3700000D03*
X51200000Y-3700000D03*
%TD*%
D23*
%TO.C,LS701*%
X136835534Y-2035534D03*
X140835534Y-2035534D03*
%TD*%
D10*
%TO.C,R317*%
X25500000Y-16300000D03*
D11*
X25500000Y-8680000D03*
%TD*%
D24*
%TO.C,Q201*%
X77170000Y-27130000D03*
D25*
X75900000Y-28400000D03*
X74630000Y-27130000D03*
%TD*%
D12*
%TO.C,C604*%
X49200000Y-31100000D03*
X44200000Y-31100000D03*
%TD*%
D10*
%TO.C,R604*%
X71110000Y-40500000D03*
D11*
X63490000Y-40500000D03*
%TD*%
D10*
%TO.C,R504*%
X116900000Y-30890000D03*
D11*
X116900000Y-38510000D03*
%TD*%
D12*
%TO.C,C601*%
X48600000Y-48400000D03*
X46100000Y-48400000D03*
%TD*%
D10*
%TO.C,R703*%
X160300000Y-34080000D03*
D11*
X160300000Y-41700000D03*
%TD*%
D10*
%TO.C,R315*%
X21300000Y-16300000D03*
D11*
X21300000Y-8680000D03*
%TD*%
D10*
%TO.C,R403*%
X94083377Y-30091158D03*
D11*
X101703377Y-30091158D03*
%TD*%
D12*
%TO.C,C303*%
X104183377Y-32191158D03*
X104183377Y-27191158D03*
%TD*%
D18*
%TO.C,D201*%
X104633377Y-34491158D03*
D22*
X97013377Y-34491158D03*
%TD*%
D26*
%TO.C,J301*%
X18700000Y-83500000D03*
D27*
X16200000Y-81000000D03*
D26*
X13700000Y-83500000D03*
%TD*%
D10*
%TO.C,R502*%
X79390000Y-45600000D03*
D11*
X87010000Y-45600000D03*
%TD*%
D10*
%TO.C,R314*%
X19200000Y-8700000D03*
D11*
X19200000Y-16320000D03*
%TD*%
D12*
%TO.C,C204*%
X90400000Y-25900000D03*
X90400000Y-30900000D03*
%TD*%
D10*
%TO.C,R312*%
X15000000Y-8700000D03*
D11*
X15000000Y-16320000D03*
%TD*%
D10*
%TO.C,R321*%
X145300000Y-60710000D03*
D11*
X145300000Y-53090000D03*
%TD*%
D10*
%TO.C,R404*%
X94083377Y-32191158D03*
D11*
X101703377Y-32191158D03*
%TD*%
D24*
%TO.C,Q701*%
X121300000Y-52900000D03*
D25*
X122570000Y-51630000D03*
X123840000Y-52900000D03*
%TD*%
D18*
%TO.C,U2*%
X53700000Y-27575000D03*
D22*
X53700000Y-30115000D03*
X53700000Y-32655000D03*
X53700000Y-35195000D03*
X53700000Y-37735000D03*
X53700000Y-40275000D03*
X53700000Y-42815000D03*
X61320000Y-42815000D03*
X61320000Y-40275000D03*
X61320000Y-37735000D03*
X61320000Y-35195000D03*
X61320000Y-32655000D03*
X61320000Y-30115000D03*
X61320000Y-27575000D03*
%TD*%
D12*
%TO.C,C203*%
X40300000Y-20700000D03*
X35300000Y-20700000D03*
%TD*%
D10*
%TO.C,R203*%
X87183377Y-39791158D03*
D11*
X94803377Y-39791158D03*
%TD*%
D28*
%TO.C,D102*%
X114783377Y-18791158D03*
D17*
X112243377Y-18791158D03*
%TD*%
D24*
%TO.C,Q702*%
X121300000Y-59000000D03*
D25*
X122570000Y-57730000D03*
X123840000Y-59000000D03*
%TD*%
D12*
%TO.C,C402*%
X122500000Y-46100000D03*
X122500000Y-41100000D03*
%TD*%
D10*
%TO.C,R608*%
X71010000Y-26500000D03*
D11*
X63390000Y-26500000D03*
%TD*%
D10*
%TO.C,R705*%
X71000000Y-30900000D03*
D11*
X63380000Y-30900000D03*
%TD*%
D18*
%TO.C,D202*%
X94933377Y-34491158D03*
D22*
X87313377Y-34491158D03*
%TD*%
D29*
%TO.C,SW101*%
X110235534Y-3235534D03*
X118435534Y-3235534D03*
D30*
X116335534Y-3235534D03*
D31*
X114335534Y-3235534D03*
X112335534Y-3235534D03*
%TD*%
D10*
%TO.C,R503*%
X86833377Y-55391158D03*
D11*
X86833377Y-47771158D03*
%TD*%
D12*
%TO.C,C602*%
X67350000Y-43100000D03*
X69850000Y-43100000D03*
%TD*%
D18*
%TO.C,U201*%
X77083377Y-33691158D03*
D22*
X77083377Y-36231158D03*
X77083377Y-38771158D03*
X77083377Y-41311158D03*
X84703377Y-41311158D03*
X84703377Y-38771158D03*
X84703377Y-36231158D03*
X84703377Y-33691158D03*
%TD*%
D12*
%TO.C,C801*%
X47600000Y-20700000D03*
X42600000Y-20700000D03*
%TD*%
%TO.C,C205*%
X92283377Y-37241158D03*
X87283377Y-37241158D03*
%TD*%
D10*
%TO.C,R319*%
X44900000Y-52300000D03*
D11*
X44900000Y-59920000D03*
%TD*%
D18*
%TO.C,D601*%
X63520000Y-38100000D03*
D22*
X71140000Y-38100000D03*
%TD*%
D10*
%TO.C,R202*%
X47100000Y-52390000D03*
D11*
X47100000Y-60010000D03*
%TD*%
D18*
%TO.C,U3*%
X37900000Y-8200000D03*
D22*
X37900000Y-10740000D03*
X37900000Y-13280000D03*
X37900000Y-15820000D03*
X45520000Y-15820000D03*
X45520000Y-13280000D03*
X45520000Y-10740000D03*
X45520000Y-8200000D03*
%TD*%
D16*
%TO.C,RV701*%
X141900000Y-52885534D03*
X133100000Y-52885534D03*
D17*
X140000000Y-59885534D03*
X137500000Y-59885534D03*
X135000000Y-59885534D03*
%TD*%
D18*
%TO.C,D101*%
X112433377Y-7391158D03*
D22*
X112433377Y-15011158D03*
%TD*%
D10*
%TO.C,R702*%
X152800000Y-43700000D03*
D11*
X160420000Y-43700000D03*
%TD*%
D32*
%TO.C,RV301*%
X12383377Y-32431158D03*
X12383377Y-29891158D03*
X12383377Y-27351158D03*
%TD*%
D16*
%TO.C,RV501*%
X65100000Y-52800000D03*
X73900000Y-52800000D03*
D17*
X72000000Y-59800000D03*
X69500000Y-59800000D03*
X67000000Y-59800000D03*
%TD*%
D10*
%TO.C,R603*%
X50900000Y-26200000D03*
D11*
X43280000Y-26200000D03*
%TD*%
D10*
%TO.C,R306*%
X32900000Y-8800000D03*
D11*
X32900000Y-16420000D03*
%TD*%
D10*
%TO.C,R310*%
X10800000Y-8700000D03*
D11*
X10800000Y-16320000D03*
%TD*%
D10*
%TO.C,R332*%
X28120000Y-20900000D03*
D11*
X20500000Y-20900000D03*
%TD*%
D10*
%TO.C,R316*%
X23400000Y-8700000D03*
D11*
X23400000Y-16320000D03*
%TD*%
D10*
%TO.C,R309*%
X8700000Y-16300000D03*
D11*
X8700000Y-8680000D03*
%TD*%
D16*
%TO.C,RV602*%
X108700000Y-52900000D03*
X117500000Y-52900000D03*
D17*
X115600000Y-59900000D03*
X113100000Y-59900000D03*
X110600000Y-59900000D03*
%TD*%
D23*
%TO.C,SW301*%
X139033377Y-86941158D03*
X147033377Y-86941158D03*
X147033377Y-82441158D03*
X139033377Y-82441158D03*
%TD*%
D10*
%TO.C,R501*%
X77300000Y-46690000D03*
D11*
X77300000Y-54310000D03*
%TD*%
D10*
%TO.C,R318*%
X27600000Y-8700000D03*
D11*
X27600000Y-16320000D03*
%TD*%
D10*
%TO.C,R101*%
X106773377Y-22891158D03*
D11*
X114393377Y-22891158D03*
%TD*%
D16*
%TO.C,RV303*%
X23200000Y-52950000D03*
X32000000Y-52950000D03*
D17*
X30100000Y-59950000D03*
X27600000Y-59950000D03*
X25100000Y-59950000D03*
%TD*%
D18*
%TO.C,D602*%
X71110000Y-35500000D03*
D22*
X63490000Y-35500000D03*
%TD*%
D10*
%TO.C,R609*%
X63400000Y-28700000D03*
D11*
X71020000Y-28700000D03*
%TD*%
D10*
%TO.C,R313*%
X17100000Y-16310000D03*
D11*
X17100000Y-8690000D03*
%TD*%
D32*
%TO.C,RV302*%
X25083377Y-32491158D03*
X25083377Y-29951158D03*
X25083377Y-27411158D03*
%TD*%
D16*
%TO.C,RV201*%
X50500000Y-52850000D03*
X59300000Y-52850000D03*
D17*
X57400000Y-59850000D03*
X54900000Y-59850000D03*
X52400000Y-59850000D03*
%TD*%
D18*
%TO.C,C305*%
X38200000Y-57500000D03*
D12*
X40700000Y-57500000D03*
%TD*%
D10*
%TO.C,R305*%
X48200000Y-7200000D03*
D11*
X48200000Y-14820000D03*
%TD*%
D18*
%TO.C,SW801*%
X35383377Y-32991158D03*
D22*
X37923377Y-32991158D03*
X37923377Y-25371158D03*
X35383377Y-25371158D03*
%TD*%
D10*
%TO.C,R311*%
X12900000Y-16320000D03*
D11*
X12900000Y-8700000D03*
%TD*%
D18*
%TO.C,C306*%
X38500000Y-51400000D03*
D12*
X40500000Y-51400000D03*
%TD*%
D10*
%TO.C,R303*%
X106773377Y-25091158D03*
D11*
X114393377Y-25091158D03*
%TD*%
D10*
%TO.C,R201*%
X80000000Y-26000000D03*
D11*
X87620000Y-26000000D03*
%TD*%
D12*
%TO.C,C101*%
X108383377Y-10191158D03*
X108383377Y-15191158D03*
%TD*%
D10*
%TO.C,R701*%
X152800000Y-45800000D03*
D11*
X160420000Y-45800000D03*
%TD*%
D10*
%TO.C,R607*%
X43200000Y-28400000D03*
D11*
X50820000Y-28400000D03*
%TD*%
M02*
