%TF.GenerationSoftware,KiCad,Pcbnew,(6.0.0-0)*%
%TF.CreationDate,2022-12-08T17:20:48+01:00*%
%TF.ProjectId,drone_o_tron_1_0Rev1,64726f6e-655f-46f5-9f74-726f6e5f315f,rev?*%
%TF.SameCoordinates,Original*%
%TF.FileFunction,Legend,Bot*%
%TF.FilePolarity,Positive*%
%FSLAX46Y46*%
G04 Gerber Fmt 4.6, Leading zero omitted, Abs format (unit mm)*
G04 Created by KiCad (PCBNEW (6.0.0-0)) date 2022-12-08 17:20:48*
%MOMM*%
%LPD*%
G01*
G04 APERTURE LIST*
%ADD10C,0.300000*%
%ADD11C,0.010000*%
G04 APERTURE END LIST*
D10*
X160087857Y-12589729D02*
X160087857Y-11089729D01*
X159730714Y-11089729D01*
X159516428Y-11161158D01*
X159373571Y-11304015D01*
X159302142Y-11446872D01*
X159230714Y-11732586D01*
X159230714Y-11946872D01*
X159302142Y-12232586D01*
X159373571Y-12375443D01*
X159516428Y-12518300D01*
X159730714Y-12589729D01*
X160087857Y-12589729D01*
X158587857Y-12589729D02*
X158587857Y-11589729D01*
X158587857Y-11875443D02*
X158516428Y-11732586D01*
X158445000Y-11661158D01*
X158302142Y-11589729D01*
X158159285Y-11589729D01*
X157445000Y-12589729D02*
X157587857Y-12518300D01*
X157659285Y-12446872D01*
X157730714Y-12304015D01*
X157730714Y-11875443D01*
X157659285Y-11732586D01*
X157587857Y-11661158D01*
X157445000Y-11589729D01*
X157230714Y-11589729D01*
X157087857Y-11661158D01*
X157016428Y-11732586D01*
X156945000Y-11875443D01*
X156945000Y-12304015D01*
X157016428Y-12446872D01*
X157087857Y-12518300D01*
X157230714Y-12589729D01*
X157445000Y-12589729D01*
X156302142Y-11589729D02*
X156302142Y-12589729D01*
X156302142Y-11732586D02*
X156230714Y-11661158D01*
X156087857Y-11589729D01*
X155873571Y-11589729D01*
X155730714Y-11661158D01*
X155659285Y-11804015D01*
X155659285Y-12589729D01*
X154373571Y-12518300D02*
X154516428Y-12589729D01*
X154802142Y-12589729D01*
X154945000Y-12518300D01*
X155016428Y-12375443D01*
X155016428Y-11804015D01*
X154945000Y-11661158D01*
X154802142Y-11589729D01*
X154516428Y-11589729D01*
X154373571Y-11661158D01*
X154302142Y-11804015D01*
X154302142Y-11946872D01*
X155016428Y-12089729D01*
X153659285Y-12018300D02*
X152516428Y-12018300D01*
X151516428Y-11089729D02*
X151230714Y-11089729D01*
X151087857Y-11161158D01*
X150945000Y-11304015D01*
X150873571Y-11589729D01*
X150873571Y-12089729D01*
X150945000Y-12375443D01*
X151087857Y-12518300D01*
X151230714Y-12589729D01*
X151516428Y-12589729D01*
X151659285Y-12518300D01*
X151802142Y-12375443D01*
X151873571Y-12089729D01*
X151873571Y-11589729D01*
X151802142Y-11304015D01*
X151659285Y-11161158D01*
X151516428Y-11089729D01*
X150230714Y-12018300D02*
X149087857Y-12018300D01*
X148587857Y-11089729D02*
X147730714Y-11089729D01*
X148159285Y-12589729D02*
X148159285Y-11089729D01*
X147230714Y-12589729D02*
X147230714Y-11589729D01*
X147230714Y-11875443D02*
X147159285Y-11732586D01*
X147087857Y-11661158D01*
X146945000Y-11589729D01*
X146802142Y-11589729D01*
X146087857Y-12589729D02*
X146230714Y-12518300D01*
X146302142Y-12446872D01*
X146373571Y-12304015D01*
X146373571Y-11875443D01*
X146302142Y-11732586D01*
X146230714Y-11661158D01*
X146087857Y-11589729D01*
X145873571Y-11589729D01*
X145730714Y-11661158D01*
X145659285Y-11732586D01*
X145587857Y-11875443D01*
X145587857Y-12304015D01*
X145659285Y-12446872D01*
X145730714Y-12518300D01*
X145873571Y-12589729D01*
X146087857Y-12589729D01*
X144945000Y-11589729D02*
X144945000Y-12589729D01*
X144945000Y-11732586D02*
X144873571Y-11661158D01*
X144730714Y-11589729D01*
X144516428Y-11589729D01*
X144373571Y-11661158D01*
X144302142Y-11804015D01*
X144302142Y-12589729D01*
X142587857Y-11589729D02*
X142230714Y-12589729D01*
X141873571Y-11589729D01*
X141302142Y-12446872D02*
X141230714Y-12518300D01*
X141302142Y-12589729D01*
X141373571Y-12518300D01*
X141302142Y-12446872D01*
X141302142Y-12589729D01*
X139802142Y-12589729D02*
X140659285Y-12589729D01*
X140230714Y-12589729D02*
X140230714Y-11089729D01*
X140373571Y-11304015D01*
X140516428Y-11446872D01*
X140659285Y-11518300D01*
X139159285Y-12446872D02*
X139087857Y-12518300D01*
X139159285Y-12589729D01*
X139230714Y-12518300D01*
X139159285Y-12446872D01*
X139159285Y-12589729D01*
X138159285Y-11089729D02*
X138016428Y-11089729D01*
X137873571Y-11161158D01*
X137802142Y-11232586D01*
X137730714Y-11375443D01*
X137659285Y-11661158D01*
X137659285Y-12018300D01*
X137730714Y-12304015D01*
X137802142Y-12446872D01*
X137873571Y-12518300D01*
X138016428Y-12589729D01*
X138159285Y-12589729D01*
X138302142Y-12518300D01*
X138373571Y-12446872D01*
X138445000Y-12304015D01*
X138516428Y-12018300D01*
X138516428Y-11661158D01*
X138445000Y-11375443D01*
X138373571Y-11232586D01*
X138302142Y-11161158D01*
X138159285Y-11089729D01*
X136945000Y-12518300D02*
X136945000Y-12589729D01*
X137016428Y-12732586D01*
X137087857Y-12804015D01*
X134302142Y-12589729D02*
X134802142Y-11875443D01*
X135159285Y-12589729D02*
X135159285Y-11089729D01*
X134587857Y-11089729D01*
X134445000Y-11161158D01*
X134373571Y-11232586D01*
X134302142Y-11375443D01*
X134302142Y-11589729D01*
X134373571Y-11732586D01*
X134445000Y-11804015D01*
X134587857Y-11875443D01*
X135159285Y-11875443D01*
X133087857Y-12518300D02*
X133230714Y-12589729D01*
X133516428Y-12589729D01*
X133659285Y-12518300D01*
X133730714Y-12375443D01*
X133730714Y-11804015D01*
X133659285Y-11661158D01*
X133516428Y-11589729D01*
X133230714Y-11589729D01*
X133087857Y-11661158D01*
X133016428Y-11804015D01*
X133016428Y-11946872D01*
X133730714Y-12089729D01*
X132516428Y-11589729D02*
X132159285Y-12589729D01*
X131802142Y-11589729D01*
X129302142Y-12589729D02*
X130159285Y-12589729D01*
X129730714Y-12589729D02*
X129730714Y-11089729D01*
X129873571Y-11304015D01*
X130016428Y-11446872D01*
X130159285Y-11518300D01*
X128587857Y-12518300D02*
X128587857Y-12589729D01*
X128659285Y-12732586D01*
X128730714Y-12804015D01*
X126516428Y-11089729D02*
X126373571Y-11089729D01*
X126230714Y-11161158D01*
X126159285Y-11232586D01*
X126087857Y-11375443D01*
X126016428Y-11661158D01*
X126016428Y-12018300D01*
X126087857Y-12304015D01*
X126159285Y-12446872D01*
X126230714Y-12518300D01*
X126373571Y-12589729D01*
X126516428Y-12589729D01*
X126659285Y-12518300D01*
X126730714Y-12446872D01*
X126802142Y-12304015D01*
X126873571Y-12018300D01*
X126873571Y-11661158D01*
X126802142Y-11375443D01*
X126730714Y-11232586D01*
X126659285Y-11161158D01*
X126516428Y-11089729D01*
X125159285Y-11732586D02*
X125302142Y-11661158D01*
X125373571Y-11589729D01*
X125445000Y-11446872D01*
X125445000Y-11375443D01*
X125373571Y-11232586D01*
X125302142Y-11161158D01*
X125159285Y-11089729D01*
X124873571Y-11089729D01*
X124730714Y-11161158D01*
X124659285Y-11232586D01*
X124587857Y-11375443D01*
X124587857Y-11446872D01*
X124659285Y-11589729D01*
X124730714Y-11661158D01*
X124873571Y-11732586D01*
X125159285Y-11732586D01*
X125302142Y-11804015D01*
X125373571Y-11875443D01*
X125445000Y-12018300D01*
X125445000Y-12304015D01*
X125373571Y-12446872D01*
X125302142Y-12518300D01*
X125159285Y-12589729D01*
X124873571Y-12589729D01*
X124730714Y-12518300D01*
X124659285Y-12446872D01*
X124587857Y-12304015D01*
X124587857Y-12018300D01*
X124659285Y-11875443D01*
X124730714Y-11804015D01*
X124873571Y-11732586D01*
X123945000Y-12446872D02*
X123873571Y-12518300D01*
X123945000Y-12589729D01*
X124016428Y-12518300D01*
X123945000Y-12446872D01*
X123945000Y-12589729D01*
X122087857Y-12589729D02*
X122087857Y-11089729D01*
X121730714Y-11089729D01*
X121516428Y-11161158D01*
X121373571Y-11304015D01*
X121302142Y-11446872D01*
X121230714Y-11732586D01*
X121230714Y-11946872D01*
X121302142Y-12232586D01*
X121373571Y-12375443D01*
X121516428Y-12518300D01*
X121730714Y-12589729D01*
X122087857Y-12589729D01*
X120016428Y-12518300D02*
X120159285Y-12589729D01*
X120445000Y-12589729D01*
X120587857Y-12518300D01*
X120659285Y-12375443D01*
X120659285Y-11804015D01*
X120587857Y-11661158D01*
X120445000Y-11589729D01*
X120159285Y-11589729D01*
X120016428Y-11661158D01*
X119945000Y-11804015D01*
X119945000Y-11946872D01*
X120659285Y-12089729D01*
X119445000Y-11589729D02*
X118659285Y-11589729D01*
X119445000Y-12589729D01*
X118659285Y-12589729D01*
X117516428Y-12518300D02*
X117659285Y-12589729D01*
X117945000Y-12589729D01*
X118087857Y-12518300D01*
X118159285Y-12375443D01*
X118159285Y-11804015D01*
X118087857Y-11661158D01*
X117945000Y-11589729D01*
X117659285Y-11589729D01*
X117516428Y-11661158D01*
X117445000Y-11804015D01*
X117445000Y-11946872D01*
X118159285Y-12089729D01*
X116802142Y-12589729D02*
X116802142Y-11589729D01*
X116802142Y-11732586D02*
X116730714Y-11661158D01*
X116587857Y-11589729D01*
X116373571Y-11589729D01*
X116230714Y-11661158D01*
X116159285Y-11804015D01*
X116159285Y-12589729D01*
X116159285Y-11804015D02*
X116087857Y-11661158D01*
X115945000Y-11589729D01*
X115730714Y-11589729D01*
X115587857Y-11661158D01*
X115516428Y-11804015D01*
X115516428Y-12589729D01*
X114802142Y-12589729D02*
X114802142Y-11089729D01*
X114802142Y-11661158D02*
X114659285Y-11589729D01*
X114373571Y-11589729D01*
X114230714Y-11661158D01*
X114159285Y-11732586D01*
X114087857Y-11875443D01*
X114087857Y-12304015D01*
X114159285Y-12446872D01*
X114230714Y-12518300D01*
X114373571Y-12589729D01*
X114659285Y-12589729D01*
X114802142Y-12518300D01*
X112873571Y-12518300D02*
X113016428Y-12589729D01*
X113302142Y-12589729D01*
X113445000Y-12518300D01*
X113516428Y-12375443D01*
X113516428Y-11804015D01*
X113445000Y-11661158D01*
X113302142Y-11589729D01*
X113016428Y-11589729D01*
X112873571Y-11661158D01*
X112802142Y-11804015D01*
X112802142Y-11946872D01*
X113516428Y-12089729D01*
X112159285Y-12589729D02*
X112159285Y-11589729D01*
X112159285Y-11875443D02*
X112087857Y-11732586D01*
X112016428Y-11661158D01*
X111873571Y-11589729D01*
X111730714Y-11589729D01*
X110159285Y-11232586D02*
X110087857Y-11161158D01*
X109945000Y-11089729D01*
X109587857Y-11089729D01*
X109445000Y-11161158D01*
X109373571Y-11232586D01*
X109302142Y-11375443D01*
X109302142Y-11518300D01*
X109373571Y-11732586D01*
X110230714Y-12589729D01*
X109302142Y-12589729D01*
X108373571Y-11089729D02*
X108230714Y-11089729D01*
X108087857Y-11161158D01*
X108016428Y-11232586D01*
X107945000Y-11375443D01*
X107873571Y-11661158D01*
X107873571Y-12018300D01*
X107945000Y-12304015D01*
X108016428Y-12446872D01*
X108087857Y-12518300D01*
X108230714Y-12589729D01*
X108373571Y-12589729D01*
X108516428Y-12518300D01*
X108587857Y-12446872D01*
X108659285Y-12304015D01*
X108730714Y-12018300D01*
X108730714Y-11661158D01*
X108659285Y-11375443D01*
X108587857Y-11232586D01*
X108516428Y-11161158D01*
X108373571Y-11089729D01*
X107302142Y-11232586D02*
X107230714Y-11161158D01*
X107087857Y-11089729D01*
X106730714Y-11089729D01*
X106587857Y-11161158D01*
X106516428Y-11232586D01*
X106445000Y-11375443D01*
X106445000Y-11518300D01*
X106516428Y-11732586D01*
X107373571Y-12589729D01*
X106445000Y-12589729D01*
X105873571Y-11232586D02*
X105802142Y-11161158D01*
X105659285Y-11089729D01*
X105302142Y-11089729D01*
X105159285Y-11161158D01*
X105087857Y-11232586D01*
X105016428Y-11375443D01*
X105016428Y-11518300D01*
X105087857Y-11732586D01*
X105945000Y-12589729D01*
X105016428Y-12589729D01*
X160087857Y-15004729D02*
X160087857Y-13504729D01*
X159730714Y-13504729D01*
X159516428Y-13576158D01*
X159373571Y-13719015D01*
X159302142Y-13861872D01*
X159230714Y-14147586D01*
X159230714Y-14361872D01*
X159302142Y-14647586D01*
X159373571Y-14790443D01*
X159516428Y-14933300D01*
X159730714Y-15004729D01*
X160087857Y-15004729D01*
X158587857Y-15004729D02*
X158587857Y-14004729D01*
X158587857Y-13504729D02*
X158659285Y-13576158D01*
X158587857Y-13647586D01*
X158516428Y-13576158D01*
X158587857Y-13504729D01*
X158587857Y-13647586D01*
X157873571Y-15004729D02*
X157873571Y-14004729D01*
X157873571Y-14290443D02*
X157802142Y-14147586D01*
X157730714Y-14076158D01*
X157587857Y-14004729D01*
X157445000Y-14004729D01*
X157159285Y-14004729D02*
X156587857Y-14004729D01*
X156945000Y-13504729D02*
X156945000Y-14790443D01*
X156873571Y-14933300D01*
X156730714Y-15004729D01*
X156587857Y-15004729D01*
X156087857Y-15004729D02*
X156087857Y-14004729D01*
X156087857Y-14290443D02*
X156016428Y-14147586D01*
X155945000Y-14076158D01*
X155802142Y-14004729D01*
X155659285Y-14004729D01*
X154516428Y-15004729D02*
X154516428Y-14219015D01*
X154587857Y-14076158D01*
X154730714Y-14004729D01*
X155016428Y-14004729D01*
X155159285Y-14076158D01*
X154516428Y-14933300D02*
X154659285Y-15004729D01*
X155016428Y-15004729D01*
X155159285Y-14933300D01*
X155230714Y-14790443D01*
X155230714Y-14647586D01*
X155159285Y-14504729D01*
X155016428Y-14433300D01*
X154659285Y-14433300D01*
X154516428Y-14361872D01*
X153802142Y-14004729D02*
X153802142Y-15004729D01*
X153802142Y-14147586D02*
X153730714Y-14076158D01*
X153587857Y-14004729D01*
X153373571Y-14004729D01*
X153230714Y-14076158D01*
X153159285Y-14219015D01*
X153159285Y-15004729D01*
X151802142Y-15004729D02*
X151802142Y-13504729D01*
X151802142Y-14933300D02*
X151945000Y-15004729D01*
X152230714Y-15004729D01*
X152373571Y-14933300D01*
X152445000Y-14861872D01*
X152516428Y-14719015D01*
X152516428Y-14290443D01*
X152445000Y-14147586D01*
X152373571Y-14076158D01*
X152230714Y-14004729D01*
X151945000Y-14004729D01*
X151802142Y-14076158D01*
X149945000Y-15004729D02*
X149945000Y-13504729D01*
X149373571Y-13504729D01*
X149230714Y-13576158D01*
X149159285Y-13647586D01*
X149087857Y-13790443D01*
X149087857Y-14004729D01*
X149159285Y-14147586D01*
X149230714Y-14219015D01*
X149373571Y-14290443D01*
X149945000Y-14290443D01*
X147802142Y-15004729D02*
X147802142Y-14219015D01*
X147873571Y-14076158D01*
X148016428Y-14004729D01*
X148302142Y-14004729D01*
X148445000Y-14076158D01*
X147802142Y-14933300D02*
X147945000Y-15004729D01*
X148302142Y-15004729D01*
X148445000Y-14933300D01*
X148516428Y-14790443D01*
X148516428Y-14647586D01*
X148445000Y-14504729D01*
X148302142Y-14433300D01*
X147945000Y-14433300D01*
X147802142Y-14361872D01*
X146445000Y-14004729D02*
X146445000Y-15004729D01*
X147087857Y-14004729D02*
X147087857Y-14790443D01*
X147016428Y-14933300D01*
X146873571Y-15004729D01*
X146659285Y-15004729D01*
X146516428Y-14933300D01*
X146445000Y-14861872D01*
X145516428Y-15004729D02*
X145659285Y-14933300D01*
X145730714Y-14790443D01*
X145730714Y-13504729D01*
X142945000Y-15004729D02*
X143445000Y-14290443D01*
X143802142Y-15004729D02*
X143802142Y-13504729D01*
X143230714Y-13504729D01*
X143087857Y-13576158D01*
X143016428Y-13647586D01*
X142945000Y-13790443D01*
X142945000Y-14004729D01*
X143016428Y-14147586D01*
X143087857Y-14219015D01*
X143230714Y-14290443D01*
X143802142Y-14290443D01*
X141659285Y-15004729D02*
X141659285Y-14219015D01*
X141730714Y-14076158D01*
X141873571Y-14004729D01*
X142159285Y-14004729D01*
X142302142Y-14076158D01*
X141659285Y-14933300D02*
X141802142Y-15004729D01*
X142159285Y-15004729D01*
X142302142Y-14933300D01*
X142373571Y-14790443D01*
X142373571Y-14647586D01*
X142302142Y-14504729D01*
X142159285Y-14433300D01*
X141802142Y-14433300D01*
X141659285Y-14361872D01*
X140945000Y-14004729D02*
X140945000Y-15004729D01*
X140945000Y-14147586D02*
X140873571Y-14076158D01*
X140730714Y-14004729D01*
X140516428Y-14004729D01*
X140373571Y-14076158D01*
X140302142Y-14219015D01*
X140302142Y-15004729D01*
X139730714Y-14004729D02*
X138945000Y-14004729D01*
X139730714Y-15004729D01*
X138945000Y-15004729D01*
X159159285Y-16705443D02*
X159230714Y-16634015D01*
X159373571Y-16562586D01*
X159516428Y-16562586D01*
X159659285Y-16634015D01*
X159730714Y-16705443D01*
X159802142Y-16848300D01*
X159802142Y-16991158D01*
X159730714Y-17134015D01*
X159659285Y-17205443D01*
X159516428Y-17276872D01*
X159373571Y-17276872D01*
X159230714Y-17205443D01*
X159159285Y-17134015D01*
X159159285Y-16562586D02*
X159159285Y-17134015D01*
X159087857Y-17205443D01*
X159016428Y-17205443D01*
X158873571Y-17134015D01*
X158802142Y-16991158D01*
X158802142Y-16634015D01*
X158945000Y-16419729D01*
X159159285Y-16276872D01*
X159445000Y-16205443D01*
X159730714Y-16276872D01*
X159945000Y-16419729D01*
X160087857Y-16634015D01*
X160159285Y-16919729D01*
X160087857Y-17205443D01*
X159945000Y-17419729D01*
X159730714Y-17562586D01*
X159445000Y-17634015D01*
X159159285Y-17562586D01*
X158945000Y-17419729D01*
X158159285Y-17419729D02*
X158159285Y-15919729D01*
X157516428Y-17419729D02*
X157516428Y-16634015D01*
X157587857Y-16491158D01*
X157730714Y-16419729D01*
X157945000Y-16419729D01*
X158087857Y-16491158D01*
X158159285Y-16562586D01*
X156230714Y-17348300D02*
X156373571Y-17419729D01*
X156659285Y-17419729D01*
X156802142Y-17348300D01*
X156873571Y-17205443D01*
X156873571Y-16634015D01*
X156802142Y-16491158D01*
X156659285Y-16419729D01*
X156373571Y-16419729D01*
X156230714Y-16491158D01*
X156159285Y-16634015D01*
X156159285Y-16776872D01*
X156873571Y-16919729D01*
X155516428Y-17419729D02*
X155516428Y-16419729D01*
X155516428Y-15919729D02*
X155587857Y-15991158D01*
X155516428Y-16062586D01*
X155445000Y-15991158D01*
X155516428Y-15919729D01*
X155516428Y-16062586D01*
X154873571Y-17348300D02*
X154730714Y-17419729D01*
X154445000Y-17419729D01*
X154302142Y-17348300D01*
X154230714Y-17205443D01*
X154230714Y-17134015D01*
X154302142Y-16991158D01*
X154445000Y-16919729D01*
X154659285Y-16919729D01*
X154802142Y-16848300D01*
X154873571Y-16705443D01*
X154873571Y-16634015D01*
X154802142Y-16491158D01*
X154659285Y-16419729D01*
X154445000Y-16419729D01*
X154302142Y-16491158D01*
X153659285Y-17348300D02*
X153516428Y-17419729D01*
X153230714Y-17419729D01*
X153087857Y-17348300D01*
X153016428Y-17205443D01*
X153016428Y-17134015D01*
X153087857Y-16991158D01*
X153230714Y-16919729D01*
X153445000Y-16919729D01*
X153587857Y-16848300D01*
X153659285Y-16705443D01*
X153659285Y-16634015D01*
X153587857Y-16491158D01*
X153445000Y-16419729D01*
X153230714Y-16419729D01*
X153087857Y-16491158D01*
X152373571Y-17419729D02*
X152373571Y-15919729D01*
X152230714Y-16848300D02*
X151802142Y-17419729D01*
X151802142Y-16419729D02*
X152373571Y-16991158D01*
X150945000Y-17419729D02*
X151087857Y-17348300D01*
X151159285Y-17205443D01*
X151159285Y-15919729D01*
X149802142Y-17348300D02*
X149945000Y-17419729D01*
X150230714Y-17419729D01*
X150373571Y-17348300D01*
X150445000Y-17205443D01*
X150445000Y-16634015D01*
X150373571Y-16491158D01*
X150230714Y-16419729D01*
X149945000Y-16419729D01*
X149802142Y-16491158D01*
X149730714Y-16634015D01*
X149730714Y-16776872D01*
X150445000Y-16919729D01*
X149087857Y-17419729D02*
X149087857Y-15919729D01*
X149087857Y-16491158D02*
X148945000Y-16419729D01*
X148659285Y-16419729D01*
X148516428Y-16491158D01*
X148445000Y-16562586D01*
X148373571Y-16705443D01*
X148373571Y-17134015D01*
X148445000Y-17276872D01*
X148516428Y-17348300D01*
X148659285Y-17419729D01*
X148945000Y-17419729D01*
X149087857Y-17348300D01*
X147159285Y-17348300D02*
X147302142Y-17419729D01*
X147587857Y-17419729D01*
X147730714Y-17348300D01*
X147802142Y-17205443D01*
X147802142Y-16634015D01*
X147730714Y-16491158D01*
X147587857Y-16419729D01*
X147302142Y-16419729D01*
X147159285Y-16491158D01*
X147087857Y-16634015D01*
X147087857Y-16776872D01*
X147802142Y-16919729D01*
X146445000Y-16419729D02*
X146445000Y-17919729D01*
X146445000Y-16491158D02*
X146302142Y-16419729D01*
X146016428Y-16419729D01*
X145873571Y-16491158D01*
X145802142Y-16562586D01*
X145730714Y-16705443D01*
X145730714Y-17134015D01*
X145802142Y-17276872D01*
X145873571Y-17348300D01*
X146016428Y-17419729D01*
X146302142Y-17419729D01*
X146445000Y-17348300D01*
X144445000Y-17419729D02*
X144445000Y-16634015D01*
X144516428Y-16491158D01*
X144659285Y-16419729D01*
X144945000Y-16419729D01*
X145087857Y-16491158D01*
X144445000Y-17348300D02*
X144587857Y-17419729D01*
X144945000Y-17419729D01*
X145087857Y-17348300D01*
X145159285Y-17205443D01*
X145159285Y-17062586D01*
X145087857Y-16919729D01*
X144945000Y-16848300D01*
X144587857Y-16848300D01*
X144445000Y-16776872D01*
X143730714Y-16419729D02*
X143730714Y-17419729D01*
X143730714Y-16562586D02*
X143659285Y-16491158D01*
X143516428Y-16419729D01*
X143302142Y-16419729D01*
X143159285Y-16491158D01*
X143087857Y-16634015D01*
X143087857Y-17419729D01*
X142516428Y-16419729D02*
X141730714Y-16419729D01*
X142516428Y-17419729D01*
X141730714Y-17419729D01*
X140587857Y-17348300D02*
X140730714Y-17419729D01*
X141016428Y-17419729D01*
X141159285Y-17348300D01*
X141230714Y-17205443D01*
X141230714Y-16634015D01*
X141159285Y-16491158D01*
X141016428Y-16419729D01*
X140730714Y-16419729D01*
X140587857Y-16491158D01*
X140516428Y-16634015D01*
X140516428Y-16776872D01*
X141230714Y-16919729D01*
X139873571Y-17419729D02*
X139873571Y-16419729D01*
X139873571Y-16705443D02*
X139802142Y-16562586D01*
X139730714Y-16491158D01*
X139587857Y-16419729D01*
X139445000Y-16419729D01*
X136730714Y-15848300D02*
X138016428Y-17776872D01*
X135087857Y-17419729D02*
X135087857Y-15919729D01*
X134445000Y-17419729D02*
X134445000Y-16634015D01*
X134516428Y-16491158D01*
X134659285Y-16419729D01*
X134873571Y-16419729D01*
X135016428Y-16491158D01*
X135087857Y-16562586D01*
X133159285Y-17348300D02*
X133302142Y-17419729D01*
X133587857Y-17419729D01*
X133730714Y-17348300D01*
X133802142Y-17205443D01*
X133802142Y-16634015D01*
X133730714Y-16491158D01*
X133587857Y-16419729D01*
X133302142Y-16419729D01*
X133159285Y-16491158D01*
X133087857Y-16634015D01*
X133087857Y-16776872D01*
X133802142Y-16919729D01*
X132445000Y-17419729D02*
X132445000Y-16419729D01*
X132445000Y-15919729D02*
X132516428Y-15991158D01*
X132445000Y-16062586D01*
X132373571Y-15991158D01*
X132445000Y-15919729D01*
X132445000Y-16062586D01*
X131802142Y-17348300D02*
X131659285Y-17419729D01*
X131373571Y-17419729D01*
X131230714Y-17348300D01*
X131159285Y-17205443D01*
X131159285Y-17134015D01*
X131230714Y-16991158D01*
X131373571Y-16919729D01*
X131587857Y-16919729D01*
X131730714Y-16848300D01*
X131802142Y-16705443D01*
X131802142Y-16634015D01*
X131730714Y-16491158D01*
X131587857Y-16419729D01*
X131373571Y-16419729D01*
X131230714Y-16491158D01*
X130587857Y-17348300D02*
X130445000Y-17419729D01*
X130159285Y-17419729D01*
X130016428Y-17348300D01*
X129945000Y-17205443D01*
X129945000Y-17134015D01*
X130016428Y-16991158D01*
X130159285Y-16919729D01*
X130373571Y-16919729D01*
X130516428Y-16848300D01*
X130587857Y-16705443D01*
X130587857Y-16634015D01*
X130516428Y-16491158D01*
X130373571Y-16419729D01*
X130159285Y-16419729D01*
X130016428Y-16491158D01*
X129302142Y-17419729D02*
X129302142Y-15919729D01*
X129159285Y-16848300D02*
X128730714Y-17419729D01*
X128730714Y-16419729D02*
X129302142Y-16991158D01*
X127873571Y-17419729D02*
X128016428Y-17348300D01*
X128087857Y-17205443D01*
X128087857Y-15919729D01*
X126730714Y-17348300D02*
X126873571Y-17419729D01*
X127159285Y-17419729D01*
X127302142Y-17348300D01*
X127373571Y-17205443D01*
X127373571Y-16634015D01*
X127302142Y-16491158D01*
X127159285Y-16419729D01*
X126873571Y-16419729D01*
X126730714Y-16491158D01*
X126659285Y-16634015D01*
X126659285Y-16776872D01*
X127373571Y-16919729D01*
X126016428Y-17419729D02*
X126016428Y-15919729D01*
X126016428Y-16491158D02*
X125873571Y-16419729D01*
X125587857Y-16419729D01*
X125445000Y-16491158D01*
X125373571Y-16562586D01*
X125302142Y-16705443D01*
X125302142Y-17134015D01*
X125373571Y-17276872D01*
X125445000Y-17348300D01*
X125587857Y-17419729D01*
X125873571Y-17419729D01*
X126016428Y-17348300D01*
X124087857Y-17348300D02*
X124230714Y-17419729D01*
X124516428Y-17419729D01*
X124659285Y-17348300D01*
X124730714Y-17205443D01*
X124730714Y-16634015D01*
X124659285Y-16491158D01*
X124516428Y-16419729D01*
X124230714Y-16419729D01*
X124087857Y-16491158D01*
X124016428Y-16634015D01*
X124016428Y-16776872D01*
X124730714Y-16919729D01*
X123373571Y-16419729D02*
X123373571Y-17919729D01*
X123373571Y-16491158D02*
X123230714Y-16419729D01*
X122945000Y-16419729D01*
X122802142Y-16491158D01*
X122730714Y-16562586D01*
X122659285Y-16705443D01*
X122659285Y-17134015D01*
X122730714Y-17276872D01*
X122802142Y-17348300D01*
X122945000Y-17419729D01*
X123230714Y-17419729D01*
X123373571Y-17348300D01*
X121373571Y-17419729D02*
X121373571Y-16634015D01*
X121445000Y-16491158D01*
X121587857Y-16419729D01*
X121873571Y-16419729D01*
X122016428Y-16491158D01*
X121373571Y-17348300D02*
X121516428Y-17419729D01*
X121873571Y-17419729D01*
X122016428Y-17348300D01*
X122087857Y-17205443D01*
X122087857Y-17062586D01*
X122016428Y-16919729D01*
X121873571Y-16848300D01*
X121516428Y-16848300D01*
X121373571Y-16776872D01*
X120659285Y-16419729D02*
X120659285Y-17419729D01*
X120659285Y-16562586D02*
X120587857Y-16491158D01*
X120445000Y-16419729D01*
X120230714Y-16419729D01*
X120087857Y-16491158D01*
X120016428Y-16634015D01*
X120016428Y-17419729D01*
X119445000Y-16419729D02*
X118659285Y-16419729D01*
X119445000Y-17419729D01*
X118659285Y-17419729D01*
X117516428Y-17348300D02*
X117659285Y-17419729D01*
X117945000Y-17419729D01*
X118087857Y-17348300D01*
X118159285Y-17205443D01*
X118159285Y-16634015D01*
X118087857Y-16491158D01*
X117945000Y-16419729D01*
X117659285Y-16419729D01*
X117516428Y-16491158D01*
X117445000Y-16634015D01*
X117445000Y-16776872D01*
X118159285Y-16919729D01*
X116802142Y-17419729D02*
X116802142Y-16419729D01*
X116802142Y-16705443D02*
X116730714Y-16562586D01*
X116659285Y-16491158D01*
X116516428Y-16419729D01*
X116373571Y-16419729D01*
X115873571Y-17276872D02*
X115802142Y-17348300D01*
X115873571Y-17419729D01*
X115945000Y-17348300D01*
X115873571Y-17276872D01*
X115873571Y-17419729D01*
X114516428Y-17419729D02*
X114516428Y-15919729D01*
X114516428Y-17348300D02*
X114659285Y-17419729D01*
X114945000Y-17419729D01*
X115087857Y-17348300D01*
X115159285Y-17276872D01*
X115230714Y-17134015D01*
X115230714Y-16705443D01*
X115159285Y-16562586D01*
X115087857Y-16491158D01*
X114945000Y-16419729D01*
X114659285Y-16419729D01*
X114516428Y-16491158D01*
X113230714Y-17348300D02*
X113373571Y-17419729D01*
X113659285Y-17419729D01*
X113802142Y-17348300D01*
X113873571Y-17205443D01*
X113873571Y-16634015D01*
X113802142Y-16491158D01*
X113659285Y-16419729D01*
X113373571Y-16419729D01*
X113230714Y-16491158D01*
X113159285Y-16634015D01*
X113159285Y-16776872D01*
X113873571Y-16919729D01*
X110302142Y-15848300D02*
X111587857Y-17776872D01*
X108445000Y-17419729D02*
X108587857Y-17348300D01*
X108659285Y-17276872D01*
X108730714Y-17134015D01*
X108730714Y-16705443D01*
X108659285Y-16562586D01*
X108587857Y-16491158D01*
X108445000Y-16419729D01*
X108230714Y-16419729D01*
X108087857Y-16491158D01*
X108016428Y-16562586D01*
X107945000Y-16705443D01*
X107945000Y-17134015D01*
X108016428Y-17276872D01*
X108087857Y-17348300D01*
X108230714Y-17419729D01*
X108445000Y-17419729D01*
X107302142Y-16419729D02*
X107302142Y-17919729D01*
X107302142Y-16491158D02*
X107159285Y-16419729D01*
X106873571Y-16419729D01*
X106730714Y-16491158D01*
X106659285Y-16562586D01*
X106587857Y-16705443D01*
X106587857Y-17134015D01*
X106659285Y-17276872D01*
X106730714Y-17348300D01*
X106873571Y-17419729D01*
X107159285Y-17419729D01*
X107302142Y-17348300D01*
X105373571Y-17348300D02*
X105516428Y-17419729D01*
X105802142Y-17419729D01*
X105945000Y-17348300D01*
X106016428Y-17205443D01*
X106016428Y-16634015D01*
X105945000Y-16491158D01*
X105802142Y-16419729D01*
X105516428Y-16419729D01*
X105373571Y-16491158D01*
X105302142Y-16634015D01*
X105302142Y-16776872D01*
X106016428Y-16919729D01*
X104659285Y-16419729D02*
X104659285Y-17419729D01*
X104659285Y-16562586D02*
X104587857Y-16491158D01*
X104445000Y-16419729D01*
X104230714Y-16419729D01*
X104087857Y-16491158D01*
X104016428Y-16634015D01*
X104016428Y-17419729D01*
X103373571Y-17348300D02*
X103230714Y-17419729D01*
X102945000Y-17419729D01*
X102802142Y-17348300D01*
X102730714Y-17205443D01*
X102730714Y-17134015D01*
X102802142Y-16991158D01*
X102945000Y-16919729D01*
X103159285Y-16919729D01*
X103302142Y-16848300D01*
X103373571Y-16705443D01*
X103373571Y-16634015D01*
X103302142Y-16491158D01*
X103159285Y-16419729D01*
X102945000Y-16419729D01*
X102802142Y-16491158D01*
X102230714Y-16419729D02*
X101873571Y-17419729D01*
X101516428Y-16419729D02*
X101873571Y-17419729D01*
X102016428Y-17776872D01*
X102087857Y-17848300D01*
X102230714Y-17919729D01*
X100945000Y-16419729D02*
X100945000Y-17419729D01*
X100945000Y-16562586D02*
X100873571Y-16491158D01*
X100730714Y-16419729D01*
X100516428Y-16419729D01*
X100373571Y-16491158D01*
X100302142Y-16634015D01*
X100302142Y-17419729D01*
X99802142Y-16419729D02*
X99230714Y-16419729D01*
X99587857Y-15919729D02*
X99587857Y-17205443D01*
X99516428Y-17348300D01*
X99373571Y-17419729D01*
X99230714Y-17419729D01*
X98730714Y-17419729D02*
X98730714Y-15919729D01*
X98087857Y-17419729D02*
X98087857Y-16634015D01*
X98159285Y-16491158D01*
X98302142Y-16419729D01*
X98516428Y-16419729D01*
X98659285Y-16491158D01*
X98730714Y-16562586D01*
X96802142Y-17348300D02*
X96945000Y-17419729D01*
X97230714Y-17419729D01*
X97373571Y-17348300D01*
X97445000Y-17205443D01*
X97445000Y-16634015D01*
X97373571Y-16491158D01*
X97230714Y-16419729D01*
X96945000Y-16419729D01*
X96802142Y-16491158D01*
X96730714Y-16634015D01*
X96730714Y-16776872D01*
X97445000Y-16919729D01*
X96159285Y-17348300D02*
X96016428Y-17419729D01*
X95730714Y-17419729D01*
X95587857Y-17348300D01*
X95516428Y-17205443D01*
X95516428Y-17134015D01*
X95587857Y-16991158D01*
X95730714Y-16919729D01*
X95945000Y-16919729D01*
X96087857Y-16848300D01*
X96159285Y-16705443D01*
X96159285Y-16634015D01*
X96087857Y-16491158D01*
X95945000Y-16419729D01*
X95730714Y-16419729D01*
X95587857Y-16491158D01*
X94873571Y-17419729D02*
X94873571Y-16419729D01*
X94873571Y-15919729D02*
X94945000Y-15991158D01*
X94873571Y-16062586D01*
X94802142Y-15991158D01*
X94873571Y-15919729D01*
X94873571Y-16062586D01*
X94302142Y-16419729D02*
X93516428Y-16419729D01*
X94302142Y-17419729D01*
X93516428Y-17419729D01*
X92373571Y-17348300D02*
X92516428Y-17419729D01*
X92802142Y-17419729D01*
X92945000Y-17348300D01*
X93016428Y-17205443D01*
X93016428Y-16634015D01*
X92945000Y-16491158D01*
X92802142Y-16419729D01*
X92516428Y-16419729D01*
X92373571Y-16491158D01*
X92302142Y-16634015D01*
X92302142Y-16776872D01*
X93016428Y-16919729D01*
X91659285Y-17419729D02*
X91659285Y-16419729D01*
X91659285Y-16705443D02*
X91587857Y-16562586D01*
X91516428Y-16491158D01*
X91373571Y-16419729D01*
X91230714Y-16419729D01*
X90730714Y-17276872D02*
X90659285Y-17348300D01*
X90730714Y-17419729D01*
X90802142Y-17348300D01*
X90730714Y-17276872D01*
X90730714Y-17419729D01*
X89373571Y-17419729D02*
X89373571Y-15919729D01*
X89373571Y-17348300D02*
X89516428Y-17419729D01*
X89802142Y-17419729D01*
X89945000Y-17348300D01*
X90016428Y-17276872D01*
X90087857Y-17134015D01*
X90087857Y-16705443D01*
X90016428Y-16562586D01*
X89945000Y-16491158D01*
X89802142Y-16419729D01*
X89516428Y-16419729D01*
X89373571Y-16491158D01*
X88087857Y-17348300D02*
X88230714Y-17419729D01*
X88516428Y-17419729D01*
X88659285Y-17348300D01*
X88730714Y-17205443D01*
X88730714Y-16634015D01*
X88659285Y-16491158D01*
X88516428Y-16419729D01*
X88230714Y-16419729D01*
X88087857Y-16491158D01*
X88016428Y-16634015D01*
X88016428Y-16776872D01*
X88730714Y-16919729D01*
X158873571Y-18691872D02*
X159016428Y-18620443D01*
X159302142Y-18620443D01*
X159445000Y-18691872D01*
X159587857Y-18834729D01*
X159659285Y-18977586D01*
X159659285Y-19263300D01*
X159587857Y-19406158D01*
X159445000Y-19549015D01*
X159302142Y-19620443D01*
X159016428Y-19620443D01*
X158873571Y-19549015D01*
X159159285Y-18120443D02*
X159516428Y-18191872D01*
X159873571Y-18406158D01*
X160087857Y-18763300D01*
X160159285Y-19120443D01*
X160087857Y-19477586D01*
X159873571Y-19834729D01*
X159516428Y-20049015D01*
X159159285Y-20120443D01*
X158802142Y-20049015D01*
X158445000Y-19834729D01*
X158230714Y-19477586D01*
X158159285Y-19120443D01*
X158230714Y-18763300D01*
X158445000Y-18406158D01*
X158802142Y-18191872D01*
X159159285Y-18120443D01*
X157516428Y-19834729D02*
X157516428Y-18334729D01*
X156659285Y-19834729D02*
X157302142Y-18977586D01*
X156659285Y-18334729D02*
X157516428Y-19191872D01*
X155802142Y-19834729D02*
X155945000Y-19763300D01*
X156016428Y-19691872D01*
X156087857Y-19549015D01*
X156087857Y-19120443D01*
X156016428Y-18977586D01*
X155945000Y-18906158D01*
X155802142Y-18834729D01*
X155587857Y-18834729D01*
X155445000Y-18906158D01*
X155373571Y-18977586D01*
X155302142Y-19120443D01*
X155302142Y-19549015D01*
X155373571Y-19691872D01*
X155445000Y-19763300D01*
X155587857Y-19834729D01*
X155802142Y-19834729D01*
X154659285Y-18834729D02*
X154659285Y-19834729D01*
X154659285Y-18977586D02*
X154587857Y-18906158D01*
X154445000Y-18834729D01*
X154230714Y-18834729D01*
X154087857Y-18906158D01*
X154016428Y-19049015D01*
X154016428Y-19834729D01*
X153302142Y-19834729D02*
X153302142Y-18834729D01*
X153302142Y-19120443D02*
X153230714Y-18977586D01*
X153159285Y-18906158D01*
X153016428Y-18834729D01*
X152873571Y-18834729D01*
X151730714Y-19834729D02*
X151730714Y-19049015D01*
X151802142Y-18906158D01*
X151945000Y-18834729D01*
X152230714Y-18834729D01*
X152373571Y-18906158D01*
X151730714Y-19763300D02*
X151873571Y-19834729D01*
X152230714Y-19834729D01*
X152373571Y-19763300D01*
X152445000Y-19620443D01*
X152445000Y-19477586D01*
X152373571Y-19334729D01*
X152230714Y-19263300D01*
X151873571Y-19263300D01*
X151730714Y-19191872D01*
X150373571Y-19834729D02*
X150373571Y-18334729D01*
X150373571Y-19763300D02*
X150516428Y-19834729D01*
X150802142Y-19834729D01*
X150945000Y-19763300D01*
X151016428Y-19691872D01*
X151087857Y-19549015D01*
X151087857Y-19120443D01*
X151016428Y-18977586D01*
X150945000Y-18906158D01*
X150802142Y-18834729D01*
X150516428Y-18834729D01*
X150373571Y-18906158D01*
X148516428Y-19834729D02*
X148516428Y-18334729D01*
X148159285Y-18334729D01*
X147945000Y-18406158D01*
X147802142Y-18549015D01*
X147730714Y-18691872D01*
X147659285Y-18977586D01*
X147659285Y-19191872D01*
X147730714Y-19477586D01*
X147802142Y-19620443D01*
X147945000Y-19763300D01*
X148159285Y-19834729D01*
X148516428Y-19834729D01*
X147016428Y-19834729D02*
X147016428Y-18834729D01*
X147016428Y-18334729D02*
X147087857Y-18406158D01*
X147016428Y-18477586D01*
X146945000Y-18406158D01*
X147016428Y-18334729D01*
X147016428Y-18477586D01*
X146302142Y-19834729D02*
X146302142Y-18834729D01*
X146302142Y-19120443D02*
X146230714Y-18977586D01*
X146159285Y-18906158D01*
X146016428Y-18834729D01*
X145873571Y-18834729D01*
X145373571Y-19834729D02*
X145373571Y-18334729D01*
X145230714Y-19263300D02*
X144802142Y-19834729D01*
X144802142Y-18834729D02*
X145373571Y-19406158D01*
X143016428Y-19834729D02*
X143016428Y-18334729D01*
X142445000Y-18334729D01*
X142302142Y-18406158D01*
X142230714Y-18477586D01*
X142159285Y-18620443D01*
X142159285Y-18834729D01*
X142230714Y-18977586D01*
X142302142Y-19049015D01*
X142445000Y-19120443D01*
X143016428Y-19120443D01*
X140873571Y-19834729D02*
X140873571Y-19049015D01*
X140945000Y-18906158D01*
X141087857Y-18834729D01*
X141373571Y-18834729D01*
X141516428Y-18906158D01*
X140873571Y-19763300D02*
X141016428Y-19834729D01*
X141373571Y-19834729D01*
X141516428Y-19763300D01*
X141587857Y-19620443D01*
X141587857Y-19477586D01*
X141516428Y-19334729D01*
X141373571Y-19263300D01*
X141016428Y-19263300D01*
X140873571Y-19191872D01*
X139516428Y-18834729D02*
X139516428Y-19834729D01*
X140159285Y-18834729D02*
X140159285Y-19620443D01*
X140087857Y-19763300D01*
X139945000Y-19834729D01*
X139730714Y-19834729D01*
X139587857Y-19763300D01*
X139516428Y-19691872D01*
X138587857Y-19834729D02*
X138730714Y-19763300D01*
X138802142Y-19620443D01*
X138802142Y-18334729D01*
X136873571Y-19834729D02*
X136873571Y-18334729D01*
X136302142Y-18334729D01*
X136159285Y-18406158D01*
X136087857Y-18477586D01*
X136016428Y-18620443D01*
X136016428Y-18834729D01*
X136087857Y-18977586D01*
X136159285Y-19049015D01*
X136302142Y-19120443D01*
X136873571Y-19120443D01*
X134730714Y-19834729D02*
X134730714Y-19049015D01*
X134802142Y-18906158D01*
X134945000Y-18834729D01*
X135230714Y-18834729D01*
X135373571Y-18906158D01*
X134730714Y-19763300D02*
X134873571Y-19834729D01*
X135230714Y-19834729D01*
X135373571Y-19763300D01*
X135445000Y-19620443D01*
X135445000Y-19477586D01*
X135373571Y-19334729D01*
X135230714Y-19263300D01*
X134873571Y-19263300D01*
X134730714Y-19191872D01*
X134016428Y-18834729D02*
X134016428Y-19834729D01*
X134016428Y-18977586D02*
X133945000Y-18906158D01*
X133802142Y-18834729D01*
X133587857Y-18834729D01*
X133445000Y-18906158D01*
X133373571Y-19049015D01*
X133373571Y-19834729D01*
X132802142Y-18834729D02*
X132016428Y-18834729D01*
X132802142Y-19834729D01*
X132016428Y-19834729D01*
X130873571Y-19763300D02*
X131016428Y-19834729D01*
X131302142Y-19834729D01*
X131445000Y-19763300D01*
X131516428Y-19620443D01*
X131516428Y-19049015D01*
X131445000Y-18906158D01*
X131302142Y-18834729D01*
X131016428Y-18834729D01*
X130873571Y-18906158D01*
X130802142Y-19049015D01*
X130802142Y-19191872D01*
X131516428Y-19334729D01*
X130159285Y-19834729D02*
X130159285Y-18834729D01*
X130159285Y-19120443D02*
X130087857Y-18977586D01*
X130016428Y-18906158D01*
X129873571Y-18834729D01*
X129730714Y-18834729D01*
X129159285Y-19763300D02*
X129159285Y-19834729D01*
X129230714Y-19977586D01*
X129302142Y-20049015D01*
X126587857Y-19834729D02*
X127445000Y-19834729D01*
X127016428Y-19834729D02*
X127016428Y-18334729D01*
X127159285Y-18549015D01*
X127302142Y-18691872D01*
X127445000Y-18763300D01*
X125159285Y-19834729D02*
X126016428Y-19834729D01*
X125587857Y-19834729D02*
X125587857Y-18334729D01*
X125730714Y-18549015D01*
X125873571Y-18691872D01*
X126016428Y-18763300D01*
X124516428Y-19691872D02*
X124445000Y-19763300D01*
X124516428Y-19834729D01*
X124587857Y-19763300D01*
X124516428Y-19691872D01*
X124516428Y-19834729D01*
X123873571Y-18477586D02*
X123802142Y-18406158D01*
X123659285Y-18334729D01*
X123302142Y-18334729D01*
X123159285Y-18406158D01*
X123087857Y-18477586D01*
X123016428Y-18620443D01*
X123016428Y-18763300D01*
X123087857Y-18977586D01*
X123945000Y-19834729D01*
X123016428Y-19834729D01*
X122087857Y-18334729D02*
X121945000Y-18334729D01*
X121802142Y-18406158D01*
X121730714Y-18477586D01*
X121659285Y-18620443D01*
X121587857Y-18906158D01*
X121587857Y-19263300D01*
X121659285Y-19549015D01*
X121730714Y-19691872D01*
X121802142Y-19763300D01*
X121945000Y-19834729D01*
X122087857Y-19834729D01*
X122230714Y-19763300D01*
X122302142Y-19691872D01*
X122373571Y-19549015D01*
X122445000Y-19263300D01*
X122445000Y-18906158D01*
X122373571Y-18620443D01*
X122302142Y-18477586D01*
X122230714Y-18406158D01*
X122087857Y-18334729D01*
X121016428Y-18477586D02*
X120945000Y-18406158D01*
X120802142Y-18334729D01*
X120445000Y-18334729D01*
X120302142Y-18406158D01*
X120230714Y-18477586D01*
X120159285Y-18620443D01*
X120159285Y-18763300D01*
X120230714Y-18977586D01*
X121087857Y-19834729D01*
X120159285Y-19834729D01*
X119587857Y-18477586D02*
X119516428Y-18406158D01*
X119373571Y-18334729D01*
X119016428Y-18334729D01*
X118873571Y-18406158D01*
X118802142Y-18477586D01*
X118730714Y-18620443D01*
X118730714Y-18763300D01*
X118802142Y-18977586D01*
X119659285Y-19834729D01*
X118730714Y-19834729D01*
X159873571Y-22249729D02*
X160016428Y-22178300D01*
X160087857Y-22035443D01*
X160087857Y-20749729D01*
X159302142Y-22249729D02*
X159302142Y-21249729D01*
X159302142Y-20749729D02*
X159373571Y-20821158D01*
X159302142Y-20892586D01*
X159230714Y-20821158D01*
X159302142Y-20749729D01*
X159302142Y-20892586D01*
X158730714Y-21249729D02*
X157945000Y-21249729D01*
X158730714Y-22249729D01*
X157945000Y-22249729D01*
X156802142Y-22178300D02*
X156945000Y-22249729D01*
X157230714Y-22249729D01*
X157373571Y-22178300D01*
X157445000Y-22035443D01*
X157445000Y-21464015D01*
X157373571Y-21321158D01*
X157230714Y-21249729D01*
X156945000Y-21249729D01*
X156802142Y-21321158D01*
X156730714Y-21464015D01*
X156730714Y-21606872D01*
X157445000Y-21749729D01*
X156087857Y-21249729D02*
X156087857Y-22249729D01*
X156087857Y-21392586D02*
X156016428Y-21321158D01*
X155873571Y-21249729D01*
X155659285Y-21249729D01*
X155516428Y-21321158D01*
X155445000Y-21464015D01*
X155445000Y-22249729D01*
X154802142Y-22178300D02*
X154659285Y-22249729D01*
X154373571Y-22249729D01*
X154230714Y-22178300D01*
X154159285Y-22035443D01*
X154159285Y-21964015D01*
X154230714Y-21821158D01*
X154373571Y-21749729D01*
X154587857Y-21749729D01*
X154730714Y-21678300D01*
X154802142Y-21535443D01*
X154802142Y-21464015D01*
X154730714Y-21321158D01*
X154587857Y-21249729D01*
X154373571Y-21249729D01*
X154230714Y-21321158D01*
X153516428Y-22249729D02*
X153516428Y-21249729D01*
X153516428Y-20749729D02*
X153587857Y-20821158D01*
X153516428Y-20892586D01*
X153445000Y-20821158D01*
X153516428Y-20749729D01*
X153516428Y-20892586D01*
X152230714Y-22178300D02*
X152373571Y-22249729D01*
X152659285Y-22249729D01*
X152802142Y-22178300D01*
X152873571Y-22035443D01*
X152873571Y-21464015D01*
X152802142Y-21321158D01*
X152659285Y-21249729D01*
X152373571Y-21249729D01*
X152230714Y-21321158D01*
X152159285Y-21464015D01*
X152159285Y-21606872D01*
X152873571Y-21749729D01*
X151516428Y-22249729D02*
X151516428Y-21249729D01*
X151516428Y-21535443D02*
X151445000Y-21392586D01*
X151373571Y-21321158D01*
X151230714Y-21249729D01*
X151087857Y-21249729D01*
X150802142Y-21249729D02*
X150230714Y-21249729D01*
X150587857Y-20749729D02*
X150587857Y-22035443D01*
X150516428Y-22178300D01*
X150373571Y-22249729D01*
X150230714Y-22249729D01*
X147945000Y-21249729D02*
X147945000Y-22249729D01*
X148587857Y-21249729D02*
X148587857Y-22035443D01*
X148516428Y-22178300D01*
X148373571Y-22249729D01*
X148159285Y-22249729D01*
X148016428Y-22178300D01*
X147945000Y-22106872D01*
X147230714Y-21249729D02*
X147230714Y-22249729D01*
X147230714Y-21392586D02*
X147159285Y-21321158D01*
X147016428Y-21249729D01*
X146802142Y-21249729D01*
X146659285Y-21321158D01*
X146587857Y-21464015D01*
X146587857Y-22249729D01*
X146087857Y-21249729D02*
X145516428Y-21249729D01*
X145873571Y-20749729D02*
X145873571Y-22035443D01*
X145802142Y-22178300D01*
X145659285Y-22249729D01*
X145516428Y-22249729D01*
X144445000Y-22178300D02*
X144587857Y-22249729D01*
X144873571Y-22249729D01*
X145016428Y-22178300D01*
X145087857Y-22035443D01*
X145087857Y-21464015D01*
X145016428Y-21321158D01*
X144873571Y-21249729D01*
X144587857Y-21249729D01*
X144445000Y-21321158D01*
X144373571Y-21464015D01*
X144373571Y-21606872D01*
X145087857Y-21749729D01*
X143730714Y-22249729D02*
X143730714Y-21249729D01*
X143730714Y-21535443D02*
X143659285Y-21392586D01*
X143587857Y-21321158D01*
X143445000Y-21249729D01*
X143302142Y-21249729D01*
X140802142Y-22106872D02*
X140873571Y-22178300D01*
X141087857Y-22249729D01*
X141230714Y-22249729D01*
X141445000Y-22178300D01*
X141587857Y-22035443D01*
X141659285Y-21892586D01*
X141730714Y-21606872D01*
X141730714Y-21392586D01*
X141659285Y-21106872D01*
X141587857Y-20964015D01*
X141445000Y-20821158D01*
X141230714Y-20749729D01*
X141087857Y-20749729D01*
X140873571Y-20821158D01*
X140802142Y-20892586D01*
X139302142Y-22106872D02*
X139373571Y-22178300D01*
X139587857Y-22249729D01*
X139730714Y-22249729D01*
X139945000Y-22178300D01*
X140087857Y-22035443D01*
X140159285Y-21892586D01*
X140230714Y-21606872D01*
X140230714Y-21392586D01*
X140159285Y-21106872D01*
X140087857Y-20964015D01*
X139945000Y-20821158D01*
X139730714Y-20749729D01*
X139587857Y-20749729D01*
X139373571Y-20821158D01*
X139302142Y-20892586D01*
X137016428Y-21464015D02*
X136802142Y-21535443D01*
X136730714Y-21606872D01*
X136659285Y-21749729D01*
X136659285Y-21964015D01*
X136730714Y-22106872D01*
X136802142Y-22178300D01*
X136945000Y-22249729D01*
X137516428Y-22249729D01*
X137516428Y-20749729D01*
X137016428Y-20749729D01*
X136873571Y-20821158D01*
X136802142Y-20892586D01*
X136730714Y-21035443D01*
X136730714Y-21178300D01*
X136802142Y-21321158D01*
X136873571Y-21392586D01*
X137016428Y-21464015D01*
X137516428Y-21464015D01*
X135730714Y-21535443D02*
X135730714Y-22249729D01*
X136230714Y-20749729D02*
X135730714Y-21535443D01*
X135230714Y-20749729D01*
X134730714Y-21678300D02*
X133587857Y-21678300D01*
X132873571Y-22249729D02*
X132873571Y-20749729D01*
X132016428Y-22249729D01*
X132016428Y-20749729D01*
X130445000Y-22106872D02*
X130516428Y-22178300D01*
X130730714Y-22249729D01*
X130873571Y-22249729D01*
X131087857Y-22178300D01*
X131230714Y-22035443D01*
X131302142Y-21892586D01*
X131373571Y-21606872D01*
X131373571Y-21392586D01*
X131302142Y-21106872D01*
X131230714Y-20964015D01*
X131087857Y-20821158D01*
X130873571Y-20749729D01*
X130730714Y-20749729D01*
X130516428Y-20821158D01*
X130445000Y-20892586D01*
X129802142Y-21678300D02*
X128659285Y-21678300D01*
X128016428Y-22178300D02*
X127802142Y-22249729D01*
X127445000Y-22249729D01*
X127302142Y-22178300D01*
X127230714Y-22106872D01*
X127159285Y-21964015D01*
X127159285Y-21821158D01*
X127230714Y-21678300D01*
X127302142Y-21606872D01*
X127445000Y-21535443D01*
X127730714Y-21464015D01*
X127873571Y-21392586D01*
X127945000Y-21321158D01*
X128016428Y-21178300D01*
X128016428Y-21035443D01*
X127945000Y-20892586D01*
X127873571Y-20821158D01*
X127730714Y-20749729D01*
X127373571Y-20749729D01*
X127159285Y-20821158D01*
X126587857Y-21821158D02*
X125873571Y-21821158D01*
X126730714Y-22249729D02*
X126230714Y-20749729D01*
X125730714Y-22249729D01*
D11*
%TO.C,REF\u002A\u002A*%
X153185948Y-33358877D02*
X153092254Y-33413072D01*
X153092254Y-33413072D02*
X153027113Y-33466865D01*
X153027113Y-33466865D02*
X152979470Y-33523224D01*
X152979470Y-33523224D02*
X152946649Y-33592145D01*
X152946649Y-33592145D02*
X152925971Y-33683626D01*
X152925971Y-33683626D02*
X152914757Y-33807664D01*
X152914757Y-33807664D02*
X152910328Y-33974256D01*
X152910328Y-33974256D02*
X152909814Y-34094009D01*
X152909814Y-34094009D02*
X152909814Y-34534817D01*
X152909814Y-34534817D02*
X153033894Y-34590441D01*
X153033894Y-34590441D02*
X153157975Y-34646065D01*
X153157975Y-34646065D02*
X153172572Y-34163253D01*
X153172572Y-34163253D02*
X153178604Y-33982937D01*
X153178604Y-33982937D02*
X153184932Y-33852059D01*
X153184932Y-33852059D02*
X153192771Y-33761669D01*
X153192771Y-33761669D02*
X153203340Y-33702822D01*
X153203340Y-33702822D02*
X153217854Y-33666571D01*
X153217854Y-33666571D02*
X153237529Y-33643968D01*
X153237529Y-33643968D02*
X153243842Y-33639075D01*
X153243842Y-33639075D02*
X153339489Y-33600864D01*
X153339489Y-33600864D02*
X153436170Y-33615985D01*
X153436170Y-33615985D02*
X153493722Y-33656101D01*
X153493722Y-33656101D02*
X153517132Y-33684528D01*
X153517132Y-33684528D02*
X153533338Y-33721830D01*
X153533338Y-33721830D02*
X153543636Y-33778381D01*
X153543636Y-33778381D02*
X153549328Y-33864552D01*
X153549328Y-33864552D02*
X153551713Y-33990716D01*
X153551713Y-33990716D02*
X153552113Y-34122200D01*
X153552113Y-34122200D02*
X153552191Y-34287157D01*
X153552191Y-34287157D02*
X153555016Y-34403919D01*
X153555016Y-34403919D02*
X153564470Y-34482668D01*
X153564470Y-34482668D02*
X153584437Y-34533589D01*
X153584437Y-34533589D02*
X153618801Y-34566864D01*
X153618801Y-34566864D02*
X153671445Y-34592678D01*
X153671445Y-34592678D02*
X153741760Y-34619502D01*
X153741760Y-34619502D02*
X153818557Y-34648700D01*
X153818557Y-34648700D02*
X153809415Y-34130504D01*
X153809415Y-34130504D02*
X153805734Y-33943697D01*
X153805734Y-33943697D02*
X153801427Y-33805648D01*
X153801427Y-33805648D02*
X153795254Y-33706726D01*
X153795254Y-33706726D02*
X153785975Y-33637303D01*
X153785975Y-33637303D02*
X153772350Y-33587748D01*
X153772350Y-33587748D02*
X153753138Y-33548431D01*
X153753138Y-33548431D02*
X153729975Y-33513742D01*
X153729975Y-33513742D02*
X153618225Y-33402928D01*
X153618225Y-33402928D02*
X153481864Y-33338847D01*
X153481864Y-33338847D02*
X153333552Y-33323497D01*
X153333552Y-33323497D02*
X153185948Y-33358877D01*
X153185948Y-33358877D02*
X153185948Y-33358877D01*
G36*
X153481864Y-33338847D02*
G01*
X153618225Y-33402928D01*
X153729975Y-33513742D01*
X153753138Y-33548431D01*
X153772350Y-33587748D01*
X153785975Y-33637303D01*
X153795254Y-33706726D01*
X153801427Y-33805648D01*
X153805734Y-33943697D01*
X153809415Y-34130504D01*
X153818557Y-34648700D01*
X153741760Y-34619502D01*
X153671445Y-34592678D01*
X153618801Y-34566864D01*
X153584437Y-34533589D01*
X153564470Y-34482668D01*
X153555016Y-34403919D01*
X153552191Y-34287157D01*
X153552113Y-34122200D01*
X153551713Y-33990716D01*
X153549328Y-33864552D01*
X153543636Y-33778381D01*
X153533338Y-33721830D01*
X153517132Y-33684528D01*
X153493722Y-33656101D01*
X153436170Y-33615985D01*
X153339489Y-33600864D01*
X153243842Y-33639075D01*
X153237529Y-33643968D01*
X153217854Y-33666571D01*
X153203340Y-33702822D01*
X153192771Y-33761669D01*
X153184932Y-33852059D01*
X153178604Y-33982937D01*
X153172572Y-34163253D01*
X153157975Y-34646065D01*
X153033894Y-34590441D01*
X152909814Y-34534817D01*
X152909814Y-34094009D01*
X152910328Y-33974256D01*
X152914757Y-33807664D01*
X152925971Y-33683626D01*
X152946649Y-33592145D01*
X152979470Y-33523224D01*
X153027113Y-33466865D01*
X153092254Y-33413072D01*
X153185948Y-33358877D01*
X153333552Y-33323497D01*
X153481864Y-33338847D01*
G37*
X153481864Y-33338847D02*
X153618225Y-33402928D01*
X153729975Y-33513742D01*
X153753138Y-33548431D01*
X153772350Y-33587748D01*
X153785975Y-33637303D01*
X153795254Y-33706726D01*
X153801427Y-33805648D01*
X153805734Y-33943697D01*
X153809415Y-34130504D01*
X153818557Y-34648700D01*
X153741760Y-34619502D01*
X153671445Y-34592678D01*
X153618801Y-34566864D01*
X153584437Y-34533589D01*
X153564470Y-34482668D01*
X153555016Y-34403919D01*
X153552191Y-34287157D01*
X153552113Y-34122200D01*
X153551713Y-33990716D01*
X153549328Y-33864552D01*
X153543636Y-33778381D01*
X153533338Y-33721830D01*
X153517132Y-33684528D01*
X153493722Y-33656101D01*
X153436170Y-33615985D01*
X153339489Y-33600864D01*
X153243842Y-33639075D01*
X153237529Y-33643968D01*
X153217854Y-33666571D01*
X153203340Y-33702822D01*
X153192771Y-33761669D01*
X153184932Y-33852059D01*
X153178604Y-33982937D01*
X153172572Y-34163253D01*
X153157975Y-34646065D01*
X153033894Y-34590441D01*
X152909814Y-34534817D01*
X152909814Y-34094009D01*
X152910328Y-33974256D01*
X152914757Y-33807664D01*
X152925971Y-33683626D01*
X152946649Y-33592145D01*
X152979470Y-33523224D01*
X153027113Y-33466865D01*
X153092254Y-33413072D01*
X153185948Y-33358877D01*
X153333552Y-33323497D01*
X153481864Y-33338847D01*
X155431477Y-33343061D02*
X155319927Y-33398680D01*
X155319927Y-33398680D02*
X155221469Y-33501089D01*
X155221469Y-33501089D02*
X155194354Y-33539022D01*
X155194354Y-33539022D02*
X155164815Y-33588658D01*
X155164815Y-33588658D02*
X155145649Y-33642570D01*
X155145649Y-33642570D02*
X155134684Y-33714522D01*
X155134684Y-33714522D02*
X155129748Y-33818280D01*
X155129748Y-33818280D02*
X155128664Y-33955259D01*
X155128664Y-33955259D02*
X155133559Y-34142973D01*
X155133559Y-34142973D02*
X155150573Y-34283916D01*
X155150573Y-34283916D02*
X155183200Y-34389066D01*
X155183200Y-34389066D02*
X155234935Y-34469401D01*
X155234935Y-34469401D02*
X155309273Y-34535899D01*
X155309273Y-34535899D02*
X155314735Y-34539836D01*
X155314735Y-34539836D02*
X155387997Y-34580111D01*
X155387997Y-34580111D02*
X155476217Y-34600038D01*
X155476217Y-34600038D02*
X155588415Y-34604951D01*
X155588415Y-34604951D02*
X155770810Y-34604951D01*
X155770810Y-34604951D02*
X155770886Y-34782015D01*
X155770886Y-34782015D02*
X155772584Y-34880628D01*
X155772584Y-34880628D02*
X155782927Y-34938472D01*
X155782927Y-34938472D02*
X155809955Y-34973164D01*
X155809955Y-34973164D02*
X155861709Y-35002322D01*
X155861709Y-35002322D02*
X155874138Y-35008279D01*
X155874138Y-35008279D02*
X155932300Y-35036197D01*
X155932300Y-35036197D02*
X155977333Y-35053830D01*
X155977333Y-35053830D02*
X156010818Y-35055352D01*
X156010818Y-35055352D02*
X156034339Y-35034939D01*
X156034339Y-35034939D02*
X156049477Y-34986765D01*
X156049477Y-34986765D02*
X156057814Y-34905004D01*
X156057814Y-34905004D02*
X156060933Y-34783830D01*
X156060933Y-34783830D02*
X156060417Y-34617418D01*
X156060417Y-34617418D02*
X156057848Y-34399943D01*
X156057848Y-34399943D02*
X156057045Y-34334894D01*
X156057045Y-34334894D02*
X156054155Y-34110660D01*
X156054155Y-34110660D02*
X156051565Y-33963979D01*
X156051565Y-33963979D02*
X155770963Y-33963979D01*
X155770963Y-33963979D02*
X155769386Y-34088484D01*
X155769386Y-34088484D02*
X155762377Y-34169945D01*
X155762377Y-34169945D02*
X155746519Y-34223673D01*
X155746519Y-34223673D02*
X155718396Y-34264981D01*
X155718396Y-34264981D02*
X155699302Y-34285129D01*
X155699302Y-34285129D02*
X155621242Y-34344079D01*
X155621242Y-34344079D02*
X155552130Y-34348878D01*
X155552130Y-34348878D02*
X155480817Y-34300196D01*
X155480817Y-34300196D02*
X155479009Y-34298399D01*
X155479009Y-34298399D02*
X155449994Y-34260776D01*
X155449994Y-34260776D02*
X155432344Y-34209642D01*
X155432344Y-34209642D02*
X155423441Y-34130896D01*
X155423441Y-34130896D02*
X155420668Y-34010434D01*
X155420668Y-34010434D02*
X155420618Y-33983746D01*
X155420618Y-33983746D02*
X155427319Y-33817741D01*
X155427319Y-33817741D02*
X155449129Y-33702663D01*
X155449129Y-33702663D02*
X155488612Y-33632412D01*
X155488612Y-33632412D02*
X155548333Y-33600887D01*
X155548333Y-33600887D02*
X155582849Y-33597710D01*
X155582849Y-33597710D02*
X155664766Y-33612618D01*
X155664766Y-33612618D02*
X155720956Y-33661706D01*
X155720956Y-33661706D02*
X155754779Y-33751520D01*
X155754779Y-33751520D02*
X155769597Y-33888603D01*
X155769597Y-33888603D02*
X155770963Y-33963979D01*
X155770963Y-33963979D02*
X156051565Y-33963979D01*
X156051565Y-33963979D02*
X156051090Y-33937110D01*
X156051090Y-33937110D02*
X156047130Y-33806540D01*
X156047130Y-33806540D02*
X156041551Y-33711245D01*
X156041551Y-33711245D02*
X156033631Y-33643522D01*
X156033631Y-33643522D02*
X156022646Y-33595665D01*
X156022646Y-33595665D02*
X156007876Y-33559971D01*
X156007876Y-33559971D02*
X155988595Y-33528736D01*
X155988595Y-33528736D02*
X155980328Y-33516982D01*
X155980328Y-33516982D02*
X155870665Y-33405955D01*
X155870665Y-33405955D02*
X155732012Y-33343005D01*
X155732012Y-33343005D02*
X155571623Y-33325455D01*
X155571623Y-33325455D02*
X155431477Y-33343061D01*
X155431477Y-33343061D02*
X155431477Y-33343061D01*
G36*
X156057045Y-34334894D02*
G01*
X156057848Y-34399943D01*
X156060417Y-34617418D01*
X156060933Y-34783830D01*
X156057814Y-34905004D01*
X156049477Y-34986765D01*
X156034339Y-35034939D01*
X156010818Y-35055352D01*
X155977333Y-35053830D01*
X155932300Y-35036197D01*
X155874138Y-35008279D01*
X155861709Y-35002322D01*
X155809955Y-34973164D01*
X155782927Y-34938472D01*
X155772584Y-34880628D01*
X155770886Y-34782015D01*
X155770810Y-34604951D01*
X155588415Y-34604951D01*
X155476217Y-34600038D01*
X155387997Y-34580111D01*
X155314735Y-34539836D01*
X155309273Y-34535899D01*
X155234935Y-34469401D01*
X155183200Y-34389066D01*
X155150573Y-34283916D01*
X155133559Y-34142973D01*
X155129407Y-33983746D01*
X155420618Y-33983746D01*
X155420668Y-34010434D01*
X155423441Y-34130896D01*
X155432344Y-34209642D01*
X155449994Y-34260776D01*
X155479009Y-34298399D01*
X155480817Y-34300196D01*
X155552130Y-34348878D01*
X155621242Y-34344079D01*
X155699302Y-34285129D01*
X155718396Y-34264981D01*
X155746519Y-34223673D01*
X155762377Y-34169945D01*
X155769386Y-34088484D01*
X155770963Y-33963979D01*
X155769597Y-33888603D01*
X155754779Y-33751520D01*
X155720956Y-33661706D01*
X155664766Y-33612618D01*
X155582849Y-33597710D01*
X155548333Y-33600887D01*
X155488612Y-33632412D01*
X155449129Y-33702663D01*
X155427319Y-33817741D01*
X155420618Y-33983746D01*
X155129407Y-33983746D01*
X155128664Y-33955259D01*
X155129748Y-33818280D01*
X155134684Y-33714522D01*
X155145649Y-33642570D01*
X155164815Y-33588658D01*
X155194354Y-33539022D01*
X155221469Y-33501089D01*
X155319927Y-33398680D01*
X155431477Y-33343061D01*
X155571623Y-33325455D01*
X155732012Y-33343005D01*
X155870665Y-33405955D01*
X155980328Y-33516982D01*
X155988595Y-33528736D01*
X156007876Y-33559971D01*
X156022646Y-33595665D01*
X156033631Y-33643522D01*
X156041551Y-33711245D01*
X156047130Y-33806540D01*
X156051090Y-33937110D01*
X156051565Y-33963979D01*
X156054155Y-34110660D01*
X156057045Y-34334894D01*
G37*
X156057045Y-34334894D02*
X156057848Y-34399943D01*
X156060417Y-34617418D01*
X156060933Y-34783830D01*
X156057814Y-34905004D01*
X156049477Y-34986765D01*
X156034339Y-35034939D01*
X156010818Y-35055352D01*
X155977333Y-35053830D01*
X155932300Y-35036197D01*
X155874138Y-35008279D01*
X155861709Y-35002322D01*
X155809955Y-34973164D01*
X155782927Y-34938472D01*
X155772584Y-34880628D01*
X155770886Y-34782015D01*
X155770810Y-34604951D01*
X155588415Y-34604951D01*
X155476217Y-34600038D01*
X155387997Y-34580111D01*
X155314735Y-34539836D01*
X155309273Y-34535899D01*
X155234935Y-34469401D01*
X155183200Y-34389066D01*
X155150573Y-34283916D01*
X155133559Y-34142973D01*
X155129407Y-33983746D01*
X155420618Y-33983746D01*
X155420668Y-34010434D01*
X155423441Y-34130896D01*
X155432344Y-34209642D01*
X155449994Y-34260776D01*
X155479009Y-34298399D01*
X155480817Y-34300196D01*
X155552130Y-34348878D01*
X155621242Y-34344079D01*
X155699302Y-34285129D01*
X155718396Y-34264981D01*
X155746519Y-34223673D01*
X155762377Y-34169945D01*
X155769386Y-34088484D01*
X155770963Y-33963979D01*
X155769597Y-33888603D01*
X155754779Y-33751520D01*
X155720956Y-33661706D01*
X155664766Y-33612618D01*
X155582849Y-33597710D01*
X155548333Y-33600887D01*
X155488612Y-33632412D01*
X155449129Y-33702663D01*
X155427319Y-33817741D01*
X155420618Y-33983746D01*
X155129407Y-33983746D01*
X155128664Y-33955259D01*
X155129748Y-33818280D01*
X155134684Y-33714522D01*
X155145649Y-33642570D01*
X155164815Y-33588658D01*
X155194354Y-33539022D01*
X155221469Y-33501089D01*
X155319927Y-33398680D01*
X155431477Y-33343061D01*
X155571623Y-33325455D01*
X155732012Y-33343005D01*
X155870665Y-33405955D01*
X155980328Y-33516982D01*
X155988595Y-33528736D01*
X156007876Y-33559971D01*
X156022646Y-33595665D01*
X156033631Y-33643522D01*
X156041551Y-33711245D01*
X156047130Y-33806540D01*
X156051090Y-33937110D01*
X156051565Y-33963979D01*
X156054155Y-34110660D01*
X156057045Y-34334894D01*
X148209463Y-33635613D02*
X148209834Y-33853819D01*
X148209834Y-33853819D02*
X148211269Y-34021677D01*
X148211269Y-34021677D02*
X148214375Y-34147228D01*
X148214375Y-34147228D02*
X148219755Y-34238513D01*
X148219755Y-34238513D02*
X148228015Y-34303573D01*
X148228015Y-34303573D02*
X148239761Y-34350449D01*
X148239761Y-34350449D02*
X148255596Y-34387182D01*
X148255596Y-34387182D02*
X148267587Y-34408149D01*
X148267587Y-34408149D02*
X148366887Y-34521852D01*
X148366887Y-34521852D02*
X148492789Y-34593123D01*
X148492789Y-34593123D02*
X148632086Y-34618696D01*
X148632086Y-34618696D02*
X148771572Y-34595308D01*
X148771572Y-34595308D02*
X148854634Y-34553277D01*
X148854634Y-34553277D02*
X148941832Y-34480569D01*
X148941832Y-34480569D02*
X149001260Y-34391770D01*
X149001260Y-34391770D02*
X149037116Y-34275478D01*
X149037116Y-34275478D02*
X149053596Y-34120293D01*
X149053596Y-34120293D02*
X149055930Y-34006445D01*
X149055930Y-34006445D02*
X149055616Y-33998264D01*
X149055616Y-33998264D02*
X148851653Y-33998264D01*
X148851653Y-33998264D02*
X148850407Y-34128815D01*
X148850407Y-34128815D02*
X148844699Y-34215238D01*
X148844699Y-34215238D02*
X148831573Y-34271776D01*
X148831573Y-34271776D02*
X148808071Y-34312672D01*
X148808071Y-34312672D02*
X148779991Y-34343520D01*
X148779991Y-34343520D02*
X148685689Y-34403063D01*
X148685689Y-34403063D02*
X148584437Y-34408150D01*
X148584437Y-34408150D02*
X148488741Y-34358437D01*
X148488741Y-34358437D02*
X148481293Y-34351701D01*
X148481293Y-34351701D02*
X148449503Y-34316660D01*
X148449503Y-34316660D02*
X148429569Y-34274969D01*
X148429569Y-34274969D02*
X148418777Y-34212920D01*
X148418777Y-34212920D02*
X148414412Y-34116802D01*
X148414412Y-34116802D02*
X148413722Y-34010537D01*
X148413722Y-34010537D02*
X148415218Y-33877038D01*
X148415218Y-33877038D02*
X148421413Y-33787980D01*
X148421413Y-33787980D02*
X148434863Y-33729451D01*
X148434863Y-33729451D02*
X148458126Y-33687540D01*
X148458126Y-33687540D02*
X148477202Y-33665281D01*
X148477202Y-33665281D02*
X148565814Y-33609143D01*
X148565814Y-33609143D02*
X148667869Y-33602393D01*
X148667869Y-33602393D02*
X148765282Y-33645272D01*
X148765282Y-33645272D02*
X148784081Y-33661190D01*
X148784081Y-33661190D02*
X148816084Y-33696540D01*
X148816084Y-33696540D02*
X148836059Y-33738660D01*
X148836059Y-33738660D02*
X148846784Y-33801409D01*
X148846784Y-33801409D02*
X148851038Y-33898645D01*
X148851038Y-33898645D02*
X148851653Y-33998264D01*
X148851653Y-33998264D02*
X149055616Y-33998264D01*
X149055616Y-33998264D02*
X149048873Y-33823105D01*
X149048873Y-33823105D02*
X149024905Y-33685353D01*
X149024905Y-33685353D02*
X148979829Y-33581790D01*
X148979829Y-33581790D02*
X148909449Y-33501014D01*
X148909449Y-33501014D02*
X148854634Y-33459613D01*
X148854634Y-33459613D02*
X148755001Y-33414886D01*
X148755001Y-33414886D02*
X148639522Y-33394125D01*
X148639522Y-33394125D02*
X148532178Y-33399683D01*
X148532178Y-33399683D02*
X148472113Y-33422101D01*
X148472113Y-33422101D02*
X148448542Y-33428481D01*
X148448542Y-33428481D02*
X148432900Y-33404693D01*
X148432900Y-33404693D02*
X148421982Y-33340946D01*
X148421982Y-33340946D02*
X148413722Y-33243845D01*
X148413722Y-33243845D02*
X148404678Y-33135699D01*
X148404678Y-33135699D02*
X148392116Y-33070633D01*
X148392116Y-33070633D02*
X148369258Y-33033426D01*
X148369258Y-33033426D02*
X148329326Y-33008857D01*
X148329326Y-33008857D02*
X148304239Y-32997977D01*
X148304239Y-32997977D02*
X148209354Y-32958230D01*
X148209354Y-32958230D02*
X148209463Y-33635613D01*
X148209463Y-33635613D02*
X148209463Y-33635613D01*
G36*
X149053596Y-34120293D02*
G01*
X149037116Y-34275478D01*
X149001260Y-34391770D01*
X148941832Y-34480569D01*
X148854634Y-34553277D01*
X148771572Y-34595308D01*
X148632086Y-34618696D01*
X148492789Y-34593123D01*
X148366887Y-34521852D01*
X148267587Y-34408149D01*
X148255596Y-34387182D01*
X148239761Y-34350449D01*
X148228015Y-34303573D01*
X148219755Y-34238513D01*
X148214375Y-34147228D01*
X148211269Y-34021677D01*
X148211174Y-34010537D01*
X148413722Y-34010537D01*
X148414412Y-34116802D01*
X148418777Y-34212920D01*
X148429569Y-34274969D01*
X148449503Y-34316660D01*
X148481293Y-34351701D01*
X148488741Y-34358437D01*
X148584437Y-34408150D01*
X148685689Y-34403063D01*
X148779991Y-34343520D01*
X148808071Y-34312672D01*
X148831573Y-34271776D01*
X148844699Y-34215238D01*
X148850407Y-34128815D01*
X148851653Y-33998264D01*
X148851038Y-33898645D01*
X148846784Y-33801409D01*
X148836059Y-33738660D01*
X148816084Y-33696540D01*
X148784081Y-33661190D01*
X148765282Y-33645272D01*
X148667869Y-33602393D01*
X148565814Y-33609143D01*
X148477202Y-33665281D01*
X148458126Y-33687540D01*
X148434863Y-33729451D01*
X148421413Y-33787980D01*
X148415218Y-33877038D01*
X148413722Y-34010537D01*
X148211174Y-34010537D01*
X148209834Y-33853819D01*
X148209463Y-33635613D01*
X148209354Y-32958230D01*
X148304239Y-32997977D01*
X148329326Y-33008857D01*
X148369258Y-33033426D01*
X148392116Y-33070633D01*
X148404678Y-33135699D01*
X148413722Y-33243845D01*
X148421982Y-33340946D01*
X148432900Y-33404693D01*
X148448542Y-33428481D01*
X148472113Y-33422101D01*
X148532178Y-33399683D01*
X148639522Y-33394125D01*
X148755001Y-33414886D01*
X148854634Y-33459613D01*
X148909449Y-33501014D01*
X148979829Y-33581790D01*
X149024905Y-33685353D01*
X149048873Y-33823105D01*
X149055616Y-33998264D01*
X149055930Y-34006445D01*
X149053596Y-34120293D01*
G37*
X149053596Y-34120293D02*
X149037116Y-34275478D01*
X149001260Y-34391770D01*
X148941832Y-34480569D01*
X148854634Y-34553277D01*
X148771572Y-34595308D01*
X148632086Y-34618696D01*
X148492789Y-34593123D01*
X148366887Y-34521852D01*
X148267587Y-34408149D01*
X148255596Y-34387182D01*
X148239761Y-34350449D01*
X148228015Y-34303573D01*
X148219755Y-34238513D01*
X148214375Y-34147228D01*
X148211269Y-34021677D01*
X148211174Y-34010537D01*
X148413722Y-34010537D01*
X148414412Y-34116802D01*
X148418777Y-34212920D01*
X148429569Y-34274969D01*
X148449503Y-34316660D01*
X148481293Y-34351701D01*
X148488741Y-34358437D01*
X148584437Y-34408150D01*
X148685689Y-34403063D01*
X148779991Y-34343520D01*
X148808071Y-34312672D01*
X148831573Y-34271776D01*
X148844699Y-34215238D01*
X148850407Y-34128815D01*
X148851653Y-33998264D01*
X148851038Y-33898645D01*
X148846784Y-33801409D01*
X148836059Y-33738660D01*
X148816084Y-33696540D01*
X148784081Y-33661190D01*
X148765282Y-33645272D01*
X148667869Y-33602393D01*
X148565814Y-33609143D01*
X148477202Y-33665281D01*
X148458126Y-33687540D01*
X148434863Y-33729451D01*
X148421413Y-33787980D01*
X148415218Y-33877038D01*
X148413722Y-34010537D01*
X148211174Y-34010537D01*
X148209834Y-33853819D01*
X148209463Y-33635613D01*
X148209354Y-32958230D01*
X148304239Y-32997977D01*
X148329326Y-33008857D01*
X148369258Y-33033426D01*
X148392116Y-33070633D01*
X148404678Y-33135699D01*
X148413722Y-33243845D01*
X148421982Y-33340946D01*
X148432900Y-33404693D01*
X148448542Y-33428481D01*
X148472113Y-33422101D01*
X148532178Y-33399683D01*
X148639522Y-33394125D01*
X148755001Y-33414886D01*
X148854634Y-33459613D01*
X148909449Y-33501014D01*
X148979829Y-33581790D01*
X149024905Y-33685353D01*
X149048873Y-33823105D01*
X149055616Y-33998264D01*
X149055930Y-34006445D01*
X149053596Y-34120293D01*
X144259938Y-33437698D02*
X144144427Y-33513192D01*
X144144427Y-33513192D02*
X144088713Y-33580775D01*
X144088713Y-33580775D02*
X144044573Y-33703413D01*
X144044573Y-33703413D02*
X144041068Y-33800456D01*
X144041068Y-33800456D02*
X144049009Y-33930214D01*
X144049009Y-33930214D02*
X144348262Y-34061197D01*
X144348262Y-34061197D02*
X144493766Y-34128116D01*
X144493766Y-34128116D02*
X144588840Y-34181948D01*
X144588840Y-34181948D02*
X144638276Y-34228574D01*
X144638276Y-34228574D02*
X144646866Y-34273878D01*
X144646866Y-34273878D02*
X144619405Y-34323740D01*
X144619405Y-34323740D02*
X144589124Y-34356790D01*
X144589124Y-34356790D02*
X144501014Y-34409791D01*
X144501014Y-34409791D02*
X144405181Y-34413505D01*
X144405181Y-34413505D02*
X144317165Y-34372199D01*
X144317165Y-34372199D02*
X144252508Y-34290141D01*
X144252508Y-34290141D02*
X144240944Y-34261166D01*
X144240944Y-34261166D02*
X144185552Y-34170667D01*
X144185552Y-34170667D02*
X144121824Y-34132098D01*
X144121824Y-34132098D02*
X144034411Y-34099104D01*
X144034411Y-34099104D02*
X144034411Y-34224192D01*
X144034411Y-34224192D02*
X144042139Y-34309314D01*
X144042139Y-34309314D02*
X144072411Y-34381096D01*
X144072411Y-34381096D02*
X144135859Y-34463514D01*
X144135859Y-34463514D02*
X144145289Y-34474224D01*
X144145289Y-34474224D02*
X144215864Y-34547549D01*
X144215864Y-34547549D02*
X144276530Y-34586900D01*
X144276530Y-34586900D02*
X144352427Y-34605003D01*
X144352427Y-34605003D02*
X144415347Y-34610932D01*
X144415347Y-34610932D02*
X144527890Y-34612409D01*
X144527890Y-34612409D02*
X144608007Y-34593693D01*
X144608007Y-34593693D02*
X144657987Y-34565905D01*
X144657987Y-34565905D02*
X144736539Y-34504799D01*
X144736539Y-34504799D02*
X144790914Y-34438712D01*
X144790914Y-34438712D02*
X144825325Y-34355599D01*
X144825325Y-34355599D02*
X144843989Y-34243412D01*
X144843989Y-34243412D02*
X144851121Y-34090104D01*
X144851121Y-34090104D02*
X144851690Y-34012294D01*
X144851690Y-34012294D02*
X144849755Y-33919011D01*
X144849755Y-33919011D02*
X144673478Y-33919011D01*
X144673478Y-33919011D02*
X144671433Y-33969054D01*
X144671433Y-33969054D02*
X144666338Y-33977250D01*
X144666338Y-33977250D02*
X144632711Y-33966116D01*
X144632711Y-33966116D02*
X144560347Y-33936651D01*
X144560347Y-33936651D02*
X144463630Y-33894759D01*
X144463630Y-33894759D02*
X144443404Y-33885755D01*
X144443404Y-33885755D02*
X144321174Y-33823600D01*
X144321174Y-33823600D02*
X144253830Y-33768973D01*
X144253830Y-33768973D02*
X144239029Y-33717807D01*
X144239029Y-33717807D02*
X144274430Y-33666034D01*
X144274430Y-33666034D02*
X144303666Y-33643158D01*
X144303666Y-33643158D02*
X144409161Y-33597408D01*
X144409161Y-33597408D02*
X144507901Y-33604966D01*
X144507901Y-33604966D02*
X144590565Y-33660809D01*
X144590565Y-33660809D02*
X144647829Y-33759911D01*
X144647829Y-33759911D02*
X144666189Y-33838572D01*
X144666189Y-33838572D02*
X144673478Y-33919011D01*
X144673478Y-33919011D02*
X144849755Y-33919011D01*
X144849755Y-33919011D02*
X144847918Y-33830509D01*
X144847918Y-33830509D02*
X144834018Y-33696011D01*
X144834018Y-33696011D02*
X144806483Y-33598074D01*
X144806483Y-33598074D02*
X144761805Y-33525969D01*
X144761805Y-33525969D02*
X144696476Y-33468971D01*
X144696476Y-33468971D02*
X144667994Y-33450551D01*
X144667994Y-33450551D02*
X144538614Y-33402580D01*
X144538614Y-33402580D02*
X144396965Y-33399561D01*
X144396965Y-33399561D02*
X144259938Y-33437698D01*
X144259938Y-33437698D02*
X144259938Y-33437698D01*
G36*
X144851121Y-34090104D02*
G01*
X144843989Y-34243412D01*
X144825325Y-34355599D01*
X144790914Y-34438712D01*
X144736539Y-34504799D01*
X144657987Y-34565905D01*
X144608007Y-34593693D01*
X144527890Y-34612409D01*
X144415347Y-34610932D01*
X144352427Y-34605003D01*
X144276530Y-34586900D01*
X144215864Y-34547549D01*
X144145289Y-34474224D01*
X144135859Y-34463514D01*
X144072411Y-34381096D01*
X144042139Y-34309314D01*
X144034411Y-34224192D01*
X144034411Y-34099104D01*
X144121824Y-34132098D01*
X144185552Y-34170667D01*
X144240944Y-34261166D01*
X144252508Y-34290141D01*
X144317165Y-34372199D01*
X144405181Y-34413505D01*
X144501014Y-34409791D01*
X144589124Y-34356790D01*
X144619405Y-34323740D01*
X144646866Y-34273878D01*
X144638276Y-34228574D01*
X144588840Y-34181948D01*
X144493766Y-34128116D01*
X144348262Y-34061197D01*
X144049009Y-33930214D01*
X144041068Y-33800456D01*
X144044053Y-33717807D01*
X144239029Y-33717807D01*
X144253830Y-33768973D01*
X144321174Y-33823600D01*
X144443404Y-33885755D01*
X144463630Y-33894759D01*
X144560347Y-33936651D01*
X144632711Y-33966116D01*
X144666338Y-33977250D01*
X144671433Y-33969054D01*
X144673478Y-33919011D01*
X144666189Y-33838572D01*
X144647829Y-33759911D01*
X144590565Y-33660809D01*
X144507901Y-33604966D01*
X144409161Y-33597408D01*
X144303666Y-33643158D01*
X144274430Y-33666034D01*
X144239029Y-33717807D01*
X144044053Y-33717807D01*
X144044573Y-33703413D01*
X144088713Y-33580775D01*
X144144427Y-33513192D01*
X144259938Y-33437698D01*
X144396965Y-33399561D01*
X144538614Y-33402580D01*
X144667994Y-33450551D01*
X144696476Y-33468971D01*
X144761805Y-33525969D01*
X144806483Y-33598074D01*
X144834018Y-33696011D01*
X144847918Y-33830509D01*
X144849755Y-33919011D01*
X144851690Y-34012294D01*
X144851121Y-34090104D01*
G37*
X144851121Y-34090104D02*
X144843989Y-34243412D01*
X144825325Y-34355599D01*
X144790914Y-34438712D01*
X144736539Y-34504799D01*
X144657987Y-34565905D01*
X144608007Y-34593693D01*
X144527890Y-34612409D01*
X144415347Y-34610932D01*
X144352427Y-34605003D01*
X144276530Y-34586900D01*
X144215864Y-34547549D01*
X144145289Y-34474224D01*
X144135859Y-34463514D01*
X144072411Y-34381096D01*
X144042139Y-34309314D01*
X144034411Y-34224192D01*
X144034411Y-34099104D01*
X144121824Y-34132098D01*
X144185552Y-34170667D01*
X144240944Y-34261166D01*
X144252508Y-34290141D01*
X144317165Y-34372199D01*
X144405181Y-34413505D01*
X144501014Y-34409791D01*
X144589124Y-34356790D01*
X144619405Y-34323740D01*
X144646866Y-34273878D01*
X144638276Y-34228574D01*
X144588840Y-34181948D01*
X144493766Y-34128116D01*
X144348262Y-34061197D01*
X144049009Y-33930214D01*
X144041068Y-33800456D01*
X144044053Y-33717807D01*
X144239029Y-33717807D01*
X144253830Y-33768973D01*
X144321174Y-33823600D01*
X144443404Y-33885755D01*
X144463630Y-33894759D01*
X144560347Y-33936651D01*
X144632711Y-33966116D01*
X144666338Y-33977250D01*
X144671433Y-33969054D01*
X144673478Y-33919011D01*
X144666189Y-33838572D01*
X144647829Y-33759911D01*
X144590565Y-33660809D01*
X144507901Y-33604966D01*
X144409161Y-33597408D01*
X144303666Y-33643158D01*
X144274430Y-33666034D01*
X144239029Y-33717807D01*
X144044053Y-33717807D01*
X144044573Y-33703413D01*
X144088713Y-33580775D01*
X144144427Y-33513192D01*
X144259938Y-33437698D01*
X144396965Y-33399561D01*
X144538614Y-33402580D01*
X144667994Y-33450551D01*
X144696476Y-33468971D01*
X144761805Y-33525969D01*
X144806483Y-33598074D01*
X144834018Y-33696011D01*
X144847918Y-33830509D01*
X144849755Y-33919011D01*
X144851690Y-34012294D01*
X144851121Y-34090104D01*
X150523433Y-33405518D02*
X150409034Y-33448000D01*
X150409034Y-33448000D02*
X150407725Y-33448816D01*
X150407725Y-33448816D02*
X150336974Y-33500888D01*
X150336974Y-33500888D02*
X150284741Y-33561742D01*
X150284741Y-33561742D02*
X150248006Y-33641045D01*
X150248006Y-33641045D02*
X150223743Y-33748467D01*
X150223743Y-33748467D02*
X150208932Y-33893675D01*
X150208932Y-33893675D02*
X150200548Y-34086337D01*
X150200548Y-34086337D02*
X150199813Y-34113786D01*
X150199813Y-34113786D02*
X150189257Y-34527679D01*
X150189257Y-34527679D02*
X150278086Y-34573614D01*
X150278086Y-34573614D02*
X150342359Y-34604656D01*
X150342359Y-34604656D02*
X150381167Y-34619364D01*
X150381167Y-34619364D02*
X150382962Y-34619549D01*
X150382962Y-34619549D02*
X150389677Y-34592408D01*
X150389677Y-34592408D02*
X150395012Y-34519199D01*
X150395012Y-34519199D02*
X150398294Y-34412239D01*
X150398294Y-34412239D02*
X150399009Y-34325627D01*
X150399009Y-34325627D02*
X150399026Y-34185320D01*
X150399026Y-34185320D02*
X150405440Y-34097209D01*
X150405440Y-34097209D02*
X150427797Y-34055183D01*
X150427797Y-34055183D02*
X150475645Y-34053133D01*
X150475645Y-34053133D02*
X150558528Y-34084948D01*
X150558528Y-34084948D02*
X150683664Y-34143430D01*
X150683664Y-34143430D02*
X150775680Y-34192003D01*
X150775680Y-34192003D02*
X150823006Y-34234144D01*
X150823006Y-34234144D02*
X150836919Y-34280074D01*
X150836919Y-34280074D02*
X150836940Y-34282347D01*
X150836940Y-34282347D02*
X150813982Y-34361469D01*
X150813982Y-34361469D02*
X150746007Y-34404213D01*
X150746007Y-34404213D02*
X150641979Y-34410404D01*
X150641979Y-34410404D02*
X150567047Y-34409330D01*
X150567047Y-34409330D02*
X150527538Y-34430911D01*
X150527538Y-34430911D02*
X150502899Y-34482749D01*
X150502899Y-34482749D02*
X150488718Y-34548790D01*
X150488718Y-34548790D02*
X150509154Y-34586262D01*
X150509154Y-34586262D02*
X150516849Y-34591625D01*
X150516849Y-34591625D02*
X150589294Y-34613164D01*
X150589294Y-34613164D02*
X150690744Y-34616213D01*
X150690744Y-34616213D02*
X150795220Y-34601936D01*
X150795220Y-34601936D02*
X150869252Y-34575846D01*
X150869252Y-34575846D02*
X150971605Y-34488943D01*
X150971605Y-34488943D02*
X151029786Y-34367974D01*
X151029786Y-34367974D02*
X151041308Y-34273466D01*
X151041308Y-34273466D02*
X151032515Y-34188220D01*
X151032515Y-34188220D02*
X151000697Y-34118634D01*
X151000697Y-34118634D02*
X150937693Y-34056830D01*
X150937693Y-34056830D02*
X150835346Y-33994930D01*
X150835346Y-33994930D02*
X150685495Y-33925055D01*
X150685495Y-33925055D02*
X150676365Y-33921106D01*
X150676365Y-33921106D02*
X150541380Y-33858746D01*
X150541380Y-33858746D02*
X150458083Y-33807604D01*
X150458083Y-33807604D02*
X150422380Y-33761646D01*
X150422380Y-33761646D02*
X150430174Y-33714841D01*
X150430174Y-33714841D02*
X150477370Y-33661156D01*
X150477370Y-33661156D02*
X150491483Y-33648802D01*
X150491483Y-33648802D02*
X150586018Y-33600899D01*
X150586018Y-33600899D02*
X150683971Y-33602916D01*
X150683971Y-33602916D02*
X150769280Y-33649882D01*
X150769280Y-33649882D02*
X150825881Y-33736827D01*
X150825881Y-33736827D02*
X150831140Y-33753892D01*
X150831140Y-33753892D02*
X150882354Y-33836662D01*
X150882354Y-33836662D02*
X150947340Y-33876530D01*
X150947340Y-33876530D02*
X151041308Y-33916040D01*
X151041308Y-33916040D02*
X151041308Y-33813816D01*
X151041308Y-33813816D02*
X151012724Y-33665230D01*
X151012724Y-33665230D02*
X150927882Y-33528942D01*
X150927882Y-33528942D02*
X150883732Y-33483349D01*
X150883732Y-33483349D02*
X150783372Y-33424832D01*
X150783372Y-33424832D02*
X150655742Y-33398342D01*
X150655742Y-33398342D02*
X150523433Y-33405518D01*
X150523433Y-33405518D02*
X150523433Y-33405518D01*
G36*
X150783372Y-33424832D02*
G01*
X150883732Y-33483349D01*
X150927882Y-33528942D01*
X151012724Y-33665230D01*
X151041308Y-33813816D01*
X151041308Y-33916040D01*
X150947340Y-33876530D01*
X150882354Y-33836662D01*
X150831140Y-33753892D01*
X150825881Y-33736827D01*
X150769280Y-33649882D01*
X150683971Y-33602916D01*
X150586018Y-33600899D01*
X150491483Y-33648802D01*
X150477370Y-33661156D01*
X150430174Y-33714841D01*
X150422380Y-33761646D01*
X150458083Y-33807604D01*
X150541380Y-33858746D01*
X150676365Y-33921106D01*
X150685495Y-33925055D01*
X150835346Y-33994930D01*
X150937693Y-34056830D01*
X151000697Y-34118634D01*
X151032515Y-34188220D01*
X151041308Y-34273466D01*
X151029786Y-34367974D01*
X150971605Y-34488943D01*
X150869252Y-34575846D01*
X150795220Y-34601936D01*
X150690744Y-34616213D01*
X150589294Y-34613164D01*
X150516849Y-34591625D01*
X150509154Y-34586262D01*
X150488718Y-34548790D01*
X150502899Y-34482749D01*
X150527538Y-34430911D01*
X150567047Y-34409330D01*
X150641979Y-34410404D01*
X150746007Y-34404213D01*
X150813982Y-34361469D01*
X150836940Y-34282347D01*
X150836919Y-34280074D01*
X150823006Y-34234144D01*
X150775680Y-34192003D01*
X150683664Y-34143430D01*
X150558528Y-34084948D01*
X150475645Y-34053133D01*
X150427797Y-34055183D01*
X150405440Y-34097209D01*
X150399026Y-34185320D01*
X150399009Y-34325627D01*
X150398294Y-34412239D01*
X150395012Y-34519199D01*
X150389677Y-34592408D01*
X150382962Y-34619549D01*
X150381167Y-34619364D01*
X150342359Y-34604656D01*
X150278086Y-34573614D01*
X150189257Y-34527679D01*
X150199813Y-34113786D01*
X150200548Y-34086337D01*
X150208932Y-33893675D01*
X150223743Y-33748467D01*
X150248006Y-33641045D01*
X150284741Y-33561742D01*
X150336974Y-33500888D01*
X150407725Y-33448816D01*
X150409034Y-33448000D01*
X150523433Y-33405518D01*
X150655742Y-33398342D01*
X150783372Y-33424832D01*
G37*
X150783372Y-33424832D02*
X150883732Y-33483349D01*
X150927882Y-33528942D01*
X151012724Y-33665230D01*
X151041308Y-33813816D01*
X151041308Y-33916040D01*
X150947340Y-33876530D01*
X150882354Y-33836662D01*
X150831140Y-33753892D01*
X150825881Y-33736827D01*
X150769280Y-33649882D01*
X150683971Y-33602916D01*
X150586018Y-33600899D01*
X150491483Y-33648802D01*
X150477370Y-33661156D01*
X150430174Y-33714841D01*
X150422380Y-33761646D01*
X150458083Y-33807604D01*
X150541380Y-33858746D01*
X150676365Y-33921106D01*
X150685495Y-33925055D01*
X150835346Y-33994930D01*
X150937693Y-34056830D01*
X151000697Y-34118634D01*
X151032515Y-34188220D01*
X151041308Y-34273466D01*
X151029786Y-34367974D01*
X150971605Y-34488943D01*
X150869252Y-34575846D01*
X150795220Y-34601936D01*
X150690744Y-34616213D01*
X150589294Y-34613164D01*
X150516849Y-34591625D01*
X150509154Y-34586262D01*
X150488718Y-34548790D01*
X150502899Y-34482749D01*
X150527538Y-34430911D01*
X150567047Y-34409330D01*
X150641979Y-34410404D01*
X150746007Y-34404213D01*
X150813982Y-34361469D01*
X150836940Y-34282347D01*
X150836919Y-34280074D01*
X150823006Y-34234144D01*
X150775680Y-34192003D01*
X150683664Y-34143430D01*
X150558528Y-34084948D01*
X150475645Y-34053133D01*
X150427797Y-34055183D01*
X150405440Y-34097209D01*
X150399026Y-34185320D01*
X150399009Y-34325627D01*
X150398294Y-34412239D01*
X150395012Y-34519199D01*
X150389677Y-34592408D01*
X150382962Y-34619549D01*
X150381167Y-34619364D01*
X150342359Y-34604656D01*
X150278086Y-34573614D01*
X150189257Y-34527679D01*
X150199813Y-34113786D01*
X150200548Y-34086337D01*
X150208932Y-33893675D01*
X150223743Y-33748467D01*
X150248006Y-33641045D01*
X150284741Y-33561742D01*
X150336974Y-33500888D01*
X150407725Y-33448816D01*
X150409034Y-33448000D01*
X150523433Y-33405518D01*
X150655742Y-33398342D01*
X150783372Y-33424832D01*
X147023253Y-33420998D02*
X147018798Y-33497811D01*
X147018798Y-33497811D02*
X147015306Y-33614549D01*
X147015306Y-33614549D02*
X147013062Y-33761979D01*
X147013062Y-33761979D02*
X147012342Y-33916613D01*
X147012342Y-33916613D02*
X147012342Y-34439885D01*
X147012342Y-34439885D02*
X147104732Y-34532275D01*
X147104732Y-34532275D02*
X147168399Y-34589205D01*
X147168399Y-34589205D02*
X147224288Y-34612265D01*
X147224288Y-34612265D02*
X147300675Y-34610805D01*
X147300675Y-34610805D02*
X147330997Y-34607092D01*
X147330997Y-34607092D02*
X147425767Y-34596284D01*
X147425767Y-34596284D02*
X147504155Y-34590091D01*
X147504155Y-34590091D02*
X147523262Y-34589519D01*
X147523262Y-34589519D02*
X147587678Y-34593260D01*
X147587678Y-34593260D02*
X147679806Y-34602652D01*
X147679806Y-34602652D02*
X147715527Y-34607092D01*
X147715527Y-34607092D02*
X147803263Y-34613959D01*
X147803263Y-34613959D02*
X147862224Y-34599043D01*
X147862224Y-34599043D02*
X147920687Y-34552993D01*
X147920687Y-34552993D02*
X147941792Y-34532275D01*
X147941792Y-34532275D02*
X148034182Y-34439885D01*
X148034182Y-34439885D02*
X148034182Y-33461105D01*
X148034182Y-33461105D02*
X147959819Y-33427224D01*
X147959819Y-33427224D02*
X147895787Y-33402128D01*
X147895787Y-33402128D02*
X147858325Y-33393342D01*
X147858325Y-33393342D02*
X147848720Y-33421108D01*
X147848720Y-33421108D02*
X147839742Y-33498688D01*
X147839742Y-33498688D02*
X147831991Y-33617506D01*
X147831991Y-33617506D02*
X147826063Y-33768986D01*
X147826063Y-33768986D02*
X147823204Y-33896963D01*
X147823204Y-33896963D02*
X147815216Y-34400583D01*
X147815216Y-34400583D02*
X147745529Y-34410436D01*
X147745529Y-34410436D02*
X147682148Y-34403547D01*
X147682148Y-34403547D02*
X147651091Y-34381241D01*
X147651091Y-34381241D02*
X147642410Y-34339537D01*
X147642410Y-34339537D02*
X147634999Y-34250702D01*
X147634999Y-34250702D02*
X147629446Y-34125992D01*
X147629446Y-34125992D02*
X147626341Y-33976665D01*
X147626341Y-33976665D02*
X147625893Y-33899819D01*
X147625893Y-33899819D02*
X147625446Y-33457445D01*
X147625446Y-33457445D02*
X147533503Y-33425393D01*
X147533503Y-33425393D02*
X147468428Y-33403601D01*
X147468428Y-33403601D02*
X147433030Y-33393439D01*
X147433030Y-33393439D02*
X147432009Y-33393342D01*
X147432009Y-33393342D02*
X147428457Y-33420967D01*
X147428457Y-33420967D02*
X147424554Y-33497569D01*
X147424554Y-33497569D02*
X147420626Y-33613737D01*
X147420626Y-33613737D02*
X147417001Y-33760062D01*
X147417001Y-33760062D02*
X147414469Y-33896963D01*
X147414469Y-33896963D02*
X147406480Y-34400583D01*
X147406480Y-34400583D02*
X147231308Y-34400583D01*
X147231308Y-34400583D02*
X147223270Y-33941123D01*
X147223270Y-33941123D02*
X147215231Y-33481663D01*
X147215231Y-33481663D02*
X147129834Y-33437502D01*
X147129834Y-33437502D02*
X147066784Y-33407177D01*
X147066784Y-33407177D02*
X147029467Y-33393416D01*
X147029467Y-33393416D02*
X147028390Y-33393342D01*
X147028390Y-33393342D02*
X147023253Y-33420998D01*
X147023253Y-33420998D02*
X147023253Y-33420998D01*
G36*
X147895787Y-33402128D02*
G01*
X147959819Y-33427224D01*
X148034182Y-33461105D01*
X148034182Y-34439885D01*
X147941792Y-34532275D01*
X147920687Y-34552993D01*
X147862224Y-34599043D01*
X147803263Y-34613959D01*
X147715527Y-34607092D01*
X147679806Y-34602652D01*
X147587678Y-34593260D01*
X147523262Y-34589519D01*
X147504155Y-34590091D01*
X147425767Y-34596284D01*
X147330997Y-34607092D01*
X147300675Y-34610805D01*
X147224288Y-34612265D01*
X147168399Y-34589205D01*
X147104732Y-34532275D01*
X147012342Y-34439885D01*
X147012342Y-33916613D01*
X147013062Y-33761979D01*
X147015306Y-33614549D01*
X147018798Y-33497811D01*
X147023253Y-33420998D01*
X147028390Y-33393342D01*
X147029467Y-33393416D01*
X147066784Y-33407177D01*
X147129834Y-33437502D01*
X147215231Y-33481663D01*
X147223270Y-33941123D01*
X147231308Y-34400583D01*
X147406480Y-34400583D01*
X147414469Y-33896963D01*
X147417001Y-33760062D01*
X147420626Y-33613737D01*
X147424554Y-33497569D01*
X147428457Y-33420967D01*
X147432009Y-33393342D01*
X147433030Y-33393439D01*
X147468428Y-33403601D01*
X147533503Y-33425393D01*
X147625446Y-33457445D01*
X147625893Y-33899819D01*
X147626341Y-33976665D01*
X147629446Y-34125992D01*
X147634999Y-34250702D01*
X147642410Y-34339537D01*
X147651091Y-34381241D01*
X147682148Y-34403547D01*
X147745529Y-34410436D01*
X147815216Y-34400583D01*
X147823204Y-33896963D01*
X147826063Y-33768986D01*
X147831991Y-33617506D01*
X147839742Y-33498688D01*
X147848720Y-33421108D01*
X147858325Y-33393342D01*
X147895787Y-33402128D01*
G37*
X147895787Y-33402128D02*
X147959819Y-33427224D01*
X148034182Y-33461105D01*
X148034182Y-34439885D01*
X147941792Y-34532275D01*
X147920687Y-34552993D01*
X147862224Y-34599043D01*
X147803263Y-34613959D01*
X147715527Y-34607092D01*
X147679806Y-34602652D01*
X147587678Y-34593260D01*
X147523262Y-34589519D01*
X147504155Y-34590091D01*
X147425767Y-34596284D01*
X147330997Y-34607092D01*
X147300675Y-34610805D01*
X147224288Y-34612265D01*
X147168399Y-34589205D01*
X147104732Y-34532275D01*
X147012342Y-34439885D01*
X147012342Y-33916613D01*
X147013062Y-33761979D01*
X147015306Y-33614549D01*
X147018798Y-33497811D01*
X147023253Y-33420998D01*
X147028390Y-33393342D01*
X147029467Y-33393416D01*
X147066784Y-33407177D01*
X147129834Y-33437502D01*
X147215231Y-33481663D01*
X147223270Y-33941123D01*
X147231308Y-34400583D01*
X147406480Y-34400583D01*
X147414469Y-33896963D01*
X147417001Y-33760062D01*
X147420626Y-33613737D01*
X147424554Y-33497569D01*
X147428457Y-33420967D01*
X147432009Y-33393342D01*
X147433030Y-33393439D01*
X147468428Y-33403601D01*
X147533503Y-33425393D01*
X147625446Y-33457445D01*
X147625893Y-33899819D01*
X147626341Y-33976665D01*
X147629446Y-34125992D01*
X147634999Y-34250702D01*
X147642410Y-34339537D01*
X147651091Y-34381241D01*
X147682148Y-34403547D01*
X147745529Y-34410436D01*
X147815216Y-34400583D01*
X147823204Y-33896963D01*
X147826063Y-33768986D01*
X147831991Y-33617506D01*
X147839742Y-33498688D01*
X147848720Y-33421108D01*
X147858325Y-33393342D01*
X147895787Y-33402128D01*
X145267687Y-33421176D02*
X145232792Y-33436427D01*
X145232792Y-33436427D02*
X145149500Y-33502393D01*
X145149500Y-33502393D02*
X145078274Y-33597776D01*
X145078274Y-33597776D02*
X145034224Y-33699564D01*
X145034224Y-33699564D02*
X145027055Y-33749745D01*
X145027055Y-33749745D02*
X145051092Y-33819805D01*
X145051092Y-33819805D02*
X145103816Y-33856875D01*
X145103816Y-33856875D02*
X145160346Y-33879322D01*
X145160346Y-33879322D02*
X145186231Y-33883458D01*
X145186231Y-33883458D02*
X145198835Y-33853441D01*
X145198835Y-33853441D02*
X145223723Y-33788119D01*
X145223723Y-33788119D02*
X145234642Y-33758603D01*
X145234642Y-33758603D02*
X145295869Y-33656506D01*
X145295869Y-33656506D02*
X145384516Y-33605581D01*
X145384516Y-33605581D02*
X145498184Y-33607147D01*
X145498184Y-33607147D02*
X145506603Y-33609152D01*
X145506603Y-33609152D02*
X145567289Y-33637925D01*
X145567289Y-33637925D02*
X145611903Y-33694017D01*
X145611903Y-33694017D02*
X145642375Y-33784321D01*
X145642375Y-33784321D02*
X145660633Y-33915729D01*
X145660633Y-33915729D02*
X145668606Y-34095132D01*
X145668606Y-34095132D02*
X145669354Y-34190591D01*
X145669354Y-34190591D02*
X145669725Y-34341071D01*
X145669725Y-34341071D02*
X145672154Y-34443653D01*
X145672154Y-34443653D02*
X145678617Y-34508830D01*
X145678617Y-34508830D02*
X145691089Y-34547096D01*
X145691089Y-34547096D02*
X145711544Y-34568943D01*
X145711544Y-34568943D02*
X145741958Y-34584865D01*
X145741958Y-34584865D02*
X145743716Y-34585667D01*
X145743716Y-34585667D02*
X145802286Y-34610430D01*
X145802286Y-34610430D02*
X145831302Y-34619549D01*
X145831302Y-34619549D02*
X145835761Y-34591980D01*
X145835761Y-34591980D02*
X145839578Y-34515778D01*
X145839578Y-34515778D02*
X145842478Y-34400699D01*
X145842478Y-34400699D02*
X145844186Y-34256499D01*
X145844186Y-34256499D02*
X145844526Y-34150972D01*
X145844526Y-34150972D02*
X145842789Y-33946771D01*
X145842789Y-33946771D02*
X145835995Y-33791855D01*
X145835995Y-33791855D02*
X145821770Y-33677182D01*
X145821770Y-33677182D02*
X145797739Y-33593709D01*
X145797739Y-33593709D02*
X145761529Y-33532394D01*
X145761529Y-33532394D02*
X145710765Y-33484192D01*
X145710765Y-33484192D02*
X145660638Y-33450551D01*
X145660638Y-33450551D02*
X145540102Y-33405777D01*
X145540102Y-33405777D02*
X145399820Y-33395679D01*
X145399820Y-33395679D02*
X145267687Y-33421176D01*
X145267687Y-33421176D02*
X145267687Y-33421176D01*
G36*
X145540102Y-33405777D02*
G01*
X145660638Y-33450551D01*
X145710765Y-33484192D01*
X145761529Y-33532394D01*
X145797739Y-33593709D01*
X145821770Y-33677182D01*
X145835995Y-33791855D01*
X145842789Y-33946771D01*
X145844526Y-34150972D01*
X145844186Y-34256499D01*
X145842478Y-34400699D01*
X145839578Y-34515778D01*
X145835761Y-34591980D01*
X145831302Y-34619549D01*
X145802286Y-34610430D01*
X145743716Y-34585667D01*
X145741958Y-34584865D01*
X145711544Y-34568943D01*
X145691089Y-34547096D01*
X145678617Y-34508830D01*
X145672154Y-34443653D01*
X145669725Y-34341071D01*
X145669354Y-34190591D01*
X145668606Y-34095132D01*
X145660633Y-33915729D01*
X145642375Y-33784321D01*
X145611903Y-33694017D01*
X145567289Y-33637925D01*
X145506603Y-33609152D01*
X145498184Y-33607147D01*
X145384516Y-33605581D01*
X145295869Y-33656506D01*
X145234642Y-33758603D01*
X145223723Y-33788119D01*
X145198835Y-33853441D01*
X145186231Y-33883458D01*
X145160346Y-33879322D01*
X145103816Y-33856875D01*
X145051092Y-33819805D01*
X145027055Y-33749745D01*
X145034224Y-33699564D01*
X145078274Y-33597776D01*
X145149500Y-33502393D01*
X145232792Y-33436427D01*
X145267687Y-33421176D01*
X145399820Y-33395679D01*
X145540102Y-33405777D01*
G37*
X145540102Y-33405777D02*
X145660638Y-33450551D01*
X145710765Y-33484192D01*
X145761529Y-33532394D01*
X145797739Y-33593709D01*
X145821770Y-33677182D01*
X145835995Y-33791855D01*
X145842789Y-33946771D01*
X145844526Y-34150972D01*
X145844186Y-34256499D01*
X145842478Y-34400699D01*
X145839578Y-34515778D01*
X145835761Y-34591980D01*
X145831302Y-34619549D01*
X145802286Y-34610430D01*
X145743716Y-34585667D01*
X145741958Y-34584865D01*
X145711544Y-34568943D01*
X145691089Y-34547096D01*
X145678617Y-34508830D01*
X145672154Y-34443653D01*
X145669725Y-34341071D01*
X145669354Y-34190591D01*
X145668606Y-34095132D01*
X145660633Y-33915729D01*
X145642375Y-33784321D01*
X145611903Y-33694017D01*
X145567289Y-33637925D01*
X145506603Y-33609152D01*
X145498184Y-33607147D01*
X145384516Y-33605581D01*
X145295869Y-33656506D01*
X145234642Y-33758603D01*
X145223723Y-33788119D01*
X145198835Y-33853441D01*
X145186231Y-33883458D01*
X145160346Y-33879322D01*
X145103816Y-33856875D01*
X145051092Y-33819805D01*
X145027055Y-33749745D01*
X145034224Y-33699564D01*
X145078274Y-33597776D01*
X145149500Y-33502393D01*
X145232792Y-33436427D01*
X145267687Y-33421176D01*
X145399820Y-33395679D01*
X145540102Y-33405777D01*
X150394363Y-23934156D02*
X150236371Y-23935021D01*
X150236371Y-23935021D02*
X150122030Y-23937363D01*
X150122030Y-23937363D02*
X150043970Y-23941920D01*
X150043970Y-23941920D02*
X149994823Y-23949428D01*
X149994823Y-23949428D02*
X149967218Y-23960624D01*
X149967218Y-23960624D02*
X149953785Y-23976246D01*
X149953785Y-23976246D02*
X149947156Y-23997031D01*
X149947156Y-23997031D02*
X149946512Y-23999721D01*
X149946512Y-23999721D02*
X149936442Y-24048271D01*
X149936442Y-24048271D02*
X149917802Y-24144063D01*
X149917802Y-24144063D02*
X149892532Y-24276901D01*
X149892532Y-24276901D02*
X149862570Y-24436589D01*
X149862570Y-24436589D02*
X149829855Y-24612932D01*
X149829855Y-24612932D02*
X149828713Y-24619125D01*
X149828713Y-24619125D02*
X149795944Y-24791940D01*
X149795944Y-24791940D02*
X149765284Y-24944627D01*
X149765284Y-24944627D02*
X149738713Y-25068029D01*
X149738713Y-25068029D02*
X149718210Y-25152989D01*
X149718210Y-25152989D02*
X149705751Y-25190348D01*
X149705751Y-25190348D02*
X149705157Y-25191010D01*
X149705157Y-25191010D02*
X149668458Y-25209253D01*
X149668458Y-25209253D02*
X149592791Y-25239655D01*
X149592791Y-25239655D02*
X149494499Y-25275651D01*
X149494499Y-25275651D02*
X149493952Y-25275843D01*
X149493952Y-25275843D02*
X149370144Y-25322380D01*
X149370144Y-25322380D02*
X149224181Y-25381662D01*
X149224181Y-25381662D02*
X149086596Y-25441267D01*
X149086596Y-25441267D02*
X149080084Y-25444214D01*
X149080084Y-25444214D02*
X148855987Y-25545923D01*
X148855987Y-25545923D02*
X148359758Y-25207055D01*
X148359758Y-25207055D02*
X148207531Y-25103750D01*
X148207531Y-25103750D02*
X148069636Y-25011395D01*
X148069636Y-25011395D02*
X147954062Y-24935242D01*
X147954062Y-24935242D02*
X147868798Y-24880543D01*
X147868798Y-24880543D02*
X147821833Y-24852551D01*
X147821833Y-24852551D02*
X147817373Y-24850475D01*
X147817373Y-24850475D02*
X147783243Y-24859718D01*
X147783243Y-24859718D02*
X147719496Y-24904314D01*
X147719496Y-24904314D02*
X147623646Y-24986367D01*
X147623646Y-24986367D02*
X147493208Y-25107979D01*
X147493208Y-25107979D02*
X147360049Y-25237363D01*
X147360049Y-25237363D02*
X147231683Y-25364860D01*
X147231683Y-25364860D02*
X147116796Y-25481204D01*
X147116796Y-25481204D02*
X147022304Y-25579210D01*
X147022304Y-25579210D02*
X146955124Y-25651694D01*
X146955124Y-25651694D02*
X146922171Y-25691471D01*
X146922171Y-25691471D02*
X146920945Y-25693519D01*
X146920945Y-25693519D02*
X146917303Y-25720814D01*
X146917303Y-25720814D02*
X146931027Y-25765392D01*
X146931027Y-25765392D02*
X146965508Y-25833270D01*
X146965508Y-25833270D02*
X147024138Y-25930469D01*
X147024138Y-25930469D02*
X147110307Y-26063009D01*
X147110307Y-26063009D02*
X147225177Y-26233634D01*
X147225177Y-26233634D02*
X147327123Y-26383813D01*
X147327123Y-26383813D02*
X147418254Y-26518508D01*
X147418254Y-26518508D02*
X147493304Y-26629898D01*
X147493304Y-26629898D02*
X147547008Y-26710163D01*
X147547008Y-26710163D02*
X147574097Y-26751483D01*
X147574097Y-26751483D02*
X147575803Y-26754288D01*
X147575803Y-26754288D02*
X147572495Y-26793879D01*
X147572495Y-26793879D02*
X147547424Y-26870827D01*
X147547424Y-26870827D02*
X147505579Y-26970590D01*
X147505579Y-26970590D02*
X147490665Y-27002449D01*
X147490665Y-27002449D02*
X147425591Y-27144384D01*
X147425591Y-27144384D02*
X147356165Y-27305431D01*
X147356165Y-27305431D02*
X147299768Y-27444779D01*
X147299768Y-27444779D02*
X147259130Y-27548202D01*
X147259130Y-27548202D02*
X147226851Y-27626800D01*
X147226851Y-27626800D02*
X147208199Y-27667878D01*
X147208199Y-27667878D02*
X147205880Y-27671043D01*
X147205880Y-27671043D02*
X147171574Y-27676286D01*
X147171574Y-27676286D02*
X147090708Y-27690652D01*
X147090708Y-27690652D02*
X146974034Y-27712095D01*
X146974034Y-27712095D02*
X146832302Y-27738571D01*
X146832302Y-27738571D02*
X146676267Y-27768035D01*
X146676267Y-27768035D02*
X146516679Y-27798441D01*
X146516679Y-27798441D02*
X146364292Y-27827746D01*
X146364292Y-27827746D02*
X146229856Y-27853903D01*
X146229856Y-27853903D02*
X146124125Y-27874868D01*
X146124125Y-27874868D02*
X146057851Y-27888597D01*
X146057851Y-27888597D02*
X146041595Y-27892478D01*
X146041595Y-27892478D02*
X146024804Y-27902058D01*
X146024804Y-27902058D02*
X146012128Y-27923694D01*
X146012128Y-27923694D02*
X146002999Y-27964689D01*
X146002999Y-27964689D02*
X145996846Y-28032347D01*
X145996846Y-28032347D02*
X145993097Y-28133970D01*
X145993097Y-28133970D02*
X145991185Y-28276861D01*
X145991185Y-28276861D02*
X145990537Y-28468323D01*
X145990537Y-28468323D02*
X145990503Y-28546803D01*
X145990503Y-28546803D02*
X145990503Y-29185064D01*
X145990503Y-29185064D02*
X146143779Y-29215318D01*
X146143779Y-29215318D02*
X146229055Y-29231722D01*
X146229055Y-29231722D02*
X146356307Y-29255667D01*
X146356307Y-29255667D02*
X146510062Y-29284265D01*
X146510062Y-29284265D02*
X146674843Y-29314625D01*
X146674843Y-29314625D02*
X146720388Y-29322964D01*
X146720388Y-29322964D02*
X146872445Y-29352528D01*
X146872445Y-29352528D02*
X147004909Y-29381600D01*
X147004909Y-29381600D02*
X147106663Y-29407487D01*
X147106663Y-29407487D02*
X147166589Y-29427495D01*
X147166589Y-29427495D02*
X147176572Y-29433459D01*
X147176572Y-29433459D02*
X147201084Y-29475692D01*
X147201084Y-29475692D02*
X147236229Y-29557528D01*
X147236229Y-29557528D02*
X147275204Y-29662841D01*
X147275204Y-29662841D02*
X147282935Y-29685526D01*
X147282935Y-29685526D02*
X147334017Y-29826176D01*
X147334017Y-29826176D02*
X147397423Y-29984872D01*
X147397423Y-29984872D02*
X147459473Y-30127383D01*
X147459473Y-30127383D02*
X147459779Y-30128044D01*
X147459779Y-30128044D02*
X147563110Y-30351598D01*
X147563110Y-30351598D02*
X146883416Y-31351390D01*
X146883416Y-31351390D02*
X147319756Y-31788458D01*
X147319756Y-31788458D02*
X147451728Y-31918539D01*
X147451728Y-31918539D02*
X147572098Y-32033206D01*
X147572098Y-32033206D02*
X147674104Y-32126339D01*
X147674104Y-32126339D02*
X147750986Y-32191816D01*
X147750986Y-32191816D02*
X147795984Y-32223515D01*
X147795984Y-32223515D02*
X147802439Y-32225526D01*
X147802439Y-32225526D02*
X147840337Y-32209687D01*
X147840337Y-32209687D02*
X147917669Y-32165654D01*
X147917669Y-32165654D02*
X148025988Y-32098648D01*
X148025988Y-32098648D02*
X148156845Y-32013892D01*
X148156845Y-32013892D02*
X148298325Y-31918974D01*
X148298325Y-31918974D02*
X148441916Y-31822156D01*
X148441916Y-31822156D02*
X148569942Y-31737909D01*
X148569942Y-31737909D02*
X148674272Y-31671416D01*
X148674272Y-31671416D02*
X148746777Y-31627860D01*
X148746777Y-31627860D02*
X148779219Y-31612422D01*
X148779219Y-31612422D02*
X148818801Y-31625486D01*
X148818801Y-31625486D02*
X148893858Y-31659908D01*
X148893858Y-31659908D02*
X148988909Y-31708538D01*
X148988909Y-31708538D02*
X148998985Y-31713943D01*
X148998985Y-31713943D02*
X149126986Y-31778138D01*
X149126986Y-31778138D02*
X149214759Y-31809621D01*
X149214759Y-31809621D02*
X149269349Y-31809956D01*
X149269349Y-31809956D02*
X149297802Y-31780706D01*
X149297802Y-31780706D02*
X149297967Y-31780296D01*
X149297967Y-31780296D02*
X149312189Y-31745656D01*
X149312189Y-31745656D02*
X149346108Y-31663427D01*
X149346108Y-31663427D02*
X149397093Y-31539972D01*
X149397093Y-31539972D02*
X149462515Y-31381656D01*
X149462515Y-31381656D02*
X149539743Y-31194844D01*
X149539743Y-31194844D02*
X149626148Y-30985900D01*
X149626148Y-30985900D02*
X149709826Y-30783604D01*
X149709826Y-30783604D02*
X149801789Y-30560358D01*
X149801789Y-30560358D02*
X149886227Y-30353550D01*
X149886227Y-30353550D02*
X149960608Y-30169520D01*
X149960608Y-30169520D02*
X150022403Y-30014609D01*
X150022403Y-30014609D02*
X150069080Y-29895154D01*
X150069080Y-29895154D02*
X150098109Y-29817497D01*
X150098109Y-29817497D02*
X150107055Y-29788514D01*
X150107055Y-29788514D02*
X150084621Y-29755268D01*
X150084621Y-29755268D02*
X150025938Y-29702281D01*
X150025938Y-29702281D02*
X149947688Y-29643862D01*
X149947688Y-29643862D02*
X149724843Y-29459110D01*
X149724843Y-29459110D02*
X149550659Y-29247340D01*
X149550659Y-29247340D02*
X149427223Y-29013014D01*
X149427223Y-29013014D02*
X149356623Y-28760592D01*
X149356623Y-28760592D02*
X149340946Y-28494535D01*
X149340946Y-28494535D02*
X149352341Y-28371733D01*
X149352341Y-28371733D02*
X149414427Y-28116951D01*
X149414427Y-28116951D02*
X149521354Y-27891959D01*
X149521354Y-27891959D02*
X149666488Y-27698975D01*
X149666488Y-27698975D02*
X149843199Y-27540219D01*
X149843199Y-27540219D02*
X150044855Y-27417908D01*
X150044855Y-27417908D02*
X150264823Y-27334263D01*
X150264823Y-27334263D02*
X150496471Y-27291502D01*
X150496471Y-27291502D02*
X150733168Y-27291845D01*
X150733168Y-27291845D02*
X150968282Y-27337510D01*
X150968282Y-27337510D02*
X151195181Y-27430717D01*
X151195181Y-27430717D02*
X151407233Y-27573685D01*
X151407233Y-27573685D02*
X151495741Y-27654541D01*
X151495741Y-27654541D02*
X151665488Y-27862165D01*
X151665488Y-27862165D02*
X151783678Y-28089053D01*
X151783678Y-28089053D02*
X151851099Y-28328591D01*
X151851099Y-28328591D02*
X151868537Y-28574165D01*
X151868537Y-28574165D02*
X151836779Y-28819161D01*
X151836779Y-28819161D02*
X151756612Y-29056966D01*
X151756612Y-29056966D02*
X151628822Y-29280965D01*
X151628822Y-29280965D02*
X151454197Y-29484545D01*
X151454197Y-29484545D02*
X151259065Y-29643862D01*
X151259065Y-29643862D02*
X151177786Y-29704760D01*
X151177786Y-29704760D02*
X151120368Y-29757173D01*
X151120368Y-29757173D02*
X151099699Y-29788564D01*
X151099699Y-29788564D02*
X151110521Y-29822797D01*
X151110521Y-29822797D02*
X151141300Y-29904577D01*
X151141300Y-29904577D02*
X151189503Y-30027565D01*
X151189503Y-30027565D02*
X151252599Y-30185421D01*
X151252599Y-30185421D02*
X151328055Y-30371807D01*
X151328055Y-30371807D02*
X151413339Y-30580384D01*
X151413339Y-30580384D02*
X151497158Y-30783654D01*
X151497158Y-30783654D02*
X151589632Y-31007091D01*
X151589632Y-31007091D02*
X151675288Y-31214142D01*
X151675288Y-31214142D02*
X151751495Y-31398444D01*
X151751495Y-31398444D02*
X151815624Y-31553633D01*
X151815624Y-31553633D02*
X151865045Y-31673346D01*
X151865045Y-31673346D02*
X151897129Y-31751219D01*
X151897129Y-31751219D02*
X151909018Y-31780296D01*
X151909018Y-31780296D02*
X151937103Y-31809835D01*
X151937103Y-31809835D02*
X151991428Y-31809749D01*
X151991428Y-31809749D02*
X152078982Y-31778484D01*
X152078982Y-31778484D02*
X152206758Y-31714487D01*
X152206758Y-31714487D02*
X152207769Y-31713943D01*
X152207769Y-31713943D02*
X152303975Y-31664279D01*
X152303975Y-31664279D02*
X152381746Y-31628103D01*
X152381746Y-31628103D02*
X152425600Y-31612566D01*
X152425600Y-31612566D02*
X152427535Y-31612422D01*
X152427535Y-31612422D02*
X152460548Y-31628182D01*
X152460548Y-31628182D02*
X152533431Y-31672008D01*
X152533431Y-31672008D02*
X152638055Y-31738715D01*
X152638055Y-31738715D02*
X152766287Y-31823122D01*
X152766287Y-31823122D02*
X152908429Y-31918974D01*
X152908429Y-31918974D02*
X153053144Y-32016025D01*
X153053144Y-32016025D02*
X153183573Y-32100428D01*
X153183573Y-32100428D02*
X153291267Y-32166959D01*
X153291267Y-32166959D02*
X153367779Y-32210396D01*
X153367779Y-32210396D02*
X153404315Y-32225526D01*
X153404315Y-32225526D02*
X153437959Y-32205640D01*
X153437959Y-32205640D02*
X153505601Y-32150061D01*
X153505601Y-32150061D02*
X153600484Y-32064912D01*
X153600484Y-32064912D02*
X153715847Y-31956311D01*
X153715847Y-31956311D02*
X153844932Y-31830379D01*
X153844932Y-31830379D02*
X153887148Y-31788307D01*
X153887148Y-31788307D02*
X154323638Y-31351089D01*
X154323638Y-31351089D02*
X153991400Y-30863498D01*
X153991400Y-30863498D02*
X153890431Y-30713763D01*
X153890431Y-30713763D02*
X153801815Y-30579378D01*
X153801815Y-30579378D02*
X153730523Y-30468127D01*
X153730523Y-30468127D02*
X153681527Y-30387797D01*
X153681527Y-30387797D02*
X153659799Y-30346172D01*
X153659799Y-30346172D02*
X153659162Y-30343211D01*
X153659162Y-30343211D02*
X153670617Y-30303976D01*
X153670617Y-30303976D02*
X153701428Y-30225053D01*
X153701428Y-30225053D02*
X153746261Y-30119667D01*
X153746261Y-30119667D02*
X153777730Y-30049112D01*
X153777730Y-30049112D02*
X153836569Y-29914034D01*
X153836569Y-29914034D02*
X153891981Y-29777567D01*
X153891981Y-29777567D02*
X153934941Y-29662261D01*
X153934941Y-29662261D02*
X153946611Y-29627135D01*
X153946611Y-29627135D02*
X153979766Y-29533332D01*
X153979766Y-29533332D02*
X154012176Y-29460852D01*
X154012176Y-29460852D02*
X154029978Y-29433459D01*
X154029978Y-29433459D02*
X154069263Y-29416694D01*
X154069263Y-29416694D02*
X154155003Y-29392928D01*
X154155003Y-29392928D02*
X154276074Y-29364855D01*
X154276074Y-29364855D02*
X154421350Y-29335167D01*
X154421350Y-29335167D02*
X154486365Y-29322964D01*
X154486365Y-29322964D02*
X154651464Y-29292626D01*
X154651464Y-29292626D02*
X154809825Y-29263251D01*
X154809825Y-29263251D02*
X154945973Y-29237727D01*
X154945973Y-29237727D02*
X155044434Y-29218943D01*
X155044434Y-29218943D02*
X155062975Y-29215318D01*
X155062975Y-29215318D02*
X155216250Y-29185064D01*
X155216250Y-29185064D02*
X155216250Y-28546803D01*
X155216250Y-28546803D02*
X155215906Y-28336928D01*
X155215906Y-28336928D02*
X155214493Y-28178138D01*
X155214493Y-28178138D02*
X155211441Y-28063131D01*
X155211441Y-28063131D02*
X155206180Y-27984604D01*
X155206180Y-27984604D02*
X155198140Y-27935254D01*
X155198140Y-27935254D02*
X155186750Y-27907777D01*
X155186750Y-27907777D02*
X155171440Y-27894871D01*
X155171440Y-27894871D02*
X155165159Y-27892478D01*
X155165159Y-27892478D02*
X155127273Y-27883991D01*
X155127273Y-27883991D02*
X155043572Y-27867058D01*
X155043572Y-27867058D02*
X154924810Y-27843724D01*
X154924810Y-27843724D02*
X154781738Y-27816033D01*
X154781738Y-27816033D02*
X154625109Y-27786031D01*
X154625109Y-27786031D02*
X154465674Y-27755762D01*
X154465674Y-27755762D02*
X154314186Y-27727273D01*
X154314186Y-27727273D02*
X154181396Y-27702607D01*
X154181396Y-27702607D02*
X154078058Y-27683809D01*
X154078058Y-27683809D02*
X154014922Y-27672925D01*
X154014922Y-27672925D02*
X154000874Y-27671043D01*
X154000874Y-27671043D02*
X153988147Y-27645862D01*
X153988147Y-27645862D02*
X153959977Y-27578780D01*
X153959977Y-27578780D02*
X153921629Y-27482491D01*
X153921629Y-27482491D02*
X153906986Y-27444779D01*
X153906986Y-27444779D02*
X153847925Y-27299079D01*
X153847925Y-27299079D02*
X153778377Y-27138109D01*
X153778377Y-27138109D02*
X153716089Y-27002449D01*
X153716089Y-27002449D02*
X153670256Y-26898719D01*
X153670256Y-26898719D02*
X153639764Y-26813484D01*
X153639764Y-26813484D02*
X153629585Y-26761284D01*
X153629585Y-26761284D02*
X153631208Y-26754288D01*
X153631208Y-26754288D02*
X153652720Y-26721260D01*
X153652720Y-26721260D02*
X153701842Y-26647801D01*
X153701842Y-26647801D02*
X153773300Y-26541735D01*
X153773300Y-26541735D02*
X153861822Y-26410884D01*
X153861822Y-26410884D02*
X153962136Y-26263070D01*
X153962136Y-26263070D02*
X153981971Y-26233892D01*
X153981971Y-26233892D02*
X154098365Y-26061021D01*
X154098365Y-26061021D02*
X154183925Y-25929384D01*
X154183925Y-25929384D02*
X154242061Y-25832919D01*
X154242061Y-25832919D02*
X154276185Y-25765566D01*
X154276185Y-25765566D02*
X154289708Y-25721264D01*
X154289708Y-25721264D02*
X154286041Y-25693952D01*
X154286041Y-25693952D02*
X154285947Y-25693778D01*
X154285947Y-25693778D02*
X154257084Y-25657904D01*
X154257084Y-25657904D02*
X154193244Y-25588549D01*
X154193244Y-25588549D02*
X154101346Y-25492903D01*
X154101346Y-25492903D02*
X153988310Y-25378157D01*
X153988310Y-25378157D02*
X153861056Y-25251499D01*
X153861056Y-25251499D02*
X153846705Y-25237363D01*
X153846705Y-25237363D02*
X153686334Y-25082061D01*
X153686334Y-25082061D02*
X153562572Y-24968028D01*
X153562572Y-24968028D02*
X153472932Y-24893160D01*
X153472932Y-24893160D02*
X153414929Y-24855354D01*
X153414929Y-24855354D02*
X153389381Y-24850475D01*
X153389381Y-24850475D02*
X153352095Y-24871761D01*
X153352095Y-24871761D02*
X153274720Y-24920931D01*
X153274720Y-24920931D02*
X153165244Y-24992733D01*
X153165244Y-24992733D02*
X153031657Y-25081913D01*
X153031657Y-25081913D02*
X152881947Y-25183221D01*
X152881947Y-25183221D02*
X152846995Y-25207055D01*
X152846995Y-25207055D02*
X152350767Y-25545923D01*
X152350767Y-25545923D02*
X152126670Y-25444214D01*
X152126670Y-25444214D02*
X151990388Y-25384941D01*
X151990388Y-25384941D02*
X151844101Y-25325328D01*
X151844101Y-25325328D02*
X151718342Y-25277798D01*
X151718342Y-25277798D02*
X151712802Y-25275843D01*
X151712802Y-25275843D02*
X151614434Y-25239835D01*
X151614434Y-25239835D02*
X151538606Y-25209387D01*
X151538606Y-25209387D02*
X151501659Y-25191063D01*
X151501659Y-25191063D02*
X151501597Y-25191010D01*
X151501597Y-25191010D02*
X151489873Y-25157887D01*
X151489873Y-25157887D02*
X151469945Y-25076425D01*
X151469945Y-25076425D02*
X151443790Y-24955783D01*
X151443790Y-24955783D02*
X151413387Y-24805117D01*
X151413387Y-24805117D02*
X151380714Y-24633586D01*
X151380714Y-24633586D02*
X151378041Y-24619125D01*
X151378041Y-24619125D02*
X151345267Y-24442393D01*
X151345267Y-24442393D02*
X151315179Y-24281968D01*
X151315179Y-24281968D02*
X151289716Y-24148046D01*
X151289716Y-24148046D02*
X151270818Y-24050821D01*
X151270818Y-24050821D02*
X151260424Y-24000490D01*
X151260424Y-24000490D02*
X151260242Y-23999721D01*
X151260242Y-23999721D02*
X151253916Y-23978311D01*
X151253916Y-23978311D02*
X151241616Y-23962146D01*
X151241616Y-23962146D02*
X151215971Y-23950489D01*
X151215971Y-23950489D02*
X151169612Y-23942603D01*
X151169612Y-23942603D02*
X151095169Y-23937751D01*
X151095169Y-23937751D02*
X150985272Y-23935197D01*
X150985272Y-23935197D02*
X150832552Y-23934203D01*
X150832552Y-23934203D02*
X150629639Y-23934032D01*
X150629639Y-23934032D02*
X150603377Y-23934032D01*
X150603377Y-23934032D02*
X150394363Y-23934156D01*
X150394363Y-23934156D02*
X150394363Y-23934156D01*
G36*
X150832552Y-23934203D02*
G01*
X150985272Y-23935197D01*
X151095169Y-23937751D01*
X151169612Y-23942603D01*
X151215971Y-23950489D01*
X151241616Y-23962146D01*
X151253916Y-23978311D01*
X151260242Y-23999721D01*
X151260424Y-24000490D01*
X151270818Y-24050821D01*
X151289716Y-24148046D01*
X151315179Y-24281968D01*
X151345267Y-24442393D01*
X151378041Y-24619125D01*
X151380714Y-24633586D01*
X151413387Y-24805117D01*
X151443790Y-24955783D01*
X151469945Y-25076425D01*
X151489873Y-25157887D01*
X151501597Y-25191010D01*
X151501659Y-25191063D01*
X151538606Y-25209387D01*
X151614434Y-25239835D01*
X151712802Y-25275843D01*
X151718342Y-25277798D01*
X151844101Y-25325328D01*
X151990388Y-25384941D01*
X152126670Y-25444214D01*
X152350767Y-25545923D01*
X152846995Y-25207055D01*
X152881947Y-25183221D01*
X153031657Y-25081913D01*
X153165244Y-24992733D01*
X153274720Y-24920931D01*
X153352095Y-24871761D01*
X153389381Y-24850475D01*
X153414929Y-24855354D01*
X153472932Y-24893160D01*
X153562572Y-24968028D01*
X153686334Y-25082061D01*
X153846705Y-25237363D01*
X153861056Y-25251499D01*
X153988310Y-25378157D01*
X154101346Y-25492903D01*
X154193244Y-25588549D01*
X154257084Y-25657904D01*
X154285947Y-25693778D01*
X154286041Y-25693952D01*
X154289708Y-25721264D01*
X154276185Y-25765566D01*
X154242061Y-25832919D01*
X154183925Y-25929384D01*
X154098365Y-26061021D01*
X153981971Y-26233892D01*
X153962136Y-26263070D01*
X153861822Y-26410884D01*
X153773300Y-26541735D01*
X153701842Y-26647801D01*
X153652720Y-26721260D01*
X153631208Y-26754288D01*
X153629585Y-26761284D01*
X153639764Y-26813484D01*
X153670256Y-26898719D01*
X153716089Y-27002449D01*
X153778377Y-27138109D01*
X153847925Y-27299079D01*
X153906986Y-27444779D01*
X153921629Y-27482491D01*
X153959977Y-27578780D01*
X153988147Y-27645862D01*
X154000874Y-27671043D01*
X154014922Y-27672925D01*
X154078058Y-27683809D01*
X154181396Y-27702607D01*
X154314186Y-27727273D01*
X154465674Y-27755762D01*
X154625109Y-27786031D01*
X154781738Y-27816033D01*
X154924810Y-27843724D01*
X155043572Y-27867058D01*
X155127273Y-27883991D01*
X155165159Y-27892478D01*
X155171440Y-27894871D01*
X155186750Y-27907777D01*
X155198140Y-27935254D01*
X155206180Y-27984604D01*
X155211441Y-28063131D01*
X155214493Y-28178138D01*
X155215906Y-28336928D01*
X155216250Y-28546803D01*
X155216250Y-29185064D01*
X155062975Y-29215318D01*
X155044434Y-29218943D01*
X154945973Y-29237727D01*
X154809825Y-29263251D01*
X154651464Y-29292626D01*
X154486365Y-29322964D01*
X154421350Y-29335167D01*
X154276074Y-29364855D01*
X154155003Y-29392928D01*
X154069263Y-29416694D01*
X154029978Y-29433459D01*
X154012176Y-29460852D01*
X153979766Y-29533332D01*
X153946611Y-29627135D01*
X153934941Y-29662261D01*
X153891981Y-29777567D01*
X153836569Y-29914034D01*
X153777730Y-30049112D01*
X153746261Y-30119667D01*
X153701428Y-30225053D01*
X153670617Y-30303976D01*
X153659162Y-30343211D01*
X153659799Y-30346172D01*
X153681527Y-30387797D01*
X153730523Y-30468127D01*
X153801815Y-30579378D01*
X153890431Y-30713763D01*
X153991400Y-30863498D01*
X154323638Y-31351089D01*
X153887148Y-31788307D01*
X153844932Y-31830379D01*
X153715847Y-31956311D01*
X153600484Y-32064912D01*
X153505601Y-32150061D01*
X153437959Y-32205640D01*
X153404315Y-32225526D01*
X153367779Y-32210396D01*
X153291267Y-32166959D01*
X153183573Y-32100428D01*
X153053144Y-32016025D01*
X152908429Y-31918974D01*
X152766287Y-31823122D01*
X152638055Y-31738715D01*
X152533431Y-31672008D01*
X152460548Y-31628182D01*
X152427535Y-31612422D01*
X152425600Y-31612566D01*
X152381746Y-31628103D01*
X152303975Y-31664279D01*
X152207769Y-31713943D01*
X152206758Y-31714487D01*
X152078982Y-31778484D01*
X151991428Y-31809749D01*
X151937103Y-31809835D01*
X151909018Y-31780296D01*
X151897129Y-31751219D01*
X151865045Y-31673346D01*
X151815624Y-31553633D01*
X151751495Y-31398444D01*
X151675288Y-31214142D01*
X151589632Y-31007091D01*
X151497158Y-30783654D01*
X151413339Y-30580384D01*
X151328055Y-30371807D01*
X151252599Y-30185421D01*
X151189503Y-30027565D01*
X151141300Y-29904577D01*
X151110521Y-29822797D01*
X151099699Y-29788564D01*
X151120368Y-29757173D01*
X151177786Y-29704760D01*
X151259065Y-29643862D01*
X151454197Y-29484545D01*
X151628822Y-29280965D01*
X151756612Y-29056966D01*
X151836779Y-28819161D01*
X151868537Y-28574165D01*
X151851099Y-28328591D01*
X151783678Y-28089053D01*
X151665488Y-27862165D01*
X151495741Y-27654541D01*
X151407233Y-27573685D01*
X151195181Y-27430717D01*
X150968282Y-27337510D01*
X150733168Y-27291845D01*
X150496471Y-27291502D01*
X150264823Y-27334263D01*
X150044855Y-27417908D01*
X149843199Y-27540219D01*
X149666488Y-27698975D01*
X149521354Y-27891959D01*
X149414427Y-28116951D01*
X149352341Y-28371733D01*
X149340946Y-28494535D01*
X149356623Y-28760592D01*
X149427223Y-29013014D01*
X149550659Y-29247340D01*
X149724843Y-29459110D01*
X149947688Y-29643862D01*
X150025938Y-29702281D01*
X150084621Y-29755268D01*
X150107055Y-29788514D01*
X150098109Y-29817497D01*
X150069080Y-29895154D01*
X150022403Y-30014609D01*
X149960608Y-30169520D01*
X149886227Y-30353550D01*
X149801789Y-30560358D01*
X149709826Y-30783604D01*
X149626148Y-30985900D01*
X149539743Y-31194844D01*
X149462515Y-31381656D01*
X149397093Y-31539972D01*
X149346108Y-31663427D01*
X149312189Y-31745656D01*
X149297967Y-31780296D01*
X149297802Y-31780706D01*
X149269349Y-31809956D01*
X149214759Y-31809621D01*
X149126986Y-31778138D01*
X148998985Y-31713943D01*
X148988909Y-31708538D01*
X148893858Y-31659908D01*
X148818801Y-31625486D01*
X148779219Y-31612422D01*
X148746777Y-31627860D01*
X148674272Y-31671416D01*
X148569942Y-31737909D01*
X148441916Y-31822156D01*
X148298325Y-31918974D01*
X148156845Y-32013892D01*
X148025988Y-32098648D01*
X147917669Y-32165654D01*
X147840337Y-32209687D01*
X147802439Y-32225526D01*
X147795984Y-32223515D01*
X147750986Y-32191816D01*
X147674104Y-32126339D01*
X147572098Y-32033206D01*
X147451728Y-31918539D01*
X147319756Y-31788458D01*
X146883416Y-31351390D01*
X147563110Y-30351598D01*
X147459779Y-30128044D01*
X147459473Y-30127383D01*
X147397423Y-29984872D01*
X147334017Y-29826176D01*
X147282935Y-29685526D01*
X147275204Y-29662841D01*
X147236229Y-29557528D01*
X147201084Y-29475692D01*
X147176572Y-29433459D01*
X147166589Y-29427495D01*
X147106663Y-29407487D01*
X147004909Y-29381600D01*
X146872445Y-29352528D01*
X146720388Y-29322964D01*
X146674843Y-29314625D01*
X146510062Y-29284265D01*
X146356307Y-29255667D01*
X146229055Y-29231722D01*
X146143779Y-29215318D01*
X145990503Y-29185064D01*
X145990503Y-28546803D01*
X145990537Y-28468323D01*
X145991185Y-28276861D01*
X145993097Y-28133970D01*
X145996846Y-28032347D01*
X146002999Y-27964689D01*
X146012128Y-27923694D01*
X146024804Y-27902058D01*
X146041595Y-27892478D01*
X146057851Y-27888597D01*
X146124125Y-27874868D01*
X146229856Y-27853903D01*
X146364292Y-27827746D01*
X146516679Y-27798441D01*
X146676267Y-27768035D01*
X146832302Y-27738571D01*
X146974034Y-27712095D01*
X147090708Y-27690652D01*
X147171574Y-27676286D01*
X147205880Y-27671043D01*
X147208199Y-27667878D01*
X147226851Y-27626800D01*
X147259130Y-27548202D01*
X147299768Y-27444779D01*
X147356165Y-27305431D01*
X147425591Y-27144384D01*
X147490665Y-27002449D01*
X147505579Y-26970590D01*
X147547424Y-26870827D01*
X147572495Y-26793879D01*
X147575803Y-26754288D01*
X147574097Y-26751483D01*
X147547008Y-26710163D01*
X147493304Y-26629898D01*
X147418254Y-26518508D01*
X147327123Y-26383813D01*
X147225177Y-26233634D01*
X147110307Y-26063009D01*
X147024138Y-25930469D01*
X146965508Y-25833270D01*
X146931027Y-25765392D01*
X146917303Y-25720814D01*
X146920945Y-25693519D01*
X146922171Y-25691471D01*
X146955124Y-25651694D01*
X147022304Y-25579210D01*
X147116796Y-25481204D01*
X147231683Y-25364860D01*
X147360049Y-25237363D01*
X147493208Y-25107979D01*
X147623646Y-24986367D01*
X147719496Y-24904314D01*
X147783243Y-24859718D01*
X147817373Y-24850475D01*
X147821833Y-24852551D01*
X147868798Y-24880543D01*
X147954062Y-24935242D01*
X148069636Y-25011395D01*
X148207531Y-25103750D01*
X148359758Y-25207055D01*
X148855987Y-25545923D01*
X149080084Y-25444214D01*
X149086596Y-25441267D01*
X149224181Y-25381662D01*
X149370144Y-25322380D01*
X149493952Y-25275843D01*
X149494499Y-25275651D01*
X149592791Y-25239655D01*
X149668458Y-25209253D01*
X149705157Y-25191010D01*
X149705751Y-25190348D01*
X149718210Y-25152989D01*
X149738713Y-25068029D01*
X149765284Y-24944627D01*
X149795944Y-24791940D01*
X149828713Y-24619125D01*
X149829855Y-24612932D01*
X149862570Y-24436589D01*
X149892532Y-24276901D01*
X149917802Y-24144063D01*
X149936442Y-24048271D01*
X149946512Y-23999721D01*
X149947156Y-23997031D01*
X149953785Y-23976246D01*
X149967218Y-23960624D01*
X149994823Y-23949428D01*
X150043970Y-23941920D01*
X150122030Y-23937363D01*
X150236371Y-23935021D01*
X150394363Y-23934156D01*
X150603377Y-23934032D01*
X150629639Y-23934032D01*
X150832552Y-23934203D01*
G37*
X150832552Y-23934203D02*
X150985272Y-23935197D01*
X151095169Y-23937751D01*
X151169612Y-23942603D01*
X151215971Y-23950489D01*
X151241616Y-23962146D01*
X151253916Y-23978311D01*
X151260242Y-23999721D01*
X151260424Y-24000490D01*
X151270818Y-24050821D01*
X151289716Y-24148046D01*
X151315179Y-24281968D01*
X151345267Y-24442393D01*
X151378041Y-24619125D01*
X151380714Y-24633586D01*
X151413387Y-24805117D01*
X151443790Y-24955783D01*
X151469945Y-25076425D01*
X151489873Y-25157887D01*
X151501597Y-25191010D01*
X151501659Y-25191063D01*
X151538606Y-25209387D01*
X151614434Y-25239835D01*
X151712802Y-25275843D01*
X151718342Y-25277798D01*
X151844101Y-25325328D01*
X151990388Y-25384941D01*
X152126670Y-25444214D01*
X152350767Y-25545923D01*
X152846995Y-25207055D01*
X152881947Y-25183221D01*
X153031657Y-25081913D01*
X153165244Y-24992733D01*
X153274720Y-24920931D01*
X153352095Y-24871761D01*
X153389381Y-24850475D01*
X153414929Y-24855354D01*
X153472932Y-24893160D01*
X153562572Y-24968028D01*
X153686334Y-25082061D01*
X153846705Y-25237363D01*
X153861056Y-25251499D01*
X153988310Y-25378157D01*
X154101346Y-25492903D01*
X154193244Y-25588549D01*
X154257084Y-25657904D01*
X154285947Y-25693778D01*
X154286041Y-25693952D01*
X154289708Y-25721264D01*
X154276185Y-25765566D01*
X154242061Y-25832919D01*
X154183925Y-25929384D01*
X154098365Y-26061021D01*
X153981971Y-26233892D01*
X153962136Y-26263070D01*
X153861822Y-26410884D01*
X153773300Y-26541735D01*
X153701842Y-26647801D01*
X153652720Y-26721260D01*
X153631208Y-26754288D01*
X153629585Y-26761284D01*
X153639764Y-26813484D01*
X153670256Y-26898719D01*
X153716089Y-27002449D01*
X153778377Y-27138109D01*
X153847925Y-27299079D01*
X153906986Y-27444779D01*
X153921629Y-27482491D01*
X153959977Y-27578780D01*
X153988147Y-27645862D01*
X154000874Y-27671043D01*
X154014922Y-27672925D01*
X154078058Y-27683809D01*
X154181396Y-27702607D01*
X154314186Y-27727273D01*
X154465674Y-27755762D01*
X154625109Y-27786031D01*
X154781738Y-27816033D01*
X154924810Y-27843724D01*
X155043572Y-27867058D01*
X155127273Y-27883991D01*
X155165159Y-27892478D01*
X155171440Y-27894871D01*
X155186750Y-27907777D01*
X155198140Y-27935254D01*
X155206180Y-27984604D01*
X155211441Y-28063131D01*
X155214493Y-28178138D01*
X155215906Y-28336928D01*
X155216250Y-28546803D01*
X155216250Y-29185064D01*
X155062975Y-29215318D01*
X155044434Y-29218943D01*
X154945973Y-29237727D01*
X154809825Y-29263251D01*
X154651464Y-29292626D01*
X154486365Y-29322964D01*
X154421350Y-29335167D01*
X154276074Y-29364855D01*
X154155003Y-29392928D01*
X154069263Y-29416694D01*
X154029978Y-29433459D01*
X154012176Y-29460852D01*
X153979766Y-29533332D01*
X153946611Y-29627135D01*
X153934941Y-29662261D01*
X153891981Y-29777567D01*
X153836569Y-29914034D01*
X153777730Y-30049112D01*
X153746261Y-30119667D01*
X153701428Y-30225053D01*
X153670617Y-30303976D01*
X153659162Y-30343211D01*
X153659799Y-30346172D01*
X153681527Y-30387797D01*
X153730523Y-30468127D01*
X153801815Y-30579378D01*
X153890431Y-30713763D01*
X153991400Y-30863498D01*
X154323638Y-31351089D01*
X153887148Y-31788307D01*
X153844932Y-31830379D01*
X153715847Y-31956311D01*
X153600484Y-32064912D01*
X153505601Y-32150061D01*
X153437959Y-32205640D01*
X153404315Y-32225526D01*
X153367779Y-32210396D01*
X153291267Y-32166959D01*
X153183573Y-32100428D01*
X153053144Y-32016025D01*
X152908429Y-31918974D01*
X152766287Y-31823122D01*
X152638055Y-31738715D01*
X152533431Y-31672008D01*
X152460548Y-31628182D01*
X152427535Y-31612422D01*
X152425600Y-31612566D01*
X152381746Y-31628103D01*
X152303975Y-31664279D01*
X152207769Y-31713943D01*
X152206758Y-31714487D01*
X152078982Y-31778484D01*
X151991428Y-31809749D01*
X151937103Y-31809835D01*
X151909018Y-31780296D01*
X151897129Y-31751219D01*
X151865045Y-31673346D01*
X151815624Y-31553633D01*
X151751495Y-31398444D01*
X151675288Y-31214142D01*
X151589632Y-31007091D01*
X151497158Y-30783654D01*
X151413339Y-30580384D01*
X151328055Y-30371807D01*
X151252599Y-30185421D01*
X151189503Y-30027565D01*
X151141300Y-29904577D01*
X151110521Y-29822797D01*
X151099699Y-29788564D01*
X151120368Y-29757173D01*
X151177786Y-29704760D01*
X151259065Y-29643862D01*
X151454197Y-29484545D01*
X151628822Y-29280965D01*
X151756612Y-29056966D01*
X151836779Y-28819161D01*
X151868537Y-28574165D01*
X151851099Y-28328591D01*
X151783678Y-28089053D01*
X151665488Y-27862165D01*
X151495741Y-27654541D01*
X151407233Y-27573685D01*
X151195181Y-27430717D01*
X150968282Y-27337510D01*
X150733168Y-27291845D01*
X150496471Y-27291502D01*
X150264823Y-27334263D01*
X150044855Y-27417908D01*
X149843199Y-27540219D01*
X149666488Y-27698975D01*
X149521354Y-27891959D01*
X149414427Y-28116951D01*
X149352341Y-28371733D01*
X149340946Y-28494535D01*
X149356623Y-28760592D01*
X149427223Y-29013014D01*
X149550659Y-29247340D01*
X149724843Y-29459110D01*
X149947688Y-29643862D01*
X150025938Y-29702281D01*
X150084621Y-29755268D01*
X150107055Y-29788514D01*
X150098109Y-29817497D01*
X150069080Y-29895154D01*
X150022403Y-30014609D01*
X149960608Y-30169520D01*
X149886227Y-30353550D01*
X149801789Y-30560358D01*
X149709826Y-30783604D01*
X149626148Y-30985900D01*
X149539743Y-31194844D01*
X149462515Y-31381656D01*
X149397093Y-31539972D01*
X149346108Y-31663427D01*
X149312189Y-31745656D01*
X149297967Y-31780296D01*
X149297802Y-31780706D01*
X149269349Y-31809956D01*
X149214759Y-31809621D01*
X149126986Y-31778138D01*
X148998985Y-31713943D01*
X148988909Y-31708538D01*
X148893858Y-31659908D01*
X148818801Y-31625486D01*
X148779219Y-31612422D01*
X148746777Y-31627860D01*
X148674272Y-31671416D01*
X148569942Y-31737909D01*
X148441916Y-31822156D01*
X148298325Y-31918974D01*
X148156845Y-32013892D01*
X148025988Y-32098648D01*
X147917669Y-32165654D01*
X147840337Y-32209687D01*
X147802439Y-32225526D01*
X147795984Y-32223515D01*
X147750986Y-32191816D01*
X147674104Y-32126339D01*
X147572098Y-32033206D01*
X147451728Y-31918539D01*
X147319756Y-31788458D01*
X146883416Y-31351390D01*
X147563110Y-30351598D01*
X147459779Y-30128044D01*
X147459473Y-30127383D01*
X147397423Y-29984872D01*
X147334017Y-29826176D01*
X147282935Y-29685526D01*
X147275204Y-29662841D01*
X147236229Y-29557528D01*
X147201084Y-29475692D01*
X147176572Y-29433459D01*
X147166589Y-29427495D01*
X147106663Y-29407487D01*
X147004909Y-29381600D01*
X146872445Y-29352528D01*
X146720388Y-29322964D01*
X146674843Y-29314625D01*
X146510062Y-29284265D01*
X146356307Y-29255667D01*
X146229055Y-29231722D01*
X146143779Y-29215318D01*
X145990503Y-29185064D01*
X145990503Y-28546803D01*
X145990537Y-28468323D01*
X145991185Y-28276861D01*
X145993097Y-28133970D01*
X145996846Y-28032347D01*
X146002999Y-27964689D01*
X146012128Y-27923694D01*
X146024804Y-27902058D01*
X146041595Y-27892478D01*
X146057851Y-27888597D01*
X146124125Y-27874868D01*
X146229856Y-27853903D01*
X146364292Y-27827746D01*
X146516679Y-27798441D01*
X146676267Y-27768035D01*
X146832302Y-27738571D01*
X146974034Y-27712095D01*
X147090708Y-27690652D01*
X147171574Y-27676286D01*
X147205880Y-27671043D01*
X147208199Y-27667878D01*
X147226851Y-27626800D01*
X147259130Y-27548202D01*
X147299768Y-27444779D01*
X147356165Y-27305431D01*
X147425591Y-27144384D01*
X147490665Y-27002449D01*
X147505579Y-26970590D01*
X147547424Y-26870827D01*
X147572495Y-26793879D01*
X147575803Y-26754288D01*
X147574097Y-26751483D01*
X147547008Y-26710163D01*
X147493304Y-26629898D01*
X147418254Y-26518508D01*
X147327123Y-26383813D01*
X147225177Y-26233634D01*
X147110307Y-26063009D01*
X147024138Y-25930469D01*
X146965508Y-25833270D01*
X146931027Y-25765392D01*
X146917303Y-25720814D01*
X146920945Y-25693519D01*
X146922171Y-25691471D01*
X146955124Y-25651694D01*
X147022304Y-25579210D01*
X147116796Y-25481204D01*
X147231683Y-25364860D01*
X147360049Y-25237363D01*
X147493208Y-25107979D01*
X147623646Y-24986367D01*
X147719496Y-24904314D01*
X147783243Y-24859718D01*
X147817373Y-24850475D01*
X147821833Y-24852551D01*
X147868798Y-24880543D01*
X147954062Y-24935242D01*
X148069636Y-25011395D01*
X148207531Y-25103750D01*
X148359758Y-25207055D01*
X148855987Y-25545923D01*
X149080084Y-25444214D01*
X149086596Y-25441267D01*
X149224181Y-25381662D01*
X149370144Y-25322380D01*
X149493952Y-25275843D01*
X149494499Y-25275651D01*
X149592791Y-25239655D01*
X149668458Y-25209253D01*
X149705157Y-25191010D01*
X149705751Y-25190348D01*
X149718210Y-25152989D01*
X149738713Y-25068029D01*
X149765284Y-24944627D01*
X149795944Y-24791940D01*
X149828713Y-24619125D01*
X149829855Y-24612932D01*
X149862570Y-24436589D01*
X149892532Y-24276901D01*
X149917802Y-24144063D01*
X149936442Y-24048271D01*
X149946512Y-23999721D01*
X149947156Y-23997031D01*
X149953785Y-23976246D01*
X149967218Y-23960624D01*
X149994823Y-23949428D01*
X150043970Y-23941920D01*
X150122030Y-23937363D01*
X150236371Y-23935021D01*
X150394363Y-23934156D01*
X150603377Y-23934032D01*
X150629639Y-23934032D01*
X150832552Y-23934203D01*
X154287825Y-33365834D02*
X154172719Y-33443269D01*
X154172719Y-33443269D02*
X154083766Y-33555107D01*
X154083766Y-33555107D02*
X154030628Y-33697423D01*
X154030628Y-33697423D02*
X154019880Y-33802173D01*
X154019880Y-33802173D02*
X154021101Y-33845884D01*
X154021101Y-33845884D02*
X154031321Y-33879352D01*
X154031321Y-33879352D02*
X154059416Y-33909337D01*
X154059416Y-33909337D02*
X154114261Y-33942598D01*
X154114261Y-33942598D02*
X154204732Y-33985896D01*
X154204732Y-33985896D02*
X154339705Y-34045991D01*
X154339705Y-34045991D02*
X154340388Y-34046292D01*
X154340388Y-34046292D02*
X154464626Y-34103195D01*
X154464626Y-34103195D02*
X154566504Y-34153723D01*
X154566504Y-34153723D02*
X154635610Y-34192438D01*
X154635610Y-34192438D02*
X154661531Y-34213898D01*
X154661531Y-34213898D02*
X154661538Y-34214071D01*
X154661538Y-34214071D02*
X154638692Y-34260802D01*
X154638692Y-34260802D02*
X154585268Y-34312312D01*
X154585268Y-34312312D02*
X154523935Y-34349419D01*
X154523935Y-34349419D02*
X154492862Y-34356790D01*
X154492862Y-34356790D02*
X154408088Y-34331296D01*
X154408088Y-34331296D02*
X154335084Y-34267449D01*
X154335084Y-34267449D02*
X154299464Y-34197252D01*
X154299464Y-34197252D02*
X154265197Y-34145501D01*
X154265197Y-34145501D02*
X154198074Y-34086567D01*
X154198074Y-34086567D02*
X154119169Y-34035654D01*
X154119169Y-34035654D02*
X154049556Y-34007967D01*
X154049556Y-34007967D02*
X154035000Y-34006445D01*
X154035000Y-34006445D02*
X154018614Y-34031479D01*
X154018614Y-34031479D02*
X154017627Y-34095469D01*
X154017627Y-34095469D02*
X154029669Y-34181751D01*
X154029669Y-34181751D02*
X154052370Y-34273659D01*
X154052370Y-34273659D02*
X154083363Y-34354527D01*
X154083363Y-34354527D02*
X154084929Y-34357667D01*
X154084929Y-34357667D02*
X154178196Y-34487892D01*
X154178196Y-34487892D02*
X154299073Y-34576469D01*
X154299073Y-34576469D02*
X154436350Y-34619944D01*
X154436350Y-34619944D02*
X154578817Y-34614864D01*
X154578817Y-34614864D02*
X154715265Y-34557774D01*
X154715265Y-34557774D02*
X154721332Y-34553760D01*
X154721332Y-34553760D02*
X154828667Y-34456484D01*
X154828667Y-34456484D02*
X154899245Y-34329567D01*
X154899245Y-34329567D02*
X154938303Y-34162684D01*
X154938303Y-34162684D02*
X154943545Y-34115797D01*
X154943545Y-34115797D02*
X154952829Y-33894487D01*
X154952829Y-33894487D02*
X154941699Y-33791282D01*
X154941699Y-33791282D02*
X154661538Y-33791282D01*
X154661538Y-33791282D02*
X154657898Y-33855661D01*
X154657898Y-33855661D02*
X154637988Y-33874449D01*
X154637988Y-33874449D02*
X154588351Y-33860393D01*
X154588351Y-33860393D02*
X154510110Y-33827167D01*
X154510110Y-33827167D02*
X154422651Y-33785517D01*
X154422651Y-33785517D02*
X154420478Y-33784414D01*
X154420478Y-33784414D02*
X154346347Y-33745423D01*
X154346347Y-33745423D02*
X154316596Y-33719402D01*
X154316596Y-33719402D02*
X154323932Y-33692123D01*
X154323932Y-33692123D02*
X154354824Y-33656279D01*
X154354824Y-33656279D02*
X154433417Y-33604409D01*
X154433417Y-33604409D02*
X154518054Y-33600597D01*
X154518054Y-33600597D02*
X154593974Y-33638347D01*
X154593974Y-33638347D02*
X154646412Y-33711159D01*
X154646412Y-33711159D02*
X154661538Y-33791282D01*
X154661538Y-33791282D02*
X154941699Y-33791282D01*
X154941699Y-33791282D02*
X154933733Y-33717419D01*
X154933733Y-33717419D02*
X154884743Y-33576987D01*
X154884743Y-33576987D02*
X154816541Y-33478605D01*
X154816541Y-33478605D02*
X154693442Y-33379188D01*
X154693442Y-33379188D02*
X154557849Y-33329869D01*
X154557849Y-33329869D02*
X154419422Y-33326726D01*
X154419422Y-33326726D02*
X154287825Y-33365834D01*
X154287825Y-33365834D02*
X154287825Y-33365834D01*
G36*
X154943545Y-34115797D02*
G01*
X154938303Y-34162684D01*
X154899245Y-34329567D01*
X154828667Y-34456484D01*
X154721332Y-34553760D01*
X154715265Y-34557774D01*
X154578817Y-34614864D01*
X154436350Y-34619944D01*
X154299073Y-34576469D01*
X154178196Y-34487892D01*
X154084929Y-34357667D01*
X154083363Y-34354527D01*
X154052370Y-34273659D01*
X154029669Y-34181751D01*
X154017627Y-34095469D01*
X154018614Y-34031479D01*
X154035000Y-34006445D01*
X154049556Y-34007967D01*
X154119169Y-34035654D01*
X154198074Y-34086567D01*
X154265197Y-34145501D01*
X154299464Y-34197252D01*
X154335084Y-34267449D01*
X154408088Y-34331296D01*
X154492862Y-34356790D01*
X154523935Y-34349419D01*
X154585268Y-34312312D01*
X154638692Y-34260802D01*
X154661538Y-34214071D01*
X154661531Y-34213898D01*
X154635610Y-34192438D01*
X154566504Y-34153723D01*
X154464626Y-34103195D01*
X154340388Y-34046292D01*
X154339705Y-34045991D01*
X154204732Y-33985896D01*
X154114261Y-33942598D01*
X154059416Y-33909337D01*
X154031321Y-33879352D01*
X154021101Y-33845884D01*
X154019880Y-33802173D01*
X154028373Y-33719402D01*
X154316596Y-33719402D01*
X154346347Y-33745423D01*
X154420478Y-33784414D01*
X154422651Y-33785517D01*
X154510110Y-33827167D01*
X154588351Y-33860393D01*
X154637988Y-33874449D01*
X154657898Y-33855661D01*
X154661538Y-33791282D01*
X154646412Y-33711159D01*
X154593974Y-33638347D01*
X154518054Y-33600597D01*
X154433417Y-33604409D01*
X154354824Y-33656279D01*
X154323932Y-33692123D01*
X154316596Y-33719402D01*
X154028373Y-33719402D01*
X154030628Y-33697423D01*
X154083766Y-33555107D01*
X154172719Y-33443269D01*
X154287825Y-33365834D01*
X154419422Y-33326726D01*
X154557849Y-33329869D01*
X154693442Y-33379188D01*
X154816541Y-33478605D01*
X154884743Y-33576987D01*
X154933733Y-33717419D01*
X154941699Y-33791282D01*
X154952829Y-33894487D01*
X154943545Y-34115797D01*
G37*
X154943545Y-34115797D02*
X154938303Y-34162684D01*
X154899245Y-34329567D01*
X154828667Y-34456484D01*
X154721332Y-34553760D01*
X154715265Y-34557774D01*
X154578817Y-34614864D01*
X154436350Y-34619944D01*
X154299073Y-34576469D01*
X154178196Y-34487892D01*
X154084929Y-34357667D01*
X154083363Y-34354527D01*
X154052370Y-34273659D01*
X154029669Y-34181751D01*
X154017627Y-34095469D01*
X154018614Y-34031479D01*
X154035000Y-34006445D01*
X154049556Y-34007967D01*
X154119169Y-34035654D01*
X154198074Y-34086567D01*
X154265197Y-34145501D01*
X154299464Y-34197252D01*
X154335084Y-34267449D01*
X154408088Y-34331296D01*
X154492862Y-34356790D01*
X154523935Y-34349419D01*
X154585268Y-34312312D01*
X154638692Y-34260802D01*
X154661538Y-34214071D01*
X154661531Y-34213898D01*
X154635610Y-34192438D01*
X154566504Y-34153723D01*
X154464626Y-34103195D01*
X154340388Y-34046292D01*
X154339705Y-34045991D01*
X154204732Y-33985896D01*
X154114261Y-33942598D01*
X154059416Y-33909337D01*
X154031321Y-33879352D01*
X154021101Y-33845884D01*
X154019880Y-33802173D01*
X154028373Y-33719402D01*
X154316596Y-33719402D01*
X154346347Y-33745423D01*
X154420478Y-33784414D01*
X154422651Y-33785517D01*
X154510110Y-33827167D01*
X154588351Y-33860393D01*
X154637988Y-33874449D01*
X154657898Y-33855661D01*
X154661538Y-33791282D01*
X154646412Y-33711159D01*
X154593974Y-33638347D01*
X154518054Y-33600597D01*
X154433417Y-33604409D01*
X154354824Y-33656279D01*
X154323932Y-33692123D01*
X154316596Y-33719402D01*
X154028373Y-33719402D01*
X154030628Y-33697423D01*
X154083766Y-33555107D01*
X154172719Y-33443269D01*
X154287825Y-33365834D01*
X154419422Y-33326726D01*
X154557849Y-33329869D01*
X154693442Y-33379188D01*
X154816541Y-33478605D01*
X154884743Y-33576987D01*
X154933733Y-33717419D01*
X154941699Y-33791282D01*
X154952829Y-33894487D01*
X154943545Y-34115797D01*
X156555156Y-33347173D02*
X156418316Y-33419126D01*
X156418316Y-33419126D02*
X156317326Y-33534924D01*
X156317326Y-33534924D02*
X156281452Y-33609371D01*
X156281452Y-33609371D02*
X156253538Y-33721150D01*
X156253538Y-33721150D02*
X156239248Y-33862385D01*
X156239248Y-33862385D02*
X156237893Y-34016529D01*
X156237893Y-34016529D02*
X156248782Y-34167037D01*
X156248782Y-34167037D02*
X156271224Y-34297363D01*
X156271224Y-34297363D02*
X156304527Y-34390961D01*
X156304527Y-34390961D02*
X156314762Y-34407080D01*
X156314762Y-34407080D02*
X156435995Y-34527407D01*
X156435995Y-34527407D02*
X156579990Y-34599475D01*
X156579990Y-34599475D02*
X156736238Y-34620566D01*
X156736238Y-34620566D02*
X156894229Y-34587960D01*
X156894229Y-34587960D02*
X156938197Y-34568411D01*
X156938197Y-34568411D02*
X157023821Y-34508170D01*
X157023821Y-34508170D02*
X157098969Y-34428293D01*
X157098969Y-34428293D02*
X157106071Y-34418162D01*
X157106071Y-34418162D02*
X157134938Y-34369339D01*
X157134938Y-34369339D02*
X157154020Y-34317148D01*
X157154020Y-34317148D02*
X157165293Y-34248443D01*
X157165293Y-34248443D02*
X157170732Y-34150076D01*
X157170732Y-34150076D02*
X157172315Y-34008902D01*
X157172315Y-34008902D02*
X157172342Y-33977250D01*
X157172342Y-33977250D02*
X157172270Y-33967177D01*
X157172270Y-33967177D02*
X156880388Y-33967177D01*
X156880388Y-33967177D02*
X156878690Y-34100414D01*
X156878690Y-34100414D02*
X156872005Y-34188832D01*
X156872005Y-34188832D02*
X156857952Y-34245943D01*
X156857952Y-34245943D02*
X156834148Y-34285260D01*
X156834148Y-34285260D02*
X156821998Y-34298399D01*
X156821998Y-34298399D02*
X156752141Y-34348330D01*
X156752141Y-34348330D02*
X156684318Y-34346053D01*
X156684318Y-34346053D02*
X156615742Y-34302742D01*
X156615742Y-34302742D02*
X156574842Y-34256504D01*
X156574842Y-34256504D02*
X156550619Y-34189015D01*
X156550619Y-34189015D02*
X156537016Y-34082591D01*
X156537016Y-34082591D02*
X156536083Y-34070178D01*
X156536083Y-34070178D02*
X156533761Y-33877305D01*
X156533761Y-33877305D02*
X156558027Y-33734058D01*
X156558027Y-33734058D02*
X156608553Y-33641318D01*
X156608553Y-33641318D02*
X156685009Y-33599965D01*
X156685009Y-33599965D02*
X156712301Y-33597710D01*
X156712301Y-33597710D02*
X156783966Y-33609051D01*
X156783966Y-33609051D02*
X156832987Y-33648342D01*
X156832987Y-33648342D02*
X156862959Y-33723484D01*
X156862959Y-33723484D02*
X156877478Y-33842380D01*
X156877478Y-33842380D02*
X156880388Y-33967177D01*
X156880388Y-33967177D02*
X157172270Y-33967177D01*
X157172270Y-33967177D02*
X157171255Y-33826817D01*
X157171255Y-33826817D02*
X157166689Y-33721707D01*
X157166689Y-33721707D02*
X157156689Y-33648872D01*
X157156689Y-33648872D02*
X157139298Y-33595266D01*
X157139298Y-33595266D02*
X157112561Y-33547839D01*
X157112561Y-33547839D02*
X157106653Y-33539022D01*
X157106653Y-33539022D02*
X157007345Y-33420165D01*
X157007345Y-33420165D02*
X156899135Y-33351166D01*
X156899135Y-33351166D02*
X156767396Y-33323777D01*
X156767396Y-33323777D02*
X156722660Y-33322439D01*
X156722660Y-33322439D02*
X156555156Y-33347173D01*
X156555156Y-33347173D02*
X156555156Y-33347173D01*
G36*
X157172315Y-34008902D02*
G01*
X157170732Y-34150076D01*
X157165293Y-34248443D01*
X157154020Y-34317148D01*
X157134938Y-34369339D01*
X157106071Y-34418162D01*
X157098969Y-34428293D01*
X157023821Y-34508170D01*
X156938197Y-34568411D01*
X156894229Y-34587960D01*
X156736238Y-34620566D01*
X156579990Y-34599475D01*
X156435995Y-34527407D01*
X156314762Y-34407080D01*
X156304527Y-34390961D01*
X156271224Y-34297363D01*
X156248782Y-34167037D01*
X156237893Y-34016529D01*
X156239117Y-33877305D01*
X156533761Y-33877305D01*
X156536083Y-34070178D01*
X156537016Y-34082591D01*
X156550619Y-34189015D01*
X156574842Y-34256504D01*
X156615742Y-34302742D01*
X156684318Y-34346053D01*
X156752141Y-34348330D01*
X156821998Y-34298399D01*
X156834148Y-34285260D01*
X156857952Y-34245943D01*
X156872005Y-34188832D01*
X156878690Y-34100414D01*
X156880388Y-33967177D01*
X156877478Y-33842380D01*
X156862959Y-33723484D01*
X156832987Y-33648342D01*
X156783966Y-33609051D01*
X156712301Y-33597710D01*
X156685009Y-33599965D01*
X156608553Y-33641318D01*
X156558027Y-33734058D01*
X156533761Y-33877305D01*
X156239117Y-33877305D01*
X156239248Y-33862385D01*
X156253538Y-33721150D01*
X156281452Y-33609371D01*
X156317326Y-33534924D01*
X156418316Y-33419126D01*
X156555156Y-33347173D01*
X156722660Y-33322439D01*
X156767396Y-33323777D01*
X156899135Y-33351166D01*
X157007345Y-33420165D01*
X157106653Y-33539022D01*
X157112561Y-33547839D01*
X157139298Y-33595266D01*
X157156689Y-33648872D01*
X157166689Y-33721707D01*
X157171255Y-33826817D01*
X157172270Y-33967177D01*
X157172342Y-33977250D01*
X157172315Y-34008902D01*
G37*
X157172315Y-34008902D02*
X157170732Y-34150076D01*
X157165293Y-34248443D01*
X157154020Y-34317148D01*
X157134938Y-34369339D01*
X157106071Y-34418162D01*
X157098969Y-34428293D01*
X157023821Y-34508170D01*
X156938197Y-34568411D01*
X156894229Y-34587960D01*
X156736238Y-34620566D01*
X156579990Y-34599475D01*
X156435995Y-34527407D01*
X156314762Y-34407080D01*
X156304527Y-34390961D01*
X156271224Y-34297363D01*
X156248782Y-34167037D01*
X156237893Y-34016529D01*
X156239117Y-33877305D01*
X156533761Y-33877305D01*
X156536083Y-34070178D01*
X156537016Y-34082591D01*
X156550619Y-34189015D01*
X156574842Y-34256504D01*
X156615742Y-34302742D01*
X156684318Y-34346053D01*
X156752141Y-34348330D01*
X156821998Y-34298399D01*
X156834148Y-34285260D01*
X156857952Y-34245943D01*
X156872005Y-34188832D01*
X156878690Y-34100414D01*
X156880388Y-33967177D01*
X156877478Y-33842380D01*
X156862959Y-33723484D01*
X156832987Y-33648342D01*
X156783966Y-33609051D01*
X156712301Y-33597710D01*
X156685009Y-33599965D01*
X156608553Y-33641318D01*
X156558027Y-33734058D01*
X156533761Y-33877305D01*
X156239117Y-33877305D01*
X156239248Y-33862385D01*
X156253538Y-33721150D01*
X156281452Y-33609371D01*
X156317326Y-33534924D01*
X156418316Y-33419126D01*
X156555156Y-33347173D01*
X156722660Y-33322439D01*
X156767396Y-33323777D01*
X156899135Y-33351166D01*
X157007345Y-33420165D01*
X157106653Y-33539022D01*
X157112561Y-33547839D01*
X157139298Y-33595266D01*
X157156689Y-33648872D01*
X157166689Y-33721707D01*
X157171255Y-33826817D01*
X157172270Y-33967177D01*
X157172342Y-33977250D01*
X157172315Y-34008902D01*
X146288971Y-33416314D02*
X146204908Y-33454551D01*
X146204908Y-33454551D02*
X146138927Y-33500884D01*
X146138927Y-33500884D02*
X146090583Y-33552690D01*
X146090583Y-33552690D02*
X146057205Y-33619521D01*
X146057205Y-33619521D02*
X146036124Y-33710927D01*
X146036124Y-33710927D02*
X146024670Y-33836459D01*
X146024670Y-33836459D02*
X146020174Y-34005666D01*
X146020174Y-34005666D02*
X146019699Y-34117091D01*
X146019699Y-34117091D02*
X146019699Y-34551785D01*
X146019699Y-34551785D02*
X146094061Y-34585667D01*
X146094061Y-34585667D02*
X146152631Y-34610430D01*
X146152631Y-34610430D02*
X146181647Y-34619549D01*
X146181647Y-34619549D02*
X146187198Y-34592415D01*
X146187198Y-34592415D02*
X146191602Y-34519252D01*
X146191602Y-34519252D02*
X146194299Y-34412421D01*
X146194299Y-34412421D02*
X146194871Y-34327595D01*
X146194871Y-34327595D02*
X146197331Y-34205045D01*
X146197331Y-34205045D02*
X146203965Y-34107826D01*
X146203965Y-34107826D02*
X146213651Y-34048292D01*
X146213651Y-34048292D02*
X146221345Y-34035641D01*
X146221345Y-34035641D02*
X146273066Y-34048560D01*
X146273066Y-34048560D02*
X146354260Y-34081697D01*
X146354260Y-34081697D02*
X146448275Y-34126619D01*
X146448275Y-34126619D02*
X146538460Y-34174893D01*
X146538460Y-34174893D02*
X146608162Y-34218086D01*
X146608162Y-34218086D02*
X146640729Y-34247766D01*
X146640729Y-34247766D02*
X146640858Y-34248087D01*
X146640858Y-34248087D02*
X146638057Y-34303015D01*
X146638057Y-34303015D02*
X146612938Y-34355450D01*
X146612938Y-34355450D02*
X146568836Y-34398039D01*
X146568836Y-34398039D02*
X146504468Y-34412284D01*
X146504468Y-34412284D02*
X146449456Y-34410624D01*
X146449456Y-34410624D02*
X146371542Y-34409403D01*
X146371542Y-34409403D02*
X146330645Y-34427656D01*
X146330645Y-34427656D02*
X146306082Y-34475884D01*
X146306082Y-34475884D02*
X146302985Y-34484978D01*
X146302985Y-34484978D02*
X146292337Y-34553756D01*
X146292337Y-34553756D02*
X146320812Y-34595518D01*
X146320812Y-34595518D02*
X146395033Y-34615421D01*
X146395033Y-34615421D02*
X146475209Y-34619102D01*
X146475209Y-34619102D02*
X146619487Y-34591816D01*
X146619487Y-34591816D02*
X146694174Y-34552848D01*
X146694174Y-34552848D02*
X146786414Y-34461306D01*
X146786414Y-34461306D02*
X146835334Y-34348940D01*
X146835334Y-34348940D02*
X146839723Y-34230209D01*
X146839723Y-34230209D02*
X146798376Y-34119569D01*
X146798376Y-34119569D02*
X146736180Y-34050238D01*
X146736180Y-34050238D02*
X146674083Y-34011423D01*
X146674083Y-34011423D02*
X146576482Y-33962283D01*
X146576482Y-33962283D02*
X146462745Y-33912450D01*
X146462745Y-33912450D02*
X146443787Y-33904835D01*
X146443787Y-33904835D02*
X146318856Y-33849703D01*
X146318856Y-33849703D02*
X146246838Y-33801112D01*
X146246838Y-33801112D02*
X146223677Y-33752805D01*
X146223677Y-33752805D02*
X146245313Y-33698528D01*
X146245313Y-33698528D02*
X146282457Y-33656101D01*
X146282457Y-33656101D02*
X146370250Y-33603860D01*
X146370250Y-33603860D02*
X146466847Y-33599942D01*
X146466847Y-33599942D02*
X146555433Y-33640199D01*
X146555433Y-33640199D02*
X146619191Y-33720484D01*
X146619191Y-33720484D02*
X146627560Y-33741198D01*
X146627560Y-33741198D02*
X146676281Y-33817383D01*
X146676281Y-33817383D02*
X146747412Y-33873943D01*
X146747412Y-33873943D02*
X146837170Y-33920359D01*
X146837170Y-33920359D02*
X146837170Y-33788742D01*
X146837170Y-33788742D02*
X146831887Y-33708326D01*
X146831887Y-33708326D02*
X146809235Y-33644944D01*
X146809235Y-33644944D02*
X146759010Y-33577321D01*
X146759010Y-33577321D02*
X146710795Y-33525234D01*
X146710795Y-33525234D02*
X146635823Y-33451480D01*
X146635823Y-33451480D02*
X146577571Y-33411860D01*
X146577571Y-33411860D02*
X146515005Y-33395968D01*
X146515005Y-33395968D02*
X146444184Y-33393342D01*
X146444184Y-33393342D02*
X146288971Y-33416314D01*
X146288971Y-33416314D02*
X146288971Y-33416314D01*
G36*
X146515005Y-33395968D02*
G01*
X146577571Y-33411860D01*
X146635823Y-33451480D01*
X146710795Y-33525234D01*
X146759010Y-33577321D01*
X146809235Y-33644944D01*
X146831887Y-33708326D01*
X146837170Y-33788742D01*
X146837170Y-33920359D01*
X146747412Y-33873943D01*
X146676281Y-33817383D01*
X146627560Y-33741198D01*
X146619191Y-33720484D01*
X146555433Y-33640199D01*
X146466847Y-33599942D01*
X146370250Y-33603860D01*
X146282457Y-33656101D01*
X146245313Y-33698528D01*
X146223677Y-33752805D01*
X146246838Y-33801112D01*
X146318856Y-33849703D01*
X146443787Y-33904835D01*
X146462745Y-33912450D01*
X146576482Y-33962283D01*
X146674083Y-34011423D01*
X146736180Y-34050238D01*
X146798376Y-34119569D01*
X146839723Y-34230209D01*
X146835334Y-34348940D01*
X146786414Y-34461306D01*
X146694174Y-34552848D01*
X146619487Y-34591816D01*
X146475209Y-34619102D01*
X146395033Y-34615421D01*
X146320812Y-34595518D01*
X146292337Y-34553756D01*
X146302985Y-34484978D01*
X146306082Y-34475884D01*
X146330645Y-34427656D01*
X146371542Y-34409403D01*
X146449456Y-34410624D01*
X146504468Y-34412284D01*
X146568836Y-34398039D01*
X146612938Y-34355450D01*
X146638057Y-34303015D01*
X146640858Y-34248087D01*
X146640729Y-34247766D01*
X146608162Y-34218086D01*
X146538460Y-34174893D01*
X146448275Y-34126619D01*
X146354260Y-34081697D01*
X146273066Y-34048560D01*
X146221345Y-34035641D01*
X146213651Y-34048292D01*
X146203965Y-34107826D01*
X146197331Y-34205045D01*
X146194871Y-34327595D01*
X146194299Y-34412421D01*
X146191602Y-34519252D01*
X146187198Y-34592415D01*
X146181647Y-34619549D01*
X146152631Y-34610430D01*
X146094061Y-34585667D01*
X146019699Y-34551785D01*
X146019699Y-34117091D01*
X146020174Y-34005666D01*
X146024670Y-33836459D01*
X146036124Y-33710927D01*
X146057205Y-33619521D01*
X146090583Y-33552690D01*
X146138927Y-33500884D01*
X146204908Y-33454551D01*
X146288971Y-33416314D01*
X146444184Y-33393342D01*
X146515005Y-33395968D01*
G37*
X146515005Y-33395968D02*
X146577571Y-33411860D01*
X146635823Y-33451480D01*
X146710795Y-33525234D01*
X146759010Y-33577321D01*
X146809235Y-33644944D01*
X146831887Y-33708326D01*
X146837170Y-33788742D01*
X146837170Y-33920359D01*
X146747412Y-33873943D01*
X146676281Y-33817383D01*
X146627560Y-33741198D01*
X146619191Y-33720484D01*
X146555433Y-33640199D01*
X146466847Y-33599942D01*
X146370250Y-33603860D01*
X146282457Y-33656101D01*
X146245313Y-33698528D01*
X146223677Y-33752805D01*
X146246838Y-33801112D01*
X146318856Y-33849703D01*
X146443787Y-33904835D01*
X146462745Y-33912450D01*
X146576482Y-33962283D01*
X146674083Y-34011423D01*
X146736180Y-34050238D01*
X146798376Y-34119569D01*
X146839723Y-34230209D01*
X146835334Y-34348940D01*
X146786414Y-34461306D01*
X146694174Y-34552848D01*
X146619487Y-34591816D01*
X146475209Y-34619102D01*
X146395033Y-34615421D01*
X146320812Y-34595518D01*
X146292337Y-34553756D01*
X146302985Y-34484978D01*
X146306082Y-34475884D01*
X146330645Y-34427656D01*
X146371542Y-34409403D01*
X146449456Y-34410624D01*
X146504468Y-34412284D01*
X146568836Y-34398039D01*
X146612938Y-34355450D01*
X146638057Y-34303015D01*
X146640858Y-34248087D01*
X146640729Y-34247766D01*
X146608162Y-34218086D01*
X146538460Y-34174893D01*
X146448275Y-34126619D01*
X146354260Y-34081697D01*
X146273066Y-34048560D01*
X146221345Y-34035641D01*
X146213651Y-34048292D01*
X146203965Y-34107826D01*
X146197331Y-34205045D01*
X146194871Y-34327595D01*
X146194299Y-34412421D01*
X146191602Y-34519252D01*
X146187198Y-34592415D01*
X146181647Y-34619549D01*
X146152631Y-34610430D01*
X146094061Y-34585667D01*
X146019699Y-34551785D01*
X146019699Y-34117091D01*
X146020174Y-34005666D01*
X146024670Y-33836459D01*
X146036124Y-33710927D01*
X146057205Y-33619521D01*
X146090583Y-33552690D01*
X146138927Y-33500884D01*
X146204908Y-33454551D01*
X146288971Y-33416314D01*
X146444184Y-33393342D01*
X146515005Y-33395968D01*
X151858779Y-33205015D02*
X151850223Y-33324346D01*
X151850223Y-33324346D02*
X151840396Y-33394664D01*
X151840396Y-33394664D02*
X151826778Y-33425337D01*
X151826778Y-33425337D02*
X151806850Y-33425729D01*
X151806850Y-33425729D02*
X151800388Y-33422068D01*
X151800388Y-33422068D02*
X151714437Y-33395556D01*
X151714437Y-33395556D02*
X151602632Y-33397104D01*
X151602632Y-33397104D02*
X151488963Y-33424357D01*
X151488963Y-33424357D02*
X151417867Y-33459613D01*
X151417867Y-33459613D02*
X151344972Y-33515936D01*
X151344972Y-33515936D02*
X151291684Y-33579677D01*
X151291684Y-33579677D02*
X151255102Y-33660668D01*
X151255102Y-33660668D02*
X151232327Y-33768744D01*
X151232327Y-33768744D02*
X151220458Y-33913738D01*
X151220458Y-33913738D02*
X151216595Y-34105484D01*
X151216595Y-34105484D02*
X151216526Y-34142267D01*
X151216526Y-34142267D02*
X151216480Y-34555446D01*
X151216480Y-34555446D02*
X151308423Y-34587497D01*
X151308423Y-34587497D02*
X151373725Y-34609302D01*
X151373725Y-34609302D02*
X151409553Y-34619455D01*
X151409553Y-34619455D02*
X151410607Y-34619549D01*
X151410607Y-34619549D02*
X151414135Y-34592018D01*
X151414135Y-34592018D02*
X151417138Y-34516081D01*
X151417138Y-34516081D02*
X151419387Y-34401723D01*
X151419387Y-34401723D02*
X151420653Y-34258927D01*
X151420653Y-34258927D02*
X151420848Y-34172109D01*
X151420848Y-34172109D02*
X151421254Y-34000931D01*
X151421254Y-34000931D02*
X151423345Y-33878246D01*
X151423345Y-33878246D02*
X151428430Y-33794158D01*
X151428430Y-33794158D02*
X151437817Y-33738772D01*
X151437817Y-33738772D02*
X151452816Y-33702190D01*
X151452816Y-33702190D02*
X151474735Y-33674517D01*
X151474735Y-33674517D02*
X151488420Y-33661190D01*
X151488420Y-33661190D02*
X151582428Y-33607486D01*
X151582428Y-33607486D02*
X151685013Y-33603465D01*
X151685013Y-33603465D02*
X151778087Y-33648883D01*
X151778087Y-33648883D02*
X151795299Y-33665281D01*
X151795299Y-33665281D02*
X151820545Y-33696115D01*
X151820545Y-33696115D02*
X151838057Y-33732689D01*
X151838057Y-33732689D02*
X151849235Y-33785573D01*
X151849235Y-33785573D02*
X151855481Y-33865335D01*
X151855481Y-33865335D02*
X151858195Y-33982543D01*
X151858195Y-33982543D02*
X151858779Y-34144149D01*
X151858779Y-34144149D02*
X151858779Y-34555446D01*
X151858779Y-34555446D02*
X151950722Y-34587497D01*
X151950722Y-34587497D02*
X152016024Y-34609302D01*
X152016024Y-34609302D02*
X152051852Y-34619455D01*
X152051852Y-34619455D02*
X152052906Y-34619549D01*
X152052906Y-34619549D02*
X152055602Y-34591606D01*
X152055602Y-34591606D02*
X152058032Y-34512788D01*
X152058032Y-34512788D02*
X152060099Y-34390611D01*
X152060099Y-34390611D02*
X152061706Y-34232590D01*
X152061706Y-34232590D02*
X152062754Y-34046241D01*
X152062754Y-34046241D02*
X152063146Y-33839078D01*
X152063146Y-33839078D02*
X152063147Y-33829864D01*
X152063147Y-33829864D02*
X152063147Y-33040178D01*
X152063147Y-33040178D02*
X151968262Y-33000155D01*
X151968262Y-33000155D02*
X151873377Y-32960131D01*
X151873377Y-32960131D02*
X151858779Y-33205015D01*
X151858779Y-33205015D02*
X151858779Y-33205015D01*
G36*
X151968262Y-33000155D02*
G01*
X152063147Y-33040178D01*
X152063147Y-33829864D01*
X152063146Y-33839078D01*
X152062754Y-34046241D01*
X152061706Y-34232590D01*
X152060099Y-34390611D01*
X152058032Y-34512788D01*
X152055602Y-34591606D01*
X152052906Y-34619549D01*
X152051852Y-34619455D01*
X152016024Y-34609302D01*
X151950722Y-34587497D01*
X151858779Y-34555446D01*
X151858779Y-34144149D01*
X151858195Y-33982543D01*
X151855481Y-33865335D01*
X151849235Y-33785573D01*
X151838057Y-33732689D01*
X151820545Y-33696115D01*
X151795299Y-33665281D01*
X151778087Y-33648883D01*
X151685013Y-33603465D01*
X151582428Y-33607486D01*
X151488420Y-33661190D01*
X151474735Y-33674517D01*
X151452816Y-33702190D01*
X151437817Y-33738772D01*
X151428430Y-33794158D01*
X151423345Y-33878246D01*
X151421254Y-34000931D01*
X151420848Y-34172109D01*
X151420653Y-34258927D01*
X151419387Y-34401723D01*
X151417138Y-34516081D01*
X151414135Y-34592018D01*
X151410607Y-34619549D01*
X151409553Y-34619455D01*
X151373725Y-34609302D01*
X151308423Y-34587497D01*
X151216480Y-34555446D01*
X151216526Y-34142267D01*
X151216595Y-34105484D01*
X151220458Y-33913738D01*
X151232327Y-33768744D01*
X151255102Y-33660668D01*
X151291684Y-33579677D01*
X151344972Y-33515936D01*
X151417867Y-33459613D01*
X151488963Y-33424357D01*
X151602632Y-33397104D01*
X151714437Y-33395556D01*
X151800388Y-33422068D01*
X151806850Y-33425729D01*
X151826778Y-33425337D01*
X151840396Y-33394664D01*
X151850223Y-33324346D01*
X151858779Y-33205015D01*
X151873377Y-32960131D01*
X151968262Y-33000155D01*
G37*
X151968262Y-33000155D02*
X152063147Y-33040178D01*
X152063147Y-33829864D01*
X152063146Y-33839078D01*
X152062754Y-34046241D01*
X152061706Y-34232590D01*
X152060099Y-34390611D01*
X152058032Y-34512788D01*
X152055602Y-34591606D01*
X152052906Y-34619549D01*
X152051852Y-34619455D01*
X152016024Y-34609302D01*
X151950722Y-34587497D01*
X151858779Y-34555446D01*
X151858779Y-34144149D01*
X151858195Y-33982543D01*
X151855481Y-33865335D01*
X151849235Y-33785573D01*
X151838057Y-33732689D01*
X151820545Y-33696115D01*
X151795299Y-33665281D01*
X151778087Y-33648883D01*
X151685013Y-33603465D01*
X151582428Y-33607486D01*
X151488420Y-33661190D01*
X151474735Y-33674517D01*
X151452816Y-33702190D01*
X151437817Y-33738772D01*
X151428430Y-33794158D01*
X151423345Y-33878246D01*
X151421254Y-34000931D01*
X151420848Y-34172109D01*
X151420653Y-34258927D01*
X151419387Y-34401723D01*
X151417138Y-34516081D01*
X151414135Y-34592018D01*
X151410607Y-34619549D01*
X151409553Y-34619455D01*
X151373725Y-34609302D01*
X151308423Y-34587497D01*
X151216480Y-34555446D01*
X151216526Y-34142267D01*
X151216595Y-34105484D01*
X151220458Y-33913738D01*
X151232327Y-33768744D01*
X151255102Y-33660668D01*
X151291684Y-33579677D01*
X151344972Y-33515936D01*
X151417867Y-33459613D01*
X151488963Y-33424357D01*
X151602632Y-33397104D01*
X151714437Y-33395556D01*
X151800388Y-33422068D01*
X151806850Y-33425729D01*
X151826778Y-33425337D01*
X151840396Y-33394664D01*
X151850223Y-33324346D01*
X151858779Y-33205015D01*
X151873377Y-32960131D01*
X151968262Y-33000155D01*
X149537434Y-33403078D02*
X149404812Y-33452017D01*
X149404812Y-33452017D02*
X149297367Y-33538577D01*
X149297367Y-33538577D02*
X149255345Y-33599510D01*
X149255345Y-33599510D02*
X149209534Y-33711319D01*
X149209534Y-33711319D02*
X149210486Y-33792164D01*
X149210486Y-33792164D02*
X149258569Y-33846536D01*
X149258569Y-33846536D02*
X149276360Y-33855782D01*
X149276360Y-33855782D02*
X149353173Y-33884608D01*
X149353173Y-33884608D02*
X149392401Y-33877223D01*
X149392401Y-33877223D02*
X149405688Y-33828816D01*
X149405688Y-33828816D02*
X149406365Y-33802078D01*
X149406365Y-33802078D02*
X149430691Y-33703706D01*
X149430691Y-33703706D02*
X149494096Y-33634892D01*
X149494096Y-33634892D02*
X149582223Y-33601656D01*
X149582223Y-33601656D02*
X149680714Y-33610019D01*
X149680714Y-33610019D02*
X149760775Y-33653454D01*
X149760775Y-33653454D02*
X149787816Y-33678230D01*
X149787816Y-33678230D02*
X149806983Y-33708287D01*
X149806983Y-33708287D02*
X149819931Y-33753723D01*
X149819931Y-33753723D02*
X149828313Y-33824634D01*
X149828313Y-33824634D02*
X149833784Y-33931118D01*
X149833784Y-33931118D02*
X149837999Y-34083270D01*
X149837999Y-34083270D02*
X149839090Y-34131445D01*
X149839090Y-34131445D02*
X149843070Y-34296253D01*
X149843070Y-34296253D02*
X149847596Y-34412246D01*
X149847596Y-34412246D02*
X149854382Y-34488991D01*
X149854382Y-34488991D02*
X149865146Y-34536051D01*
X149865146Y-34536051D02*
X149881604Y-34562993D01*
X149881604Y-34562993D02*
X149905471Y-34579381D01*
X149905471Y-34579381D02*
X149920751Y-34586621D01*
X149920751Y-34586621D02*
X149985644Y-34611378D01*
X149985644Y-34611378D02*
X150023843Y-34619549D01*
X150023843Y-34619549D02*
X150036465Y-34592261D01*
X150036465Y-34592261D02*
X150044169Y-34509761D01*
X150044169Y-34509761D02*
X150046997Y-34371099D01*
X150046997Y-34371099D02*
X150044991Y-34175320D01*
X150044991Y-34175320D02*
X150044366Y-34145123D01*
X150044366Y-34145123D02*
X150039956Y-33966507D01*
X150039956Y-33966507D02*
X150034742Y-33836081D01*
X150034742Y-33836081D02*
X150027322Y-33743650D01*
X150027322Y-33743650D02*
X150016295Y-33679016D01*
X150016295Y-33679016D02*
X150000260Y-33631983D01*
X150000260Y-33631983D02*
X149977816Y-33592354D01*
X149977816Y-33592354D02*
X149966075Y-33575373D01*
X149966075Y-33575373D02*
X149898758Y-33500238D01*
X149898758Y-33500238D02*
X149823467Y-33441796D01*
X149823467Y-33441796D02*
X149814249Y-33436694D01*
X149814249Y-33436694D02*
X149679244Y-33396418D01*
X149679244Y-33396418D02*
X149537434Y-33403078D01*
X149537434Y-33403078D02*
X149537434Y-33403078D01*
G36*
X149814249Y-33436694D02*
G01*
X149823467Y-33441796D01*
X149898758Y-33500238D01*
X149966075Y-33575373D01*
X149977816Y-33592354D01*
X150000260Y-33631983D01*
X150016295Y-33679016D01*
X150027322Y-33743650D01*
X150034742Y-33836081D01*
X150039956Y-33966507D01*
X150044366Y-34145123D01*
X150044991Y-34175320D01*
X150046997Y-34371099D01*
X150044169Y-34509761D01*
X150036465Y-34592261D01*
X150023843Y-34619549D01*
X149985644Y-34611378D01*
X149920751Y-34586621D01*
X149905471Y-34579381D01*
X149881604Y-34562993D01*
X149865146Y-34536051D01*
X149854382Y-34488991D01*
X149847596Y-34412246D01*
X149843070Y-34296253D01*
X149839090Y-34131445D01*
X149837999Y-34083270D01*
X149833784Y-33931118D01*
X149828313Y-33824634D01*
X149819931Y-33753723D01*
X149806983Y-33708287D01*
X149787816Y-33678230D01*
X149760775Y-33653454D01*
X149680714Y-33610019D01*
X149582223Y-33601656D01*
X149494096Y-33634892D01*
X149430691Y-33703706D01*
X149406365Y-33802078D01*
X149405688Y-33828816D01*
X149392401Y-33877223D01*
X149353173Y-33884608D01*
X149276360Y-33855782D01*
X149258569Y-33846536D01*
X149210486Y-33792164D01*
X149209534Y-33711319D01*
X149255345Y-33599510D01*
X149297367Y-33538577D01*
X149404812Y-33452017D01*
X149537434Y-33403078D01*
X149679244Y-33396418D01*
X149814249Y-33436694D01*
G37*
X149814249Y-33436694D02*
X149823467Y-33441796D01*
X149898758Y-33500238D01*
X149966075Y-33575373D01*
X149977816Y-33592354D01*
X150000260Y-33631983D01*
X150016295Y-33679016D01*
X150027322Y-33743650D01*
X150034742Y-33836081D01*
X150039956Y-33966507D01*
X150044366Y-34145123D01*
X150044991Y-34175320D01*
X150046997Y-34371099D01*
X150044169Y-34509761D01*
X150036465Y-34592261D01*
X150023843Y-34619549D01*
X149985644Y-34611378D01*
X149920751Y-34586621D01*
X149905471Y-34579381D01*
X149881604Y-34562993D01*
X149865146Y-34536051D01*
X149854382Y-34488991D01*
X149847596Y-34412246D01*
X149843070Y-34296253D01*
X149839090Y-34131445D01*
X149837999Y-34083270D01*
X149833784Y-33931118D01*
X149828313Y-33824634D01*
X149819931Y-33753723D01*
X149806983Y-33708287D01*
X149787816Y-33678230D01*
X149760775Y-33653454D01*
X149680714Y-33610019D01*
X149582223Y-33601656D01*
X149494096Y-33634892D01*
X149430691Y-33703706D01*
X149406365Y-33802078D01*
X149405688Y-33828816D01*
X149392401Y-33877223D01*
X149353173Y-33884608D01*
X149276360Y-33855782D01*
X149258569Y-33846536D01*
X149210486Y-33792164D01*
X149209534Y-33711319D01*
X149255345Y-33599510D01*
X149297367Y-33538577D01*
X149404812Y-33452017D01*
X149537434Y-33403078D01*
X149679244Y-33396418D01*
X149814249Y-33436694D01*
X132310163Y-30221297D02*
X132158745Y-30222339D01*
X132158745Y-30222339D02*
X132042060Y-30225303D01*
X132042060Y-30225303D02*
X131949496Y-30231218D01*
X131949496Y-30231218D02*
X131870439Y-30241109D01*
X131870439Y-30241109D02*
X131794273Y-30256005D01*
X131794273Y-30256005D02*
X131710385Y-30276930D01*
X131710385Y-30276930D02*
X131696400Y-30280674D01*
X131696400Y-30280674D02*
X131406246Y-30381408D01*
X131406246Y-30381408D02*
X131138686Y-30520137D01*
X131138686Y-30520137D02*
X130896703Y-30694371D01*
X130896703Y-30694371D02*
X130683282Y-30901625D01*
X130683282Y-30901625D02*
X130501406Y-31139411D01*
X130501406Y-31139411D02*
X130358441Y-31395836D01*
X130358441Y-31395836D02*
X130275346Y-31599759D01*
X130275346Y-31599759D02*
X130216709Y-31809121D01*
X130216709Y-31809121D02*
X130179629Y-32036754D01*
X130179629Y-32036754D02*
X130162520Y-32262552D01*
X130162520Y-32262552D02*
X130165431Y-32596381D01*
X130165431Y-32596381D02*
X130205111Y-32904849D01*
X130205111Y-32904849D02*
X130282403Y-33190283D01*
X130282403Y-33190283D02*
X130398151Y-33455007D01*
X130398151Y-33455007D02*
X130553196Y-33701347D01*
X130553196Y-33701347D02*
X130748381Y-33931630D01*
X130748381Y-33931630D02*
X130778333Y-33962095D01*
X130778333Y-33962095D02*
X130999672Y-34157658D01*
X130999672Y-34157658D02*
X131234266Y-34312805D01*
X131234266Y-34312805D02*
X131489908Y-34432144D01*
X131489908Y-34432144D02*
X131679101Y-34495012D01*
X131679101Y-34495012D02*
X131797372Y-34520820D01*
X131797372Y-34520820D02*
X131947115Y-34541632D01*
X131947115Y-34541632D02*
X132114626Y-34556497D01*
X132114626Y-34556497D02*
X132286199Y-34564468D01*
X132286199Y-34564468D02*
X132448130Y-34564596D01*
X132448130Y-34564596D02*
X132575839Y-34557070D01*
X132575839Y-34557070D02*
X132812524Y-34518057D01*
X132812524Y-34518057D02*
X133056554Y-34449942D01*
X133056554Y-34449942D02*
X133295860Y-34357584D01*
X133295860Y-34357584D02*
X133518373Y-34245843D01*
X133518373Y-34245843D02*
X133712024Y-34119577D01*
X133712024Y-34119577D02*
X133763514Y-34078905D01*
X133763514Y-34078905D02*
X133957179Y-33888996D01*
X133957179Y-33888996D02*
X134121938Y-33666196D01*
X134121938Y-33666196D02*
X134256071Y-33413920D01*
X134256071Y-33413920D02*
X134357858Y-33135582D01*
X134357858Y-33135582D02*
X134425580Y-32834598D01*
X134425580Y-32834598D02*
X134439487Y-32736426D01*
X134439487Y-32736426D02*
X134462046Y-32393084D01*
X134462046Y-32393084D02*
X134461598Y-32384908D01*
X134461598Y-32384908D02*
X133313176Y-32384908D01*
X133313176Y-32384908D02*
X133299448Y-32655131D01*
X133299448Y-32655131D02*
X133255691Y-32892398D01*
X133255691Y-32892398D02*
X133181156Y-33098392D01*
X133181156Y-33098392D02*
X133075095Y-33274796D01*
X133075095Y-33274796D02*
X132936761Y-33423293D01*
X132936761Y-33423293D02*
X132809066Y-33518853D01*
X132809066Y-33518853D02*
X132702870Y-33580180D01*
X132702870Y-33580180D02*
X132602980Y-33620041D01*
X132602980Y-33620041D02*
X132495178Y-33641883D01*
X132495178Y-33641883D02*
X132365248Y-33649156D01*
X132365248Y-33649156D02*
X132276145Y-33648112D01*
X132276145Y-33648112D02*
X132159466Y-33642878D01*
X132159466Y-33642878D02*
X132073056Y-33632820D01*
X132073056Y-33632820D02*
X132001872Y-33615144D01*
X132001872Y-33615144D02*
X131930872Y-33587061D01*
X131930872Y-33587061D02*
X131919682Y-33581951D01*
X131919682Y-33581951D02*
X131785388Y-33502132D01*
X131785388Y-33502132D02*
X131653658Y-33392377D01*
X131653658Y-33392377D02*
X131539762Y-33266294D01*
X131539762Y-33266294D02*
X131496422Y-33204775D01*
X131496422Y-33204775D02*
X131420082Y-33052985D01*
X131420082Y-33052985D02*
X131360930Y-32869484D01*
X131360930Y-32869484D02*
X131320965Y-32665301D01*
X131320965Y-32665301D02*
X131302189Y-32451462D01*
X131302189Y-32451462D02*
X131306600Y-32238996D01*
X131306600Y-32238996D02*
X131311689Y-32186250D01*
X131311689Y-32186250D02*
X131348707Y-31956449D01*
X131348707Y-31956449D02*
X131404969Y-31762400D01*
X131404969Y-31762400D02*
X131483189Y-31597614D01*
X131483189Y-31597614D02*
X131586086Y-31455604D01*
X131586086Y-31455604D02*
X131642480Y-31396113D01*
X131642480Y-31396113D02*
X131803280Y-31268404D01*
X131803280Y-31268404D02*
X131980030Y-31179808D01*
X131980030Y-31179808D02*
X132166771Y-31130322D01*
X132166771Y-31130322D02*
X132357543Y-31119946D01*
X132357543Y-31119946D02*
X132546386Y-31148678D01*
X132546386Y-31148678D02*
X132727342Y-31216516D01*
X132727342Y-31216516D02*
X132894450Y-31323458D01*
X132894450Y-31323458D02*
X132975812Y-31396440D01*
X132975812Y-31396440D02*
X133099993Y-31544149D01*
X133099993Y-31544149D02*
X133194049Y-31710016D01*
X133194049Y-31710016D02*
X133259740Y-31899197D01*
X133259740Y-31899197D02*
X133298827Y-32116852D01*
X133298827Y-32116852D02*
X133313071Y-32368138D01*
X133313071Y-32368138D02*
X133313176Y-32384908D01*
X133313176Y-32384908D02*
X134461598Y-32384908D01*
X134461598Y-32384908D02*
X134444083Y-32065829D01*
X134444083Y-32065829D02*
X134386128Y-31756289D01*
X134386128Y-31756289D02*
X134288706Y-31466091D01*
X134288706Y-31466091D02*
X134152346Y-31196862D01*
X134152346Y-31196862D02*
X133977574Y-30950231D01*
X133977574Y-30950231D02*
X133798735Y-30759125D01*
X133798735Y-30759125D02*
X133581688Y-30583798D01*
X133581688Y-30583798D02*
X133333651Y-30437048D01*
X133333651Y-30437048D02*
X133061670Y-30322753D01*
X133061670Y-30322753D02*
X132931856Y-30282528D01*
X132931856Y-30282528D02*
X132845246Y-30259526D01*
X132845246Y-30259526D02*
X132770635Y-30243021D01*
X132770635Y-30243021D02*
X132697494Y-30231973D01*
X132697494Y-30231973D02*
X132615295Y-30225347D01*
X132615295Y-30225347D02*
X132513509Y-30222105D01*
X132513509Y-30222105D02*
X132381606Y-30221211D01*
X132381606Y-30221211D02*
X132310163Y-30221297D01*
X132310163Y-30221297D02*
X132310163Y-30221297D01*
G36*
X134439487Y-32736426D02*
G01*
X134425580Y-32834598D01*
X134357858Y-33135582D01*
X134256071Y-33413920D01*
X134121938Y-33666196D01*
X133957179Y-33888996D01*
X133763514Y-34078905D01*
X133712024Y-34119577D01*
X133518373Y-34245843D01*
X133295860Y-34357584D01*
X133056554Y-34449942D01*
X132812524Y-34518057D01*
X132575839Y-34557070D01*
X132448130Y-34564596D01*
X132286199Y-34564468D01*
X132114626Y-34556497D01*
X131947115Y-34541632D01*
X131797372Y-34520820D01*
X131679101Y-34495012D01*
X131489908Y-34432144D01*
X131234266Y-34312805D01*
X130999672Y-34157658D01*
X130778333Y-33962095D01*
X130748381Y-33931630D01*
X130553196Y-33701347D01*
X130398151Y-33455007D01*
X130282403Y-33190283D01*
X130205111Y-32904849D01*
X130165431Y-32596381D01*
X130164167Y-32451462D01*
X131302189Y-32451462D01*
X131320965Y-32665301D01*
X131360930Y-32869484D01*
X131420082Y-33052985D01*
X131496422Y-33204775D01*
X131539762Y-33266294D01*
X131653658Y-33392377D01*
X131785388Y-33502132D01*
X131919682Y-33581951D01*
X131930872Y-33587061D01*
X132001872Y-33615144D01*
X132073056Y-33632820D01*
X132159466Y-33642878D01*
X132276145Y-33648112D01*
X132365248Y-33649156D01*
X132495178Y-33641883D01*
X132602980Y-33620041D01*
X132702870Y-33580180D01*
X132809066Y-33518853D01*
X132936761Y-33423293D01*
X133075095Y-33274796D01*
X133181156Y-33098392D01*
X133255691Y-32892398D01*
X133299448Y-32655131D01*
X133313176Y-32384908D01*
X133313071Y-32368138D01*
X133298827Y-32116852D01*
X133259740Y-31899197D01*
X133194049Y-31710016D01*
X133099993Y-31544149D01*
X132975812Y-31396440D01*
X132894450Y-31323458D01*
X132727342Y-31216516D01*
X132546386Y-31148678D01*
X132357543Y-31119946D01*
X132166771Y-31130322D01*
X131980030Y-31179808D01*
X131803280Y-31268404D01*
X131642480Y-31396113D01*
X131586086Y-31455604D01*
X131483189Y-31597614D01*
X131404969Y-31762400D01*
X131348707Y-31956449D01*
X131311689Y-32186250D01*
X131306600Y-32238996D01*
X131302189Y-32451462D01*
X130164167Y-32451462D01*
X130162520Y-32262552D01*
X130179629Y-32036754D01*
X130216709Y-31809121D01*
X130275346Y-31599759D01*
X130358441Y-31395836D01*
X130501406Y-31139411D01*
X130683282Y-30901625D01*
X130896703Y-30694371D01*
X131138686Y-30520137D01*
X131406246Y-30381408D01*
X131696400Y-30280674D01*
X131710385Y-30276930D01*
X131794273Y-30256005D01*
X131870439Y-30241109D01*
X131949496Y-30231218D01*
X132042060Y-30225303D01*
X132158745Y-30222339D01*
X132310163Y-30221297D01*
X132381606Y-30221211D01*
X132513509Y-30222105D01*
X132615295Y-30225347D01*
X132697494Y-30231973D01*
X132770635Y-30243021D01*
X132845246Y-30259526D01*
X132931856Y-30282528D01*
X133061670Y-30322753D01*
X133333651Y-30437048D01*
X133581688Y-30583798D01*
X133798735Y-30759125D01*
X133977574Y-30950231D01*
X134152346Y-31196862D01*
X134288706Y-31466091D01*
X134386128Y-31756289D01*
X134444083Y-32065829D01*
X134461598Y-32384908D01*
X134462046Y-32393084D01*
X134439487Y-32736426D01*
G37*
X134439487Y-32736426D02*
X134425580Y-32834598D01*
X134357858Y-33135582D01*
X134256071Y-33413920D01*
X134121938Y-33666196D01*
X133957179Y-33888996D01*
X133763514Y-34078905D01*
X133712024Y-34119577D01*
X133518373Y-34245843D01*
X133295860Y-34357584D01*
X133056554Y-34449942D01*
X132812524Y-34518057D01*
X132575839Y-34557070D01*
X132448130Y-34564596D01*
X132286199Y-34564468D01*
X132114626Y-34556497D01*
X131947115Y-34541632D01*
X131797372Y-34520820D01*
X131679101Y-34495012D01*
X131489908Y-34432144D01*
X131234266Y-34312805D01*
X130999672Y-34157658D01*
X130778333Y-33962095D01*
X130748381Y-33931630D01*
X130553196Y-33701347D01*
X130398151Y-33455007D01*
X130282403Y-33190283D01*
X130205111Y-32904849D01*
X130165431Y-32596381D01*
X130164167Y-32451462D01*
X131302189Y-32451462D01*
X131320965Y-32665301D01*
X131360930Y-32869484D01*
X131420082Y-33052985D01*
X131496422Y-33204775D01*
X131539762Y-33266294D01*
X131653658Y-33392377D01*
X131785388Y-33502132D01*
X131919682Y-33581951D01*
X131930872Y-33587061D01*
X132001872Y-33615144D01*
X132073056Y-33632820D01*
X132159466Y-33642878D01*
X132276145Y-33648112D01*
X132365248Y-33649156D01*
X132495178Y-33641883D01*
X132602980Y-33620041D01*
X132702870Y-33580180D01*
X132809066Y-33518853D01*
X132936761Y-33423293D01*
X133075095Y-33274796D01*
X133181156Y-33098392D01*
X133255691Y-32892398D01*
X133299448Y-32655131D01*
X133313176Y-32384908D01*
X133313071Y-32368138D01*
X133298827Y-32116852D01*
X133259740Y-31899197D01*
X133194049Y-31710016D01*
X133099993Y-31544149D01*
X132975812Y-31396440D01*
X132894450Y-31323458D01*
X132727342Y-31216516D01*
X132546386Y-31148678D01*
X132357543Y-31119946D01*
X132166771Y-31130322D01*
X131980030Y-31179808D01*
X131803280Y-31268404D01*
X131642480Y-31396113D01*
X131586086Y-31455604D01*
X131483189Y-31597614D01*
X131404969Y-31762400D01*
X131348707Y-31956449D01*
X131311689Y-32186250D01*
X131306600Y-32238996D01*
X131302189Y-32451462D01*
X130164167Y-32451462D01*
X130162520Y-32262552D01*
X130179629Y-32036754D01*
X130216709Y-31809121D01*
X130275346Y-31599759D01*
X130358441Y-31395836D01*
X130501406Y-31139411D01*
X130683282Y-30901625D01*
X130896703Y-30694371D01*
X131138686Y-30520137D01*
X131406246Y-30381408D01*
X131696400Y-30280674D01*
X131710385Y-30276930D01*
X131794273Y-30256005D01*
X131870439Y-30241109D01*
X131949496Y-30231218D01*
X132042060Y-30225303D01*
X132158745Y-30222339D01*
X132310163Y-30221297D01*
X132381606Y-30221211D01*
X132513509Y-30222105D01*
X132615295Y-30225347D01*
X132697494Y-30231973D01*
X132770635Y-30243021D01*
X132845246Y-30259526D01*
X132931856Y-30282528D01*
X133061670Y-30322753D01*
X133333651Y-30437048D01*
X133581688Y-30583798D01*
X133798735Y-30759125D01*
X133977574Y-30950231D01*
X134152346Y-31196862D01*
X134288706Y-31466091D01*
X134386128Y-31756289D01*
X134444083Y-32065829D01*
X134461598Y-32384908D01*
X134462046Y-32393084D01*
X134439487Y-32736426D01*
X121056745Y-28636145D02*
X120827421Y-28663655D01*
X120827421Y-28663655D02*
X120617382Y-28708095D01*
X120617382Y-28708095D02*
X120418544Y-28770869D01*
X120418544Y-28770869D02*
X120222820Y-28853384D01*
X120222820Y-28853384D02*
X120179671Y-28874181D01*
X120179671Y-28874181D02*
X119946069Y-29012471D01*
X119946069Y-29012471D02*
X119746003Y-29181111D01*
X119746003Y-29181111D02*
X119579046Y-29380594D01*
X119579046Y-29380594D02*
X119444772Y-29611412D01*
X119444772Y-29611412D02*
X119358050Y-29826521D01*
X119358050Y-29826521D02*
X119321379Y-29954513D01*
X119321379Y-29954513D02*
X119292682Y-30089754D01*
X119292682Y-30089754D02*
X119277710Y-30201828D01*
X119277710Y-30201828D02*
X119264136Y-30377854D01*
X119264136Y-30377854D02*
X119329427Y-30379084D01*
X119329427Y-30379084D02*
X119370455Y-30380225D01*
X119370455Y-30380225D02*
X119449386Y-30382744D01*
X119449386Y-30382744D02*
X119558798Y-30386390D01*
X119558798Y-30386390D02*
X119691265Y-30390916D01*
X119691265Y-30390916D02*
X119839363Y-30396072D01*
X119839363Y-30396072D02*
X119916324Y-30398786D01*
X119916324Y-30398786D02*
X120437931Y-30417259D01*
X120437931Y-30417259D02*
X120479195Y-30256892D01*
X120479195Y-30256892D02*
X120548790Y-30064153D01*
X120548790Y-30064153D02*
X120649636Y-29903137D01*
X120649636Y-29903137D02*
X120780507Y-29775204D01*
X120780507Y-29775204D02*
X120940173Y-29681717D01*
X120940173Y-29681717D02*
X121027574Y-29649199D01*
X121027574Y-29649199D02*
X121132555Y-29626153D01*
X121132555Y-29626153D02*
X121268513Y-29610213D01*
X121268513Y-29610213D02*
X121421570Y-29601754D01*
X121421570Y-29601754D02*
X121577848Y-29601152D01*
X121577848Y-29601152D02*
X121723468Y-29608784D01*
X121723468Y-29608784D02*
X121844553Y-29625024D01*
X121844553Y-29625024D02*
X121853352Y-29626831D01*
X121853352Y-29626831D02*
X122029543Y-29677501D01*
X122029543Y-29677501D02*
X122183046Y-29748019D01*
X122183046Y-29748019D02*
X122307122Y-29834338D01*
X122307122Y-29834338D02*
X122395031Y-29932410D01*
X122395031Y-29932410D02*
X122412991Y-29962844D01*
X122412991Y-29962844D02*
X122435923Y-30039183D01*
X122435923Y-30039183D02*
X122443846Y-30138616D01*
X122443846Y-30138616D02*
X122436687Y-30241414D01*
X122436687Y-30241414D02*
X122414373Y-30327843D01*
X122414373Y-30327843D02*
X122414345Y-30327910D01*
X122414345Y-30327910D02*
X122378410Y-30387265D01*
X122378410Y-30387265D02*
X122323015Y-30452485D01*
X122323015Y-30452485D02*
X122295970Y-30478274D01*
X122295970Y-30478274D02*
X122236504Y-30525390D01*
X122236504Y-30525390D02*
X122167163Y-30569447D01*
X122167163Y-30569447D02*
X122083484Y-30612059D01*
X122083484Y-30612059D02*
X121981000Y-30654840D01*
X121981000Y-30654840D02*
X121855247Y-30699406D01*
X121855247Y-30699406D02*
X121701759Y-30747371D01*
X121701759Y-30747371D02*
X121516072Y-30800350D01*
X121516072Y-30800350D02*
X121293720Y-30859957D01*
X121293720Y-30859957D02*
X121106949Y-30908261D01*
X121106949Y-30908261D02*
X120793103Y-30992455D01*
X120793103Y-30992455D02*
X120520199Y-31074741D01*
X120520199Y-31074741D02*
X120283999Y-31157256D01*
X120283999Y-31157256D02*
X120080270Y-31242135D01*
X120080270Y-31242135D02*
X119904776Y-31331515D01*
X119904776Y-31331515D02*
X119753281Y-31427533D01*
X119753281Y-31427533D02*
X119621549Y-31532325D01*
X119621549Y-31532325D02*
X119505346Y-31648026D01*
X119505346Y-31648026D02*
X119409730Y-31764324D01*
X119409730Y-31764324D02*
X119300870Y-31936626D01*
X119300870Y-31936626D02*
X119210857Y-32133956D01*
X119210857Y-32133956D02*
X119147980Y-32337232D01*
X119147980Y-32337232D02*
X119135972Y-32394743D01*
X119135972Y-32394743D02*
X119118325Y-32536267D01*
X119118325Y-32536267D02*
X119110829Y-32701844D01*
X119110829Y-32701844D02*
X119113114Y-32875831D01*
X119113114Y-32875831D02*
X119124808Y-33042587D01*
X119124808Y-33042587D02*
X119145538Y-33186472D01*
X119145538Y-33186472D02*
X119155877Y-33232559D01*
X119155877Y-33232559D02*
X119220298Y-33423879D01*
X119220298Y-33423879D02*
X119314267Y-33621372D01*
X119314267Y-33621372D02*
X119428744Y-33807365D01*
X119428744Y-33807365D02*
X119495074Y-33895771D01*
X119495074Y-33895771D02*
X119670308Y-34076566D01*
X119670308Y-34076566D02*
X119881246Y-34231324D01*
X119881246Y-34231324D02*
X120125783Y-34359066D01*
X120125783Y-34359066D02*
X120401816Y-34458812D01*
X120401816Y-34458812D02*
X120707241Y-34529582D01*
X120707241Y-34529582D02*
X120920740Y-34559603D01*
X120920740Y-34559603D02*
X121096945Y-34573485D01*
X121096945Y-34573485D02*
X121293355Y-34580464D01*
X121293355Y-34580464D02*
X121495765Y-34580662D01*
X121495765Y-34580662D02*
X121689968Y-34574204D01*
X121689968Y-34574204D02*
X121861761Y-34561213D01*
X121861761Y-34561213D02*
X121946056Y-34550656D01*
X121946056Y-34550656D02*
X122256036Y-34489898D01*
X122256036Y-34489898D02*
X122530496Y-34405609D01*
X122530496Y-34405609D02*
X122773916Y-34295644D01*
X122773916Y-34295644D02*
X122990773Y-34157856D01*
X122990773Y-34157856D02*
X123185548Y-33990100D01*
X123185548Y-33990100D02*
X123245337Y-33928236D01*
X123245337Y-33928236D02*
X123391798Y-33742684D01*
X123391798Y-33742684D02*
X123521808Y-33523903D01*
X123521808Y-33523903D02*
X123630748Y-33282450D01*
X123630748Y-33282450D02*
X123714002Y-33028883D01*
X123714002Y-33028883D02*
X123766954Y-32773759D01*
X123766954Y-32773759D02*
X123773971Y-32719417D01*
X123773971Y-32719417D02*
X123781286Y-32646259D01*
X123781286Y-32646259D02*
X123779621Y-32607319D01*
X123779621Y-32607319D02*
X123765751Y-32591824D01*
X123765751Y-32591824D02*
X123736449Y-32589000D01*
X123736449Y-32589000D02*
X123734923Y-32588998D01*
X123734923Y-32588998D02*
X123696540Y-32586860D01*
X123696540Y-32586860D02*
X123620748Y-32580904D01*
X123620748Y-32580904D02*
X123515274Y-32571802D01*
X123515274Y-32571802D02*
X123387844Y-32560224D01*
X123387844Y-32560224D02*
X123246184Y-32546841D01*
X123246184Y-32546841D02*
X123216056Y-32543933D01*
X123216056Y-32543933D02*
X123042081Y-32527037D01*
X123042081Y-32527037D02*
X122907953Y-32514371D01*
X122907953Y-32514371D02*
X122808347Y-32506090D01*
X122808347Y-32506090D02*
X122737935Y-32502348D01*
X122737935Y-32502348D02*
X122691392Y-32503297D01*
X122691392Y-32503297D02*
X122663391Y-32509092D01*
X122663391Y-32509092D02*
X122648606Y-32519886D01*
X122648606Y-32519886D02*
X122641711Y-32535834D01*
X122641711Y-32535834D02*
X122637380Y-32557090D01*
X122637380Y-32557090D02*
X122636639Y-32560667D01*
X122636639Y-32560667D02*
X122605475Y-32675910D01*
X122605475Y-32675910D02*
X122559544Y-32808789D01*
X122559544Y-32808789D02*
X122505881Y-32941172D01*
X122505881Y-32941172D02*
X122451523Y-33054927D01*
X122451523Y-33054927D02*
X122430134Y-33092860D01*
X122430134Y-33092860D02*
X122306496Y-33255076D01*
X122306496Y-33255076D02*
X122150961Y-33385633D01*
X122150961Y-33385633D02*
X121964590Y-33484031D01*
X121964590Y-33484031D02*
X121748446Y-33549774D01*
X121748446Y-33549774D02*
X121503588Y-33582363D01*
X121503588Y-33582363D02*
X121379092Y-33586085D01*
X121379092Y-33586085D02*
X121126196Y-33571467D01*
X121126196Y-33571467D02*
X120906049Y-33527147D01*
X120906049Y-33527147D02*
X120716528Y-33452424D01*
X120716528Y-33452424D02*
X120555509Y-33346598D01*
X120555509Y-33346598D02*
X120499068Y-33295855D01*
X120499068Y-33295855D02*
X120386481Y-33160390D01*
X120386481Y-33160390D02*
X120312718Y-33015690D01*
X120312718Y-33015690D02*
X120278362Y-32867244D01*
X120278362Y-32867244D02*
X120283995Y-32720538D01*
X120283995Y-32720538D02*
X120330199Y-32581062D01*
X120330199Y-32581062D02*
X120410588Y-32462083D01*
X120410588Y-32462083D02*
X120461160Y-32410523D01*
X120461160Y-32410523D02*
X120520158Y-32363280D01*
X120520158Y-32363280D02*
X120591748Y-32318777D01*
X120591748Y-32318777D02*
X120680093Y-32275438D01*
X120680093Y-32275438D02*
X120789358Y-32231685D01*
X120789358Y-32231685D02*
X120923708Y-32185943D01*
X120923708Y-32185943D02*
X121087308Y-32136635D01*
X121087308Y-32136635D02*
X121284321Y-32082184D01*
X121284321Y-32082184D02*
X121518912Y-32021014D01*
X121518912Y-32021014D02*
X121689710Y-31977857D01*
X121689710Y-31977857D02*
X122041904Y-31880747D01*
X122041904Y-31880747D02*
X122351272Y-31776567D01*
X122351272Y-31776567D02*
X122617262Y-31665544D01*
X122617262Y-31665544D02*
X122839318Y-31547903D01*
X122839318Y-31547903D02*
X122985190Y-31449001D01*
X122985190Y-31449001D02*
X123173799Y-31276867D01*
X123173799Y-31276867D02*
X123327593Y-31079543D01*
X123327593Y-31079543D02*
X123445544Y-30862104D01*
X123445544Y-30862104D02*
X123526620Y-30629623D01*
X123526620Y-30629623D02*
X123569793Y-30387175D01*
X123569793Y-30387175D02*
X123574031Y-30139835D01*
X123574031Y-30139835D02*
X123538304Y-29892676D01*
X123538304Y-29892676D02*
X123461583Y-29650774D01*
X123461583Y-29650774D02*
X123383307Y-29487957D01*
X123383307Y-29487957D02*
X123258493Y-29304235D01*
X123258493Y-29304235D02*
X123097848Y-29132661D01*
X123097848Y-29132661D02*
X122910718Y-28981322D01*
X122910718Y-28981322D02*
X122706447Y-28858303D01*
X122706447Y-28858303D02*
X122598656Y-28809063D01*
X122598656Y-28809063D02*
X122432023Y-28746777D01*
X122432023Y-28746777D02*
X122271475Y-28699840D01*
X122271475Y-28699840D02*
X122105526Y-28666138D01*
X122105526Y-28666138D02*
X121922688Y-28643558D01*
X121922688Y-28643558D02*
X121711474Y-28629984D01*
X121711474Y-28629984D02*
X121605586Y-28626292D01*
X121605586Y-28626292D02*
X121313438Y-28624159D01*
X121313438Y-28624159D02*
X121056745Y-28636145D01*
X121056745Y-28636145D02*
X121056745Y-28636145D01*
G36*
X121605586Y-28626292D02*
G01*
X121711474Y-28629984D01*
X121922688Y-28643558D01*
X122105526Y-28666138D01*
X122271475Y-28699840D01*
X122432023Y-28746777D01*
X122598656Y-28809063D01*
X122706447Y-28858303D01*
X122910718Y-28981322D01*
X123097848Y-29132661D01*
X123258493Y-29304235D01*
X123383307Y-29487957D01*
X123461583Y-29650774D01*
X123538304Y-29892676D01*
X123574031Y-30139835D01*
X123569793Y-30387175D01*
X123526620Y-30629623D01*
X123445544Y-30862104D01*
X123327593Y-31079543D01*
X123173799Y-31276867D01*
X122985190Y-31449001D01*
X122839318Y-31547903D01*
X122617262Y-31665544D01*
X122351272Y-31776567D01*
X122041904Y-31880747D01*
X121689710Y-31977857D01*
X121518912Y-32021014D01*
X121284321Y-32082184D01*
X121087308Y-32136635D01*
X120923708Y-32185943D01*
X120789358Y-32231685D01*
X120680093Y-32275438D01*
X120591748Y-32318777D01*
X120520158Y-32363280D01*
X120461160Y-32410523D01*
X120410588Y-32462083D01*
X120330199Y-32581062D01*
X120283995Y-32720538D01*
X120278362Y-32867244D01*
X120312718Y-33015690D01*
X120386481Y-33160390D01*
X120499068Y-33295855D01*
X120555509Y-33346598D01*
X120716528Y-33452424D01*
X120906049Y-33527147D01*
X121126196Y-33571467D01*
X121379092Y-33586085D01*
X121503588Y-33582363D01*
X121748446Y-33549774D01*
X121964590Y-33484031D01*
X122150961Y-33385633D01*
X122306496Y-33255076D01*
X122430134Y-33092860D01*
X122451523Y-33054927D01*
X122505881Y-32941172D01*
X122559544Y-32808789D01*
X122605475Y-32675910D01*
X122636639Y-32560667D01*
X122637380Y-32557090D01*
X122641711Y-32535834D01*
X122648606Y-32519886D01*
X122663391Y-32509092D01*
X122691392Y-32503297D01*
X122737935Y-32502348D01*
X122808347Y-32506090D01*
X122907953Y-32514371D01*
X123042081Y-32527037D01*
X123216056Y-32543933D01*
X123246184Y-32546841D01*
X123387844Y-32560224D01*
X123515274Y-32571802D01*
X123620748Y-32580904D01*
X123696540Y-32586860D01*
X123734923Y-32588998D01*
X123736449Y-32589000D01*
X123765751Y-32591824D01*
X123779621Y-32607319D01*
X123781286Y-32646259D01*
X123773971Y-32719417D01*
X123766954Y-32773759D01*
X123714002Y-33028883D01*
X123630748Y-33282450D01*
X123521808Y-33523903D01*
X123391798Y-33742684D01*
X123245337Y-33928236D01*
X123185548Y-33990100D01*
X122990773Y-34157856D01*
X122773916Y-34295644D01*
X122530496Y-34405609D01*
X122256036Y-34489898D01*
X121946056Y-34550656D01*
X121861761Y-34561213D01*
X121689968Y-34574204D01*
X121495765Y-34580662D01*
X121293355Y-34580464D01*
X121096945Y-34573485D01*
X120920740Y-34559603D01*
X120707241Y-34529582D01*
X120401816Y-34458812D01*
X120125783Y-34359066D01*
X119881246Y-34231324D01*
X119670308Y-34076566D01*
X119495074Y-33895771D01*
X119428744Y-33807365D01*
X119314267Y-33621372D01*
X119220298Y-33423879D01*
X119155877Y-33232559D01*
X119145538Y-33186472D01*
X119124808Y-33042587D01*
X119113114Y-32875831D01*
X119110829Y-32701844D01*
X119118325Y-32536267D01*
X119135972Y-32394743D01*
X119147980Y-32337232D01*
X119210857Y-32133956D01*
X119300870Y-31936626D01*
X119409730Y-31764324D01*
X119505346Y-31648026D01*
X119621549Y-31532325D01*
X119753281Y-31427533D01*
X119904776Y-31331515D01*
X120080270Y-31242135D01*
X120283999Y-31157256D01*
X120520199Y-31074741D01*
X120793103Y-30992455D01*
X121106949Y-30908261D01*
X121293720Y-30859957D01*
X121516072Y-30800350D01*
X121701759Y-30747371D01*
X121855247Y-30699406D01*
X121981000Y-30654840D01*
X122083484Y-30612059D01*
X122167163Y-30569447D01*
X122236504Y-30525390D01*
X122295970Y-30478274D01*
X122323015Y-30452485D01*
X122378410Y-30387265D01*
X122414345Y-30327910D01*
X122414373Y-30327843D01*
X122436687Y-30241414D01*
X122443846Y-30138616D01*
X122435923Y-30039183D01*
X122412991Y-29962844D01*
X122395031Y-29932410D01*
X122307122Y-29834338D01*
X122183046Y-29748019D01*
X122029543Y-29677501D01*
X121853352Y-29626831D01*
X121844553Y-29625024D01*
X121723468Y-29608784D01*
X121577848Y-29601152D01*
X121421570Y-29601754D01*
X121268513Y-29610213D01*
X121132555Y-29626153D01*
X121027574Y-29649199D01*
X120940173Y-29681717D01*
X120780507Y-29775204D01*
X120649636Y-29903137D01*
X120548790Y-30064153D01*
X120479195Y-30256892D01*
X120437931Y-30417259D01*
X119916324Y-30398786D01*
X119839363Y-30396072D01*
X119691265Y-30390916D01*
X119558798Y-30386390D01*
X119449386Y-30382744D01*
X119370455Y-30380225D01*
X119329427Y-30379084D01*
X119264136Y-30377854D01*
X119277710Y-30201828D01*
X119292682Y-30089754D01*
X119321379Y-29954513D01*
X119358050Y-29826521D01*
X119444772Y-29611412D01*
X119579046Y-29380594D01*
X119746003Y-29181111D01*
X119946069Y-29012471D01*
X120179671Y-28874181D01*
X120222820Y-28853384D01*
X120418544Y-28770869D01*
X120617382Y-28708095D01*
X120827421Y-28663655D01*
X121056745Y-28636145D01*
X121313438Y-28624159D01*
X121605586Y-28626292D01*
G37*
X121605586Y-28626292D02*
X121711474Y-28629984D01*
X121922688Y-28643558D01*
X122105526Y-28666138D01*
X122271475Y-28699840D01*
X122432023Y-28746777D01*
X122598656Y-28809063D01*
X122706447Y-28858303D01*
X122910718Y-28981322D01*
X123097848Y-29132661D01*
X123258493Y-29304235D01*
X123383307Y-29487957D01*
X123461583Y-29650774D01*
X123538304Y-29892676D01*
X123574031Y-30139835D01*
X123569793Y-30387175D01*
X123526620Y-30629623D01*
X123445544Y-30862104D01*
X123327593Y-31079543D01*
X123173799Y-31276867D01*
X122985190Y-31449001D01*
X122839318Y-31547903D01*
X122617262Y-31665544D01*
X122351272Y-31776567D01*
X122041904Y-31880747D01*
X121689710Y-31977857D01*
X121518912Y-32021014D01*
X121284321Y-32082184D01*
X121087308Y-32136635D01*
X120923708Y-32185943D01*
X120789358Y-32231685D01*
X120680093Y-32275438D01*
X120591748Y-32318777D01*
X120520158Y-32363280D01*
X120461160Y-32410523D01*
X120410588Y-32462083D01*
X120330199Y-32581062D01*
X120283995Y-32720538D01*
X120278362Y-32867244D01*
X120312718Y-33015690D01*
X120386481Y-33160390D01*
X120499068Y-33295855D01*
X120555509Y-33346598D01*
X120716528Y-33452424D01*
X120906049Y-33527147D01*
X121126196Y-33571467D01*
X121379092Y-33586085D01*
X121503588Y-33582363D01*
X121748446Y-33549774D01*
X121964590Y-33484031D01*
X122150961Y-33385633D01*
X122306496Y-33255076D01*
X122430134Y-33092860D01*
X122451523Y-33054927D01*
X122505881Y-32941172D01*
X122559544Y-32808789D01*
X122605475Y-32675910D01*
X122636639Y-32560667D01*
X122637380Y-32557090D01*
X122641711Y-32535834D01*
X122648606Y-32519886D01*
X122663391Y-32509092D01*
X122691392Y-32503297D01*
X122737935Y-32502348D01*
X122808347Y-32506090D01*
X122907953Y-32514371D01*
X123042081Y-32527037D01*
X123216056Y-32543933D01*
X123246184Y-32546841D01*
X123387844Y-32560224D01*
X123515274Y-32571802D01*
X123620748Y-32580904D01*
X123696540Y-32586860D01*
X123734923Y-32588998D01*
X123736449Y-32589000D01*
X123765751Y-32591824D01*
X123779621Y-32607319D01*
X123781286Y-32646259D01*
X123773971Y-32719417D01*
X123766954Y-32773759D01*
X123714002Y-33028883D01*
X123630748Y-33282450D01*
X123521808Y-33523903D01*
X123391798Y-33742684D01*
X123245337Y-33928236D01*
X123185548Y-33990100D01*
X122990773Y-34157856D01*
X122773916Y-34295644D01*
X122530496Y-34405609D01*
X122256036Y-34489898D01*
X121946056Y-34550656D01*
X121861761Y-34561213D01*
X121689968Y-34574204D01*
X121495765Y-34580662D01*
X121293355Y-34580464D01*
X121096945Y-34573485D01*
X120920740Y-34559603D01*
X120707241Y-34529582D01*
X120401816Y-34458812D01*
X120125783Y-34359066D01*
X119881246Y-34231324D01*
X119670308Y-34076566D01*
X119495074Y-33895771D01*
X119428744Y-33807365D01*
X119314267Y-33621372D01*
X119220298Y-33423879D01*
X119155877Y-33232559D01*
X119145538Y-33186472D01*
X119124808Y-33042587D01*
X119113114Y-32875831D01*
X119110829Y-32701844D01*
X119118325Y-32536267D01*
X119135972Y-32394743D01*
X119147980Y-32337232D01*
X119210857Y-32133956D01*
X119300870Y-31936626D01*
X119409730Y-31764324D01*
X119505346Y-31648026D01*
X119621549Y-31532325D01*
X119753281Y-31427533D01*
X119904776Y-31331515D01*
X120080270Y-31242135D01*
X120283999Y-31157256D01*
X120520199Y-31074741D01*
X120793103Y-30992455D01*
X121106949Y-30908261D01*
X121293720Y-30859957D01*
X121516072Y-30800350D01*
X121701759Y-30747371D01*
X121855247Y-30699406D01*
X121981000Y-30654840D01*
X122083484Y-30612059D01*
X122167163Y-30569447D01*
X122236504Y-30525390D01*
X122295970Y-30478274D01*
X122323015Y-30452485D01*
X122378410Y-30387265D01*
X122414345Y-30327910D01*
X122414373Y-30327843D01*
X122436687Y-30241414D01*
X122443846Y-30138616D01*
X122435923Y-30039183D01*
X122412991Y-29962844D01*
X122395031Y-29932410D01*
X122307122Y-29834338D01*
X122183046Y-29748019D01*
X122029543Y-29677501D01*
X121853352Y-29626831D01*
X121844553Y-29625024D01*
X121723468Y-29608784D01*
X121577848Y-29601152D01*
X121421570Y-29601754D01*
X121268513Y-29610213D01*
X121132555Y-29626153D01*
X121027574Y-29649199D01*
X120940173Y-29681717D01*
X120780507Y-29775204D01*
X120649636Y-29903137D01*
X120548790Y-30064153D01*
X120479195Y-30256892D01*
X120437931Y-30417259D01*
X119916324Y-30398786D01*
X119839363Y-30396072D01*
X119691265Y-30390916D01*
X119558798Y-30386390D01*
X119449386Y-30382744D01*
X119370455Y-30380225D01*
X119329427Y-30379084D01*
X119264136Y-30377854D01*
X119277710Y-30201828D01*
X119292682Y-30089754D01*
X119321379Y-29954513D01*
X119358050Y-29826521D01*
X119444772Y-29611412D01*
X119579046Y-29380594D01*
X119746003Y-29181111D01*
X119946069Y-29012471D01*
X120179671Y-28874181D01*
X120222820Y-28853384D01*
X120418544Y-28770869D01*
X120617382Y-28708095D01*
X120827421Y-28663655D01*
X121056745Y-28636145D01*
X121313438Y-28624159D01*
X121605586Y-28626292D01*
X128114627Y-30978837D02*
X125869449Y-30978837D01*
X125869449Y-30978837D02*
X125869449Y-28710979D01*
X125869449Y-28710979D02*
X124690163Y-28710979D01*
X124690163Y-28710979D02*
X124690163Y-34471337D01*
X124690163Y-34471337D02*
X125869449Y-34471337D01*
X125869449Y-34471337D02*
X125869449Y-31953588D01*
X125869449Y-31953588D02*
X126986369Y-31959471D01*
X126986369Y-31959471D02*
X128103288Y-31965354D01*
X128103288Y-31965354D02*
X128109150Y-33218345D01*
X128109150Y-33218345D02*
X128115012Y-34471337D01*
X128115012Y-34471337D02*
X129293913Y-34471337D01*
X129293913Y-34471337D02*
X129293913Y-28710979D01*
X129293913Y-28710979D02*
X128114627Y-28710979D01*
X128114627Y-28710979D02*
X128114627Y-30978837D01*
X128114627Y-30978837D02*
X128114627Y-30978837D01*
G36*
X125869449Y-30978837D02*
G01*
X128114627Y-30978837D01*
X128114627Y-28710979D01*
X129293913Y-28710979D01*
X129293913Y-34471337D01*
X128115012Y-34471337D01*
X128109150Y-33218345D01*
X128103288Y-31965354D01*
X126986369Y-31959471D01*
X125869449Y-31953588D01*
X125869449Y-34471337D01*
X124690163Y-34471337D01*
X124690163Y-28710979D01*
X125869449Y-28710979D01*
X125869449Y-30978837D01*
G37*
X125869449Y-30978837D02*
X128114627Y-30978837D01*
X128114627Y-28710979D01*
X129293913Y-28710979D01*
X129293913Y-34471337D01*
X128115012Y-34471337D01*
X128109150Y-33218345D01*
X128103288Y-31965354D01*
X126986369Y-31959471D01*
X125869449Y-31953588D01*
X125869449Y-34471337D01*
X124690163Y-34471337D01*
X124690163Y-28710979D01*
X125869449Y-28710979D01*
X125869449Y-30978837D01*
X138405029Y-28718204D02*
X138048782Y-28720923D01*
X138048782Y-28720923D02*
X137730511Y-28724138D01*
X137730511Y-28724138D02*
X137451232Y-28727828D01*
X137451232Y-28727828D02*
X137211961Y-28731972D01*
X137211961Y-28731972D02*
X137013714Y-28736549D01*
X137013714Y-28736549D02*
X136857506Y-28741538D01*
X136857506Y-28741538D02*
X136744353Y-28746918D01*
X136744353Y-28746918D02*
X136675270Y-28752669D01*
X136675270Y-28752669D02*
X136664449Y-28754257D01*
X136664449Y-28754257D02*
X136453947Y-28795382D01*
X136453947Y-28795382D02*
X136279784Y-28841094D01*
X136279784Y-28841094D02*
X136132944Y-28895521D01*
X136132944Y-28895521D02*
X136004412Y-28962790D01*
X136004412Y-28962790D02*
X135885173Y-29047026D01*
X135885173Y-29047026D02*
X135766209Y-29152358D01*
X135766209Y-29152358D02*
X135740978Y-29176991D01*
X135740978Y-29176991D02*
X135645486Y-29275663D01*
X135645486Y-29275663D02*
X135574970Y-29360541D01*
X135574970Y-29360541D02*
X135518827Y-29445965D01*
X135518827Y-29445965D02*
X135466458Y-29546275D01*
X135466458Y-29546275D02*
X135463643Y-29552160D01*
X135463643Y-29552160D02*
X135394507Y-29707902D01*
X135394507Y-29707902D02*
X135346248Y-29846777D01*
X135346248Y-29846777D02*
X135315600Y-29983806D01*
X135315600Y-29983806D02*
X135299298Y-30134014D01*
X135299298Y-30134014D02*
X135294077Y-30312423D01*
X135294077Y-30312423D02*
X135294039Y-30332497D01*
X135294039Y-30332497D02*
X135305937Y-30586451D01*
X135305937Y-30586451D02*
X135343516Y-30808586D01*
X135343516Y-30808586D02*
X135409602Y-31006262D01*
X135409602Y-31006262D02*
X135507021Y-31186837D01*
X135507021Y-31186837D02*
X135638598Y-31357671D01*
X135638598Y-31357671D02*
X135721166Y-31444810D01*
X135721166Y-31444810D02*
X135831954Y-31547716D01*
X135831954Y-31547716D02*
X135942882Y-31633620D01*
X135942882Y-31633620D02*
X136061956Y-31706499D01*
X136061956Y-31706499D02*
X136197183Y-31770328D01*
X136197183Y-31770328D02*
X136356567Y-31829086D01*
X136356567Y-31829086D02*
X136548116Y-31886748D01*
X136548116Y-31886748D02*
X136683949Y-31923024D01*
X136683949Y-31923024D02*
X136760146Y-31942676D01*
X136760146Y-31942676D02*
X136593235Y-32055739D01*
X136593235Y-32055739D02*
X136423432Y-32186161D01*
X136423432Y-32186161D02*
X136248377Y-32348594D01*
X136248377Y-32348594D02*
X136078463Y-32532472D01*
X136078463Y-32532472D02*
X135924082Y-32727234D01*
X135924082Y-32727234D02*
X135901231Y-32759104D01*
X135901231Y-32759104D02*
X135862239Y-32816307D01*
X135862239Y-32816307D02*
X135805615Y-32902103D01*
X135805615Y-32902103D02*
X135734354Y-33011747D01*
X135734354Y-33011747D02*
X135651450Y-33140494D01*
X135651450Y-33140494D02*
X135559899Y-33283599D01*
X135559899Y-33283599D02*
X135462693Y-33436314D01*
X135462693Y-33436314D02*
X135362829Y-33593896D01*
X135362829Y-33593896D02*
X135263300Y-33751598D01*
X135263300Y-33751598D02*
X135167102Y-33904675D01*
X135167102Y-33904675D02*
X135077228Y-34048382D01*
X135077228Y-34048382D02*
X134996674Y-34177972D01*
X134996674Y-34177972D02*
X134928434Y-34288700D01*
X134928434Y-34288700D02*
X134875502Y-34375821D01*
X134875502Y-34375821D02*
X134840874Y-34434589D01*
X134840874Y-34434589D02*
X134827543Y-34460259D01*
X134827543Y-34460259D02*
X134827485Y-34460689D01*
X134827485Y-34460689D02*
X134849252Y-34463322D01*
X134849252Y-34463322D02*
X134910907Y-34465718D01*
X134910907Y-34465718D02*
X135006982Y-34467793D01*
X135006982Y-34467793D02*
X135132008Y-34469466D01*
X135132008Y-34469466D02*
X135280517Y-34470652D01*
X135280517Y-34470652D02*
X135447039Y-34471268D01*
X135447039Y-34471268D02*
X135526565Y-34471337D01*
X135526565Y-34471337D02*
X136225645Y-34471337D01*
X136225645Y-34471337D02*
X136804960Y-33603881D01*
X136804960Y-33603881D02*
X136929862Y-33417581D01*
X136929862Y-33417581D02*
X137052693Y-33235732D01*
X137052693Y-33235732D02*
X137170005Y-33063344D01*
X137170005Y-33063344D02*
X137278349Y-32905430D01*
X137278349Y-32905430D02*
X137374278Y-32766998D01*
X137374278Y-32766998D02*
X137454342Y-32653060D01*
X137454342Y-32653060D02*
X137515095Y-32568627D01*
X137515095Y-32568627D02*
X137542936Y-32531500D01*
X137542936Y-32531500D02*
X137663105Y-32388213D01*
X137663105Y-32388213D02*
X137779983Y-32277674D01*
X137779983Y-32277674D02*
X137901947Y-32196043D01*
X137901947Y-32196043D02*
X138037373Y-32139475D01*
X138037373Y-32139475D02*
X138194638Y-32104127D01*
X138194638Y-32104127D02*
X138382119Y-32086158D01*
X138382119Y-32086158D02*
X138522773Y-32081991D01*
X138522773Y-32081991D02*
X138807574Y-32078747D01*
X138807574Y-32078747D02*
X138819314Y-34471337D01*
X138819314Y-34471337D02*
X139998199Y-34471337D01*
X139998199Y-34471337D02*
X139998199Y-29708837D01*
X139998199Y-29708837D02*
X138818913Y-29708837D01*
X138818913Y-29708837D02*
X138818913Y-31137587D01*
X138818913Y-31137587D02*
X138110208Y-31137400D01*
X138110208Y-31137400D02*
X137924195Y-31136611D01*
X137924195Y-31136611D02*
X137743059Y-31134467D01*
X137743059Y-31134467D02*
X137574451Y-31131164D01*
X137574451Y-31131164D02*
X137426024Y-31126894D01*
X137426024Y-31126894D02*
X137305429Y-31121849D01*
X137305429Y-31121849D02*
X137220316Y-31116224D01*
X137220316Y-31116224D02*
X137203350Y-31114510D01*
X137203350Y-31114510D02*
X137024757Y-31086174D01*
X137024757Y-31086174D02*
X136882963Y-31044859D01*
X136882963Y-31044859D02*
X136770517Y-30987535D01*
X136770517Y-30987535D02*
X136679965Y-30911175D01*
X136679965Y-30911175D02*
X136666408Y-30896305D01*
X136666408Y-30896305D02*
X136573539Y-30758794D01*
X136573539Y-30758794D02*
X136518190Y-30598790D01*
X136518190Y-30598790D02*
X136499457Y-30413610D01*
X136499457Y-30413610D02*
X136499486Y-30400533D01*
X136499486Y-30400533D02*
X136518827Y-30215226D01*
X136518827Y-30215226D02*
X136573718Y-30058078D01*
X136573718Y-30058078D02*
X136664266Y-29928943D01*
X136664266Y-29928943D02*
X136790576Y-29827676D01*
X136790576Y-29827676D02*
X136952758Y-29754132D01*
X136952758Y-29754132D02*
X136982586Y-29744766D01*
X136982586Y-29744766D02*
X137021187Y-29735217D01*
X137021187Y-29735217D02*
X137069393Y-29727463D01*
X137069393Y-29727463D02*
X137131924Y-29721330D01*
X137131924Y-29721330D02*
X137213500Y-29716645D01*
X137213500Y-29716645D02*
X137318842Y-29713235D01*
X137318842Y-29713235D02*
X137452669Y-29710926D01*
X137452669Y-29710926D02*
X137619701Y-29709546D01*
X137619701Y-29709546D02*
X137824659Y-29708921D01*
X137824659Y-29708921D02*
X137961244Y-29708837D01*
X137961244Y-29708837D02*
X138818913Y-29708837D01*
X138818913Y-29708837D02*
X139998199Y-29708837D01*
X139998199Y-29708837D02*
X139998199Y-28707734D01*
X139998199Y-28707734D02*
X138405029Y-28718204D01*
X138405029Y-28718204D02*
X138405029Y-28718204D01*
G36*
X138819314Y-34471337D02*
G01*
X138807574Y-32078747D01*
X138522773Y-32081991D01*
X138382119Y-32086158D01*
X138194638Y-32104127D01*
X138037373Y-32139475D01*
X137901947Y-32196043D01*
X137779983Y-32277674D01*
X137663105Y-32388213D01*
X137542936Y-32531500D01*
X137515095Y-32568627D01*
X137454342Y-32653060D01*
X137374278Y-32766998D01*
X137278349Y-32905430D01*
X137170005Y-33063344D01*
X137052693Y-33235732D01*
X136929862Y-33417581D01*
X136804960Y-33603881D01*
X136225645Y-34471337D01*
X135526565Y-34471337D01*
X135447039Y-34471268D01*
X135280517Y-34470652D01*
X135132008Y-34469466D01*
X135006982Y-34467793D01*
X134910907Y-34465718D01*
X134849252Y-34463322D01*
X134827485Y-34460689D01*
X134827543Y-34460259D01*
X134840874Y-34434589D01*
X134875502Y-34375821D01*
X134928434Y-34288700D01*
X134996674Y-34177972D01*
X135077228Y-34048382D01*
X135167102Y-33904675D01*
X135263300Y-33751598D01*
X135362829Y-33593896D01*
X135462693Y-33436314D01*
X135559899Y-33283599D01*
X135651450Y-33140494D01*
X135734354Y-33011747D01*
X135805615Y-32902103D01*
X135862239Y-32816307D01*
X135901231Y-32759104D01*
X135924082Y-32727234D01*
X136078463Y-32532472D01*
X136248377Y-32348594D01*
X136423432Y-32186161D01*
X136593235Y-32055739D01*
X136760146Y-31942676D01*
X136683949Y-31923024D01*
X136548116Y-31886748D01*
X136356567Y-31829086D01*
X136197183Y-31770328D01*
X136061956Y-31706499D01*
X135942882Y-31633620D01*
X135831954Y-31547716D01*
X135721166Y-31444810D01*
X135638598Y-31357671D01*
X135507021Y-31186837D01*
X135409602Y-31006262D01*
X135343516Y-30808586D01*
X135305937Y-30586451D01*
X135297839Y-30413610D01*
X136499457Y-30413610D01*
X136518190Y-30598790D01*
X136573539Y-30758794D01*
X136666408Y-30896305D01*
X136679965Y-30911175D01*
X136770517Y-30987535D01*
X136882963Y-31044859D01*
X137024757Y-31086174D01*
X137203350Y-31114510D01*
X137220316Y-31116224D01*
X137305429Y-31121849D01*
X137426024Y-31126894D01*
X137574451Y-31131164D01*
X137743059Y-31134467D01*
X137924195Y-31136611D01*
X138110208Y-31137400D01*
X138818913Y-31137587D01*
X138818913Y-29708837D01*
X137961244Y-29708837D01*
X137824659Y-29708921D01*
X137619701Y-29709546D01*
X137452669Y-29710926D01*
X137318842Y-29713235D01*
X137213500Y-29716645D01*
X137131924Y-29721330D01*
X137069393Y-29727463D01*
X137021187Y-29735217D01*
X136982586Y-29744766D01*
X136952758Y-29754132D01*
X136790576Y-29827676D01*
X136664266Y-29928943D01*
X136573718Y-30058078D01*
X136518827Y-30215226D01*
X136499486Y-30400533D01*
X136499457Y-30413610D01*
X135297839Y-30413610D01*
X135294039Y-30332497D01*
X135294077Y-30312423D01*
X135299298Y-30134014D01*
X135315600Y-29983806D01*
X135346248Y-29846777D01*
X135394507Y-29707902D01*
X135463643Y-29552160D01*
X135466458Y-29546275D01*
X135518827Y-29445965D01*
X135574970Y-29360541D01*
X135645486Y-29275663D01*
X135740978Y-29176991D01*
X135766209Y-29152358D01*
X135885173Y-29047026D01*
X136004412Y-28962790D01*
X136132944Y-28895521D01*
X136279784Y-28841094D01*
X136453947Y-28795382D01*
X136664449Y-28754257D01*
X136675270Y-28752669D01*
X136744353Y-28746918D01*
X136857506Y-28741538D01*
X137013714Y-28736549D01*
X137211961Y-28731972D01*
X137451232Y-28727828D01*
X137730511Y-28724138D01*
X138048782Y-28720923D01*
X138405029Y-28718204D01*
X139998199Y-28707734D01*
X139998199Y-34471337D01*
X138819314Y-34471337D01*
G37*
X138819314Y-34471337D02*
X138807574Y-32078747D01*
X138522773Y-32081991D01*
X138382119Y-32086158D01*
X138194638Y-32104127D01*
X138037373Y-32139475D01*
X137901947Y-32196043D01*
X137779983Y-32277674D01*
X137663105Y-32388213D01*
X137542936Y-32531500D01*
X137515095Y-32568627D01*
X137454342Y-32653060D01*
X137374278Y-32766998D01*
X137278349Y-32905430D01*
X137170005Y-33063344D01*
X137052693Y-33235732D01*
X136929862Y-33417581D01*
X136804960Y-33603881D01*
X136225645Y-34471337D01*
X135526565Y-34471337D01*
X135447039Y-34471268D01*
X135280517Y-34470652D01*
X135132008Y-34469466D01*
X135006982Y-34467793D01*
X134910907Y-34465718D01*
X134849252Y-34463322D01*
X134827485Y-34460689D01*
X134827543Y-34460259D01*
X134840874Y-34434589D01*
X134875502Y-34375821D01*
X134928434Y-34288700D01*
X134996674Y-34177972D01*
X135077228Y-34048382D01*
X135167102Y-33904675D01*
X135263300Y-33751598D01*
X135362829Y-33593896D01*
X135462693Y-33436314D01*
X135559899Y-33283599D01*
X135651450Y-33140494D01*
X135734354Y-33011747D01*
X135805615Y-32902103D01*
X135862239Y-32816307D01*
X135901231Y-32759104D01*
X135924082Y-32727234D01*
X136078463Y-32532472D01*
X136248377Y-32348594D01*
X136423432Y-32186161D01*
X136593235Y-32055739D01*
X136760146Y-31942676D01*
X136683949Y-31923024D01*
X136548116Y-31886748D01*
X136356567Y-31829086D01*
X136197183Y-31770328D01*
X136061956Y-31706499D01*
X135942882Y-31633620D01*
X135831954Y-31547716D01*
X135721166Y-31444810D01*
X135638598Y-31357671D01*
X135507021Y-31186837D01*
X135409602Y-31006262D01*
X135343516Y-30808586D01*
X135305937Y-30586451D01*
X135297839Y-30413610D01*
X136499457Y-30413610D01*
X136518190Y-30598790D01*
X136573539Y-30758794D01*
X136666408Y-30896305D01*
X136679965Y-30911175D01*
X136770517Y-30987535D01*
X136882963Y-31044859D01*
X137024757Y-31086174D01*
X137203350Y-31114510D01*
X137220316Y-31116224D01*
X137305429Y-31121849D01*
X137426024Y-31126894D01*
X137574451Y-31131164D01*
X137743059Y-31134467D01*
X137924195Y-31136611D01*
X138110208Y-31137400D01*
X138818913Y-31137587D01*
X138818913Y-29708837D01*
X137961244Y-29708837D01*
X137824659Y-29708921D01*
X137619701Y-29709546D01*
X137452669Y-29710926D01*
X137318842Y-29713235D01*
X137213500Y-29716645D01*
X137131924Y-29721330D01*
X137069393Y-29727463D01*
X137021187Y-29735217D01*
X136982586Y-29744766D01*
X136952758Y-29754132D01*
X136790576Y-29827676D01*
X136664266Y-29928943D01*
X136573718Y-30058078D01*
X136518827Y-30215226D01*
X136499486Y-30400533D01*
X136499457Y-30413610D01*
X135297839Y-30413610D01*
X135294039Y-30332497D01*
X135294077Y-30312423D01*
X135299298Y-30134014D01*
X135315600Y-29983806D01*
X135346248Y-29846777D01*
X135394507Y-29707902D01*
X135463643Y-29552160D01*
X135466458Y-29546275D01*
X135518827Y-29445965D01*
X135574970Y-29360541D01*
X135645486Y-29275663D01*
X135740978Y-29176991D01*
X135766209Y-29152358D01*
X135885173Y-29047026D01*
X136004412Y-28962790D01*
X136132944Y-28895521D01*
X136279784Y-28841094D01*
X136453947Y-28795382D01*
X136664449Y-28754257D01*
X136675270Y-28752669D01*
X136744353Y-28746918D01*
X136857506Y-28741538D01*
X137013714Y-28736549D01*
X137211961Y-28731972D01*
X137451232Y-28727828D01*
X137730511Y-28724138D01*
X138048782Y-28720923D01*
X138405029Y-28718204D01*
X139998199Y-28707734D01*
X139998199Y-34471337D01*
X138819314Y-34471337D01*
%TD*%
M02*
