M48
; DRILL file {KiCad (6.0.0-0)} date 2022 December 08, Thursday 17:20:36
; FORMAT={-:-/ absolute / inch / decimal}
; #@! TF.CreationDate,2022-12-08T17:20:36+01:00
; #@! TF.GenerationSoftware,Kicad,Pcbnew,(6.0.0-0)
; #@! TF.FileFunction,Plated,1,2,PTH
FMAT,2
INCH
; #@! TA.AperFunction,Plated,PTH,ViaDrill
T1C0.0157
; #@! TA.AperFunction,Plated,PTH,ComponentDrill
T2C0.0276
; #@! TA.AperFunction,Plated,PTH,ComponentDrill
T3C0.0295
; #@! TA.AperFunction,Plated,PTH,ComponentDrill
T4C0.0300
; #@! TA.AperFunction,Plated,PTH,ComponentDrill
T5C0.0315
; #@! TA.AperFunction,Plated,PTH,ComponentDrill
T6C0.0354
; #@! TA.AperFunction,Plated,PTH,ComponentDrill
T7C0.0394
; #@! TA.AperFunction,Plated,PTH,ComponentDrill
T8C0.0591
%
G90
G05
T1
X0.058Y-0.9646
X0.1047Y-1.0039
X0.1295Y-1.0598
X0.1643Y-1.1142
X0.1997Y-1.1693
X0.4961Y-1.5157
X0.5147Y-2.2331
X0.6024Y-1.7165
X0.8976Y-1.9252
X0.9646Y-1.9252
X1.1842Y-2.6807
X1.2371Y-2.7419
X1.2413Y-2.6807
X1.2631Y-1.3678
X1.2677Y-1.2598
X1.2987Y-2.4247
X1.3352Y-2.2689
X1.3425Y-2.3701
X1.3927Y-2.3635
X1.3976Y-2.6811
X1.4094Y-2.3031
X1.4326Y-2.3633
X1.5308Y-1.3658
X1.6457Y-1.1772
X1.7323Y-2.685
X2.0123Y-1.1964
X2.0354Y-2.685
X2.1024Y-2.0197
X2.185Y-1.3386
X2.189Y-1.189
X2.2008Y-1.2717
X2.2377Y-1.9503
X2.2756Y-1.5945
X2.3071Y-1.4882
X2.3189Y-1.122
X2.3386Y-1.5669
X2.3671Y-1.9203
X2.378Y-0.9872
X2.381Y-2.6972
X2.3976Y-1.9882
X2.4606Y-1.6378
X2.5472Y-1.6929
X2.5512Y-2.3386
X2.5551Y-1.4252
X2.5693Y-1.8004
X2.5945Y-1.752
X2.626Y-1.3661
X2.626Y-1.4262
X2.6299Y-1.1496
X2.6693Y-1.7942
X2.696Y-2.6972
X2.6969Y-1.3622
X2.7008Y-1.4882
X2.7362Y-2.1142
X2.7375Y-1.5489
X2.8504Y-1.7165
X2.8583Y-1.3031
X2.8661Y-1.5866
X2.8701Y-1.3701
X2.8858Y-1.4425
X2.8898Y-1.5079
X2.937Y-1.2864
X2.937Y-1.4331
X2.9449Y-1.7205
X2.9567Y-0.3976
X2.9567Y-0.5551
X3.0208Y-2.6972
X3.0512Y-1.7756
X3.0591Y-1.9331
X3.0718Y-2.0669
X3.1142Y-0.3976
X3.1142Y-0.5551
X3.1175Y-1.6806
X3.1181Y-1.3543
X3.1181Y-2.0433
X3.1417Y-1.4646
X3.1535Y-1.3937
X3.1609Y-1.591
X3.1668Y-1.5448
X3.1732Y-1.8346
X3.2131Y-1.4956
X3.2441Y-2.1654
X3.2631Y-1.3776
X3.2717Y-0.3976
X3.2717Y-0.5551
X3.2795Y-1.0315
X3.2814Y-1.7225
X3.2867Y-1.576
X3.2889Y-1.8754
X3.2953Y-2.0827
X3.3062Y-2.6972
X3.3234Y-1.9099
X3.3419Y-2.3815
X3.3671Y-2.0012
X3.4094Y-1.1063
X3.5315Y-1.2992
X3.6507Y-2.707
X3.6814Y-1.915
X3.708Y-2.0508
X3.7395Y-1.7347
X3.8031Y-1.2717
X3.8139Y-1.9548
X3.8189Y-2.185
X3.823Y-1.8808
X3.8793Y-1.5626
X3.9558Y-2.707
X4.1575Y-1.8307
X4.2806Y-2.707
X4.2874Y-1.3268
X4.3163Y-1.8028
X4.3268Y-1.626
X4.3622Y-2.185
X4.378Y-1.8071
X4.3937Y-1.5827
X4.3976Y-1.7165
X4.4803Y-1.874
X4.5759Y-2.6972
X4.7835Y-2.4521
X4.9007Y-2.707
X4.9882Y-1.9094
X5.0945Y-2.0093
X5.1614Y-0.9488
X5.311Y-1.2559
X5.437Y-2.1811
X5.4921Y-0.5197
X5.7244Y-1.2638
X5.7953Y-2.2835
X5.8346Y-0.9252
X5.8937Y-2.2205
X6.0984Y-1.9134
X6.1257Y-2.4924
T2
X0.252Y-1.9681
X0.252Y-2.2681
X0.2598Y-0.3421
X0.2598Y-0.6421
X0.3425Y-0.3417
X0.3425Y-0.6417
X0.4252Y-0.3425
X0.4252Y-0.6425
X0.4291Y-0.8228
X0.5079Y-0.3425
X0.5079Y-0.6425
X0.5906Y-0.3425
X0.5906Y-0.6425
X0.6732Y-0.3421
X0.6732Y-0.6421
X0.7291Y-0.8228
X0.7559Y-0.3425
X0.7559Y-0.6425
X0.8071Y-0.8228
X0.8386Y-0.3417
X0.8386Y-0.6417
X0.9213Y-0.3425
X0.9213Y-0.6425
X1.0039Y-0.3417
X1.0039Y-0.6417
X1.0866Y-0.3425
X1.0866Y-0.6425
X1.1071Y-0.8228
X1.2953Y-0.3465
X1.2953Y-0.6465
X1.3819Y-0.3457
X1.3819Y-0.6457
X1.3937Y-1.9205
X1.3937Y-2.2205
X1.4327Y-1.8386
X1.7008Y-1.1181
X1.7039Y-1.0315
X1.7327Y-1.8386
X1.7677Y-2.0591
X1.7677Y-2.3591
X1.8543Y-2.0626
X1.8543Y-2.3626
X1.8976Y-0.2835
X1.8976Y-0.5835
X1.9843Y-0.2831
X1.9843Y-0.5831
X2.0008Y-1.1181
X2.0039Y-1.0315
X2.0236Y-1.4957
X2.0236Y-1.7957
X2.1024Y-1.7913
X2.4024Y-1.7913
X2.4953Y-1.2165
X2.4957Y-1.0433
X2.4957Y-1.3031
X2.4961Y-1.1299
X2.4996Y-1.5945
X2.7953Y-1.2165
X2.7957Y-1.0433
X2.7957Y-1.3031
X2.7961Y-1.1299
X2.7996Y-1.5945
X3.0433Y-1.8382
X3.0433Y-2.1382
X3.1256Y-1.7953
X3.1496Y-1.0236
X3.4186Y-1.8808
X3.4186Y-2.1808
X3.4256Y-1.7953
X3.4324Y-1.5666
X3.4496Y-1.0236
X3.7033Y-1.0193
X3.7041Y-1.102
X3.7041Y-1.1847
X3.7041Y-1.2674
X3.7324Y-1.5666
X3.7348Y-1.4642
X3.8084Y-1.5666
X4.0033Y-1.0193
X4.0041Y-1.102
X4.0041Y-1.1847
X4.0041Y-1.2674
X4.0348Y-1.4642
X4.1084Y-1.5666
X4.1417Y-1.9567
X4.1417Y-2.2567
X4.2037Y-0.9012
X4.2037Y-0.9878
X4.5037Y-0.9012
X4.5037Y-0.9878
X4.6024Y-1.2161
X4.6024Y-1.5161
X4.9921Y-2.0661
X4.9921Y-2.3661
X5.0787Y-2.0661
X5.0787Y-2.3661
X5.7205Y-2.0902
X5.7205Y-2.3902
X6.0157Y-1.7205
X6.0157Y-1.8031
X6.311Y-1.3417
X6.311Y-1.6417
X6.3157Y-1.7205
X6.3157Y-1.8031
T3
X2.9382Y-1.0681
X2.9882Y-1.1181
X3.0382Y-1.0681
X4.7756Y-2.0827
X4.7756Y-2.3228
X4.8256Y-2.0327
X4.8256Y-2.2728
X4.8756Y-2.0827
X4.8756Y-2.3228
T4
X5.3872Y-0.0801
X5.5447Y-0.0801
T5
X0.4875Y-1.0768
X0.4875Y-1.1768
X0.4875Y-1.2768
X0.9875Y-1.0792
X0.9875Y-1.1792
X0.9875Y-1.2792
X1.3898Y-0.815
X1.393Y-0.9989
X1.393Y-1.2989
X1.4921Y-0.3228
X1.4921Y-0.4228
X1.4921Y-0.5228
X1.4921Y-0.6228
X1.493Y-0.9989
X1.493Y-1.2989
X1.5039Y-2.2638
X1.5157Y-2.0236
X1.5866Y-0.815
X1.5945Y-2.0236
X1.6024Y-2.2638
X1.6772Y-0.815
X1.7402Y-1.2244
X1.7921Y-0.3228
X1.7921Y-0.4228
X1.7921Y-0.5228
X1.7921Y-0.6228
X1.815Y-1.9055
X1.8189Y-0.1457
X1.874Y-0.815
X1.9134Y-1.9055
X1.937Y-1.2244
X2.0157Y-0.1457
X2.1142Y-1.0856
X2.1142Y-1.1856
X2.1142Y-1.2856
X2.1142Y-1.3856
X2.1142Y-1.4856
X2.1142Y-1.5856
X2.1142Y-1.6856
X2.4142Y-1.0856
X2.4142Y-1.1856
X2.4142Y-1.2856
X2.4142Y-1.3856
X2.4142Y-1.4856
X2.4142Y-1.5856
X2.4142Y-1.6856
X2.4996Y-1.3976
X2.5008Y-1.5
X2.6516Y-1.6969
X2.75Y-1.6969
X2.7996Y-1.3976
X2.8008Y-1.5
X3.0348Y-1.3264
X3.0348Y-1.4264
X3.0348Y-1.5264
X3.0348Y-1.6264
X3.3348Y-1.3264
X3.3348Y-1.4264
X3.3348Y-1.5264
X3.3348Y-1.6264
X3.4364Y-1.4662
X3.4375Y-1.3579
X3.5591Y-1.0197
X3.5591Y-1.2165
X3.6332Y-1.4662
X3.7375Y-1.3579
X3.8194Y-1.3579
X4.1017Y-1.0705
X4.1017Y-1.2674
X4.1194Y-1.3579
X4.2047Y-1.0974
X4.2047Y-1.1974
X4.2047Y-1.2974
X4.2047Y-1.3974
X4.2047Y-1.4974
X4.2047Y-1.5974
X4.2047Y-1.6974
X4.2671Y-0.4012
X4.2671Y-0.5981
X4.4265Y-0.291
X4.4265Y-0.591
X4.5047Y-1.0974
X4.5047Y-1.1974
X4.5047Y-1.2974
X4.5047Y-1.3974
X4.5047Y-1.4974
X4.5047Y-1.5974
X4.5047Y-1.6974
X4.584Y-0.35
X4.6614Y-1.5945
X4.6614Y-1.7913
X4.6824Y-0.35
X4.8228Y-1.6181
X4.8228Y-1.815
T6
X4.419Y-0.7398
X4.4227Y-0.1274
X4.5014Y-0.1274
X4.519Y-0.7398
X4.5801Y-0.1274
X6.2756Y-2.6732
X6.2756Y-2.752
X6.2756Y-2.8307
X6.2756Y-3.1614
X6.2756Y-3.2402
X6.2756Y-3.3189
T7
X0.4606Y-2.3602
X0.5591Y-2.3602
X0.6575Y-2.3602
X0.9882Y-2.3602
X1.0866Y-2.3602
X1.185Y-2.3602
X2.063Y-2.3563
X2.1614Y-2.3563
X2.2598Y-2.3563
X2.6378Y-2.3543
X2.7362Y-2.3543
X2.8346Y-2.3543
X3.5604Y-2.2733
X3.7178Y-2.2733
X3.7966Y-2.2733
X3.8753Y-2.2733
X3.9541Y-2.2733
X4.3543Y-2.3583
X4.4528Y-2.3583
X4.5512Y-2.3583
X5.315Y-2.3577
X5.4134Y-2.3577
X5.4738Y-3.2457
X5.4738Y-3.4229
X5.5118Y-2.3577
X5.7887Y-3.2457
X5.7887Y-3.4229
T8
X4.34Y-0.1274
X4.6628Y-0.1274
X6.2756Y-2.5906
X6.2756Y-2.9134
X6.2756Y-3.0787
X6.2756Y-3.4016
T5
G00X0.5394Y-3.252
M15
G01X0.5394Y-3.3228
M16
G05
G00X0.5984Y-3.189
M15
G01X0.6772Y-3.189
M16
G05
G00X0.7362Y-3.252
M15
G01X0.7362Y-3.3228
M16
G05
G00X3.6352Y-2.2733
M15
G01X3.643Y-2.2733
M16
G05
G00X5.9857Y-1.8833
M15
G01X5.9581Y-1.8833
M16
G05
G00X5.9857Y-1.9817
M15
G01X5.9581Y-1.9817
M16
G05
G00X5.9857Y-2.1786
M15
G01X5.9581Y-2.1786
M16
G05
G00X5.9857Y-2.277
M15
G01X5.9581Y-2.277
M16
G05
G00X6.1687Y-2.0664
M15
G01X6.1687Y-2.0939
M16
G05
T0
M30
